<svg xmlns="http://www.w3.org/2000/svg" >
<symbol id="logo" viewBox="0 0 642.8 524.5">
  <path d="M245.9 521.3c-2-1.8-4.8-4.3-6.5-5.6l-3-2.4 6.8-6.3a280.6 280.6 0 0 1 45.7-34.6c.3-.4 1.4-1.1 2.5-1.6 1.1-.4 5.4-2.5 9.5-4.7 8.6-4.4 8.1-5.4-3-5.5a45.4 45.4 0 0 0-27 9.7l-19.6 13c-19.4 13-35.1 19-53.9 20.7a95.8 95.8 0 0 1-62-20c-12-9.7-13.7-12.6-4.6-8A88 88 0 0 0 196 480c4-1.3 14.8-5.6 23.9-9.6a238.8 238.8 0 0 1 48.5-16.5 130 130 0 0 1 46.6 1.5c8.1 2.2 8.9 2.3 12 .8 1.9-.9 6.1-2 9.4-2.6 24.3-4.2 49.3-1 73.5 9.5 38.8 16.8 46.1 18.9 65.5 18.7 16-.1 25.4-2.1 37-7.9 3.7-1.9 7-3.3 7.2-3 1 .8-15 14.1-21.8 18.2a86 86 0 0 1-67.4 10.3c-16.2-4-27.3-9.5-46.5-23-16.5-11.5-20.5-13.7-27.6-15-6-1-19.5-.4-19.3 1 0 .3 2.8 1.9 6.2 3.5 10 5 24.5 13.8 35.7 22 11.7 8.4 27.8 22.4 28 24.2 0 1-10.8 11.3-12 11.3-.3 0-7-6.4-15-14.3a239.5 239.5 0 0 0-40.5-33.6c-14.4-9.5-15.3-9.8-22.1-7.2a196.2 196.2 0 0 0-35.4 23.7 289.1 289.1 0 0 0-31.9 32.4c-.3 0-2.2-1.5-4.1-3.2zm-105.5-53a102.7 102.7 0 0 1-40-16.8A99 99 0 0 1 72.7 423l-2-4 2.3 2 5.4 4.8c4 3.6 19.5 11.2 26.9 13 9.1 2.4 24.6 4.4 43.1 5.6 19.7 1.2 30.3 2.5 43.4 5.1 5.1 1 10.3 2 11.4 2 3.7 0 .5-1.8-6.2-3.5a58.6 58.6 0 0 1-35.5-25.4c-2.4-3.8-7.6-13-11.5-20.7-3.8-7.7-8.2-15.9-9.6-18.2-1.4-2.3-2.3-4.3-2-4.3 2.8 0 20.4 14.9 41.5 35 9 8.6 19 17.6 22 20 9 7 24.6 13.6 41.5 17.6 2.7.6 2.8.8 1 1.5a336.4 336.4 0 0 0-31.8 7 416 416 0 0 1-35.2 7.4 147 147 0 0 1-37 .4zm323.5-2.2c-4.7-.8-14.6-2.8-22-4.6-24.9-5.9-33.9-7.9-39.2-8.6-6-.8-6-.8 7.7-4.9 11.5-3.4 22-8.3 28.2-13 2.6-2 11.4-10 19.4-17.8l21-20.2c7.8-7.4 25.2-21.5 25.7-21 .3.3-.9 2.6-2.5 5.2-1.6 2.7-6.4 12-10.6 20.7-8 16.7-14.2 26.2-20 31.4a72 72 0 0 1-24.4 13c-11.1 3.4-7.8 4.2 6.3 1.3a313 313 0 0 1 38.9-5c23.5-2 37.5-4 45.8-6.7 12.8-4 22.4-9.4 29.5-16.4 5-5 5-2.7.2 4.3-13 18.7-34 33.6-56.7 40.3a74.2 74.2 0 0 1-23.8 3c-9.5.2-18.1-.2-23.5-1zm-316-31.5c-6.9-1.5-17.4-3.5-23.3-4.4-24-4-35-8-51.8-19.2-11-7.3-26.3-21.7-33.3-31.4a124 124 0 0 1-15.5-29c-3.2-9.7-2.7-11.4 1.4-4.7 9.6 16 20.3 24.3 51.5 39.8 26.2 13 32.8 17 43 25 8.2 6.7 15 11.2 15.6 10.5.3-.2-2.7-3.4-6.5-7.2-7-6.7-14-16-18-24.1-2.8-5.7-6.5-19-8-28.9-3-19.7-6.3-35.8-8.1-40.7a35 35 0 0 1-2-6.6c0-1.8 8.9 9.4 16.5 20.8 8.7 13 13.5 23 19 39.5 11.7 34.6 17.2 45.4 29.6 58.2 2.8 3 4.5 5.3 3.8 5.2-.8 0-7-1.3-13.9-2.8zm332 1.5l4.3-4.7c12-12.2 17.9-24.2 30-60.4a144 144 0 0 1 18.2-39.5c7.5-11 16.7-23.1 17-22.7.3.2-.6 3.5-2 7.3-2.2 6.3-3.3 12.1-8 42.4a93 93 0 0 1-26.4 54.3c-7 7.3-5 7.4 3.1.1a211 211 0 0 1 44.2-27.8c10.4-5.3 22.8-12 27.5-14.8a99.6 99.6 0 0 0 29-28.3c2.6-4.4 4-6.2 4.1-4.9 0 2.3-3.7 13.4-7 21-6.7 15.5-27 38.3-44 49.4-18.4 12-29.8 16.3-58 21.5a242.4 242.4 0 0 0-32 7.1zm-182-1.6a249 249 0 0 1-70.3-20.3 232 232 0 0 1-125.2-146.5 224.7 224.7 0 0 1 47.8-213c4.7-5 8.6-8.2 5.6-4.6l-6 7.4a276.4 276.4 0 0 0-33.9 58.5l-4 12c-12.3 36-14.8 79-6.8 119a248 248 0 0 0 44.5 95.4c32.2 39.7 76.2 68 123.3 79.5 22 5.4 28.7 6 57 6 28.7 0 33.9-.5 57.2-6.4a222.9 222.9 0 0 0 88.1-44.7c4.3-3.6 8-6.3 8.3-6 1.5 1.5-24.9 22.4-40.8 32.3a234 234 0 0 1-75.5 29c-12 2.4-16.8 2.7-37.8 3-13.2.2-27.4-.1-31.5-.6zm-204-51.3c-2.5-1.8-9.4-6.3-15.5-10.2-42-26.5-59.9-43.8-70.5-68.4A83.3 83.3 0 0 1 .2 269c-.6-13.9 0-16.5 1.8-8.3 2.9 12.5 11 24.2 33.7 47.7 18.4 19.1 20.4 21.5 28 33.1C70 351 75 357.7 75.6 357.2c.2-.2-1.4-3.7-3.6-7.8a67.4 67.4 0 0 1-8.5-37.4c0-11.7.5-16.6 3.3-30.5 1.9-9 3.7-20.3 4-25l.7-8.5 3.1 9.5C79.5 272.3 81 282 85 323c2.9 30 5.2 40.9 11.3 53.9 2.5 5.5 4 9.6 3.3 9.6-.7 0-3.2-1.5-5.7-3.3zm450.5-4.7C551.8 364 555 348.8 558 313c2.1-25.4 4-40 6.4-49.2 1.7-6.5 6-19 6.8-19.8.3-.3.8 5 1.1 11.8.4 7.2 1.7 17.1 3.2 24.2 3.8 17.6 4.5 37.2 1.6 48.5a74.9 74.9 0 0 1-11.1 25.2c0 2 1.8.4 5.4-5a244.4 244.4 0 0 1 35-44.2c16.2-16.8 21.4-23.1 26.5-32 3.3-6 8-19 8.2-22.4 0-1.8.1-1.8 1 .4 1.8 4.2.4 23.4-2.4 34-5 19.2-14 34.3-30.2 50.7a185.3 185.3 0 0 1-38.5 29.6 555 555 0 0 0-20.5 13.7c-3.8 2.8-7.3 5-7.7 5-.5 0 .3-2.2 1.7-5zm-292-30.2c-.3-.8-.4-5.4-.3-10.3l.3-9 3.8-.3c5.1-.4 8.7 2 8.7 5.7 0 3.5-1.7 5-6.4 5.8-3.4.6-3.6.8-3.6 4.4 0 3.9-1.6 6.2-2.5 3.7zm9-13.8c0-2-.5-2.5-3.2-2.8-3-.3-3.3 0-3.3 2.8 0 3 .2 3.1 3.3 2.9 2.7-.3 3.2-.8 3.2-2.9zm7.3 14.5c-.8-.8 7.7-18.8 9-19.3.7-.2 2 1.3 2.8 3.3l4.3 9.6c1.6 3.2 2.6 6 2.3 6.4-1.2 1.2-2.3.4-3.9-3-1.5-3-2.1-3.5-5.5-3.5s-4 .4-5.2 3.5c-1.4 3.4-2.6 4.2-3.8 3zm11.2-9.7c0-.7-.5-2-1-2.8-.9-1.3-1.1-1.3-2 0-1.6 2.4-1.2 4 1 4 1.1 0 2-.5 2-1.2zm11.2 0l.3-10.3 4.8.2c2.6.1 5.5.7 6.3 1.4 2.3 1.9 1.4 7.2-1.3 8.4-3 1.3-2.9 2.1.2 6.1 2.9 3.8 3 4.4 1.2 4.4-.7 0-2.9-2-4.8-4.6l-3.4-4.6-.5 4.3c-.3 2.4-1 4.5-1.8 4.7-1 .3-1.2-1.8-1-10zm9.3-4.8c0-2-.5-2.5-3.2-2.8-3-.3-3.3 0-3.3 2.8 0 3 .2 3.1 3.3 2.9 2.7-.3 3.2-.8 3.2-2.9zm10.2 14.4c-.4-.4-.7-4.4-.7-9 0-7.7-.2-8.4-2-8.4-1.1 0-2-.6-2-1.5 0-1.3 1-1.5 5.5-1.3 5.5.3 8 2 3.8 2.7-2.2.3-2.3.7-2.3 9.2 0 8.2-.5 10-2.3 8.3zm10.3-10c0-6.7.4-10.3 1-9.9.6.4 1 5 1 10.6 0 6-.4 10-1 10s-1-4.2-1-10.6zm7 .1v-10.6l5.5.3c6.7.4 7.3 2.2 1 2.6-4.4.3-4.6.5-4.3 3 .3 2.5.7 2.8 5 3 6 .4 6.3 2.2.4 2.2-4.5 0-5.7 1-5.2 4.7.2 1.4 1.4 2 4.7 2.3 6 .7 5.1 2.5-1.6 2.8l-5.5.3V339zm15.8 9.5c-1-.6-1.8-1.7-1.8-2.5 0-1.9.5-1.8 3.5.1 5.4 3.6 6.4-2.9 1-7-7-5.4-2.1-14.4 5-9.1 2.6 1.8 1.2 3.2-2 1.8-1.8-1-2.6-.8-3.6.3-1 1.2-.3 2.2 3.5 5.8 5 4.6 5.4 6 3 9.4-1.6 2.4-5.6 3-8.6 1.2zm21.9.3a55 55 0 0 1 2.8-18.4c.6 0 2.5 3 4.3 6.7 3.8 7.8 4 7.8 8.4-2.1 1.2-3 2.8-5.3 3.3-5.1.6.2 1.5 3.9 2.2 8.2 1.6 10.6 1.5 11.4-.2 11.4-1 0-1.5-1-1.6-3.2 0-1.8-.4-4.6-.8-6.3-.7-3-.7-3-4 3.3a33.5 33.5 0 0 1-3.6 6.2c-.3 0-2-2.8-3.7-6.2l-3.2-6.3-1 5.7c-1.1 5.8-2 7.6-3 6.1zm26.7-.6c-.3-.7-.3-5.3-.2-10.2l.3-9 5.8-.3c4.6-.2 5.7 0 5.7 1.3 0 1.2-1.1 1.5-4.5 1.5-4.3 0-4.5.1-4.5 3 0 3 .2 3 4.5 3 2.5 0 4.5.5 4.5 1 0 .6-2 1-4.5 1-4.5 0-4.5 0-4.5 3.5 0 3.3.1 3.4 4.2 3.7 2.3.2 4.3.9 4.6 1.6.6 1.8-10.7 1.7-11.4 0zM408 339v-10.6l5.5.3c6.4.4 7.4 2.2 1.5 2.6-3.7.3-4 .6-4 3.3 0 2.8.2 3 4.5 3 2.5 0 4.5.4 4.5 1 0 .5-2 1-4.4 1-4.7 0-5.9 1.1-5 4.8.5 1.6 1.6 2.1 4.8 2.3 6 .5 4.6 2.3-1.9 2.6l-5.5.3zm17.8 9.8l-.3-1.8c-.2-.5-.3-4.2-.4-8.2 0-6.7-.3-7.3-2.2-7.3-1.2 0-1.9-.5-1.6-1.2.5-1.5 10.6-1.8 11-.3 0 .6-.8 1.2-2 1.4-2.2.3-2.3.7-2.3 9.2 0 5.3-.4 9-1 9-.5 0-1-.4-1.2-.8zM198 315c0-2 8.1-18.6 9-18.6 1 0 9 16.6 9.1 18.5.1 2.5-2.2 1.3-3.5-1.9-1.4-3.3-1.8-3.6-5.6-3.6-3.7 0-4.2.3-5.6 3.5-1.4 3.6-3.4 4.8-3.4 2.1zm11-8.8c0-.7-.5-2-1-2.8-.9-1.3-1.1-1.3-2 0-1.6 2.4-1.2 4 1 4 1.1 0 2-.5 2-1.2zm11.5 9c-1-2.4 0-18.8 1-18.8.6 0 1.1 3.7 1.3 8.5l.3 8.5h3.5c5.1 0 3.8 2.5-1.4 2.8-2.9.3-4.4 0-4.7-1zm13 0c-1.1-2.8 0-19 1.3-19.5.9-.3 1.2 1.8 1.2 8.6v9l3.8.3c5.3.5 4.6 2.3-1 2.6-3.4.3-5 0-5.3-1zm22 0a57 57 0 0 1 1-19c1.4-.3 1.9 18.2.6 19.6-.7.6-1.2.5-1.6-.5zm7.2.5c-.3-.4-.5-5-.5-10 0-6.5.3-9.2 1.1-9.2.7 0 3.4 2.7 6.2 6a35 35 0 0 0 5.7 6c.4 0 .8-2.9 1-6.3.5-9.8 2.3-7 2.3 3.4 0 5.3-.4 9.3-1 9.4-.5.2-3.2-2.3-5.9-5.6s-5.3-6-5.7-6c-.5 0-.9 2.7-.9 6 0 5.3-1.1 8.3-2.3 6.3zm21.1-8.7c-.2-5.3-.1-10 0-10.6.6-1.5 8-1.1 11.7.6 5.7 2.7 7.4 11 3.2 16-1.8 2.1-3.4 2.7-8.4 3.1l-6.2.6zm12.2 4.4a8 8 0 0 0 2-5.4c0-4.7-3.1-7.6-8.2-7.6H286v15h4c2.7 0 4.7-.6 6-2zm8.4 3.7c-1-2.7 0-19 1.4-19.4.9-.3 1.2 2.1 1.2 10.2 0 6.6-.4 10.5-1 10.5s-1.3-.6-1.6-1.3zm6.3.6a70 70 0 0 1 8.8-19.2c1.2 0 9.5 16.2 9.5 18.5 0 2.6-2 1.5-3.7-2-1.5-3.2-2.1-3.6-5.5-3.6-3.1 0-4 .5-5.3 3-1.6 3.2-3.1 4.5-3.8 3.3zm11.3-9.5c0-2.1-1.7-4-2.9-3.3-2 1.2-1.3 4.5.9 4.5 1.1 0 2-.5 2-1.2zm19.8 3.5c-.1-3.7-.2-8.4 0-10.5.3-3.6.4-3.8 4.2-3.8 5.2 0 7 .9 8.1 3.8 1.4 3.8-1.1 7-5.8 7.4-3.8.3-3.8.4-4.1 5-.5 7.1-2 5.8-2.4-2zm9.1-6.6c2-2.4.2-4.7-3.5-4.7-2.9 0-3.4.4-3.4 2.4 0 1.3.3 2.6.7 3 1.1 1.1 5 .7 6.2-.7zm12.5 12.3c-3.4-1.3-5.4-5-5.4-9.8 0-6.3 4-10.2 10.5-10.2 4 0 5.2.5 7.6 3.1 6.3 6.7 2 18-6.7 17.9a21 21 0 0 1-6-1zm11-3.9c4-4 1.3-12.3-4.5-13.6-6-1.3-11.4 5.7-8.6 11.4a8 8 0 0 0 13 2.2zm9.3 4.3c-.4-.4-.7-5.2-.7-10.6 0-7.5.3-9.8 1.3-9.5.8.3 1.3 3.2 1.5 9l.3 8.7h3.4c2.5 0 3.5.5 3.5 1.5 0 1.1-1.1 1.5-4.3 1.5-2.4 0-4.7-.3-5-.6zm12.7-.7c-1-2.7 0-19 1.4-19.4.9-.3 1.2 2.1 1.2 10.2 0 6.6-.4 10.5-1 10.5s-1.3-.6-1.6-1.3zm10.2.6c-.3-.3-.6-4.3-.6-9 0-7.6-.2-8.3-2-8.3-1.1 0-2-.6-2-1.5 0-1.1 1.3-1.5 5.5-1.5s5.5.4 5.5 1.5c0 .9-.9 1.5-2 1.5-1.8 0-2 .7-2 8.5 0 7.7-.7 10.5-2.4 8.8zm10 0c-1-1-.7-20.3.4-20.3.6 0 1 4.2 1 10.5 0 10.5 0 11.1-1.3 9.9zm10.8-.4c-6-3-7-12.9-1.7-17.4 3.6-3.1 10.6-3.4 14.3-.5 3.4 2.6 1.9 3.7-2.4 1.7-4.6-2.2-6-2.1-9.5 1-4.1 3.4-4.2 7.4-.2 11.4 3.3 3.3 5.3 3.6 9.5 1.4 3.3-1.7 4.6-1.8 4.6-.5 0 3-10.1 5-14.6 2.9zm17.6-.2a60 60 0 0 1 9.3-18.4c1.7.6 9.8 18.6 8.7 19.3-.6.3-2-1-3.1-3-1.8-3.1-2.6-3.6-6-3.6-3.5 0-4 .4-5.3 3.5-1.5 3.5-3.6 4.8-3.6 2.2zm11-9c0-.6-.5-1.8-1-2.7-.9-1.3-1.1-1.3-2 0-1.6 2.4-1.2 4 1 4 1.1 0 2-.5 2-1.2zm11.7 9.7c-.4-.4-.7-5.1-.7-10.5 0-8.1.3-9.9 1.5-9.9s1.5 1.7 1.5 9v9h3.5c2.4 0 3.5.5 3.5 1.5 0 1.1-1.1 1.5-4.3 1.5-2.4 0-4.7-.3-5-.6zm-421-11.6c-3-4.5-8.8-12.2-12.9-16.9-10.1-12-9.9-11.7-15.3-19.4A83.7 83.7 0 0 1 5 236.8c-6-23.5-6.5-42.4-1.7-62.6C7 159 7.8 158 8 169.2c0 14.6 2.9 25.3 12 45.3 8 18 9.2 20.6 11.5 27.5 1.3 3.9 3 10.6 4 15 2.2 11 5.5 23.7 6.6 25.5 1.3 2.3 1-.1-.6-6.6-2.3-9-2-23.4 1-34.8a165.4 165.4 0 0 1 19-40.5A69.3 69.3 0 0 0 71.4 180l2.3-7v9.7c.1 19-4.1 41.3-15 77.8-6.5 22.3-8 32.6-6.1 44.8.5 3.5.5 6.5.1 6.8-.4.2-3.2-3.3-6.2-7.8zm542.8-12.4V275l-5.7-17.5c-11.3-34.8-17.7-66.1-16.9-83l.2-3.5 2.3 5.5c3.6 8.6 7.1 15.2 15.5 28.9 4.2 7 9.1 15.6 10.9 19.1 6.6 13.5 8.5 28 5.7 43.5-1 5.3-1.5 9.9-1.2 10.2.3.3.8-1 1.2-2.8 3.2-15.1 10.1-40.6 12.9-47.3l8.9-21.2c7.5-18 9.7-27.3 9.8-41.4 0-13.1.8-12.9 4.5 1.3 6.6 25.1 5.3 50.7-3.7 76.4-4.6 13.3-7.2 17.2-34 51.4l-8.9 11.8c-1.4 2-1.5.8-1.5-14.5zm-278.5-15.4c-75.6-.4-139.7-1-142.5-1.3-2.7-.3-13.5-1-24-1.7-10.4-.7-19.3-1.4-19.8-1.6-1.3-.9 1.3-4.2 3.6-4.5 1.5-.3 2.1-1 2-2.4l-.4-6.5-.3-4.5 8 .2c6.6.2 7.3 0 3.9-.7-2.2-.4-6-.9-8.2-.9-2.4 0-4.3-.5-4.3-1 0-.6.4-1 1-1 .5 0 .7-.7.4-1.5-.4-.9.3-1.6 1.8-1.8l2.3-.5-2.2-.1c-4.6-.3-2-1.9 5.5-3.5 71.6-15 186.3-19.4 311.7-11.6 17.6 1 36.4 2.4 41.9 3 12 1.2 13.9 1.2 13.2 0-.7-1 3.2-10 4.4-10 .5 0 1 1.9 1.2 4.2.2 3.5.7 4.2 2.3 4.2 1.6 0 2-.7 2.3-3.7.4-5.1 2.8-5 3.5.3.6 4.8 1 5.4 3.2 4.6 1-.4 1.5-1.9 1.5-4.2 0-2.5.4-3.5 1.3-3.2.6.2 1 1.4.9 2.5-.4 2.8 1.5 6.2 3.3 6.2 1 0 1.5-1 1.5-3.5s.4-3.5 1.2-3.2c.8.2 1.2 1.8 1 4-.4 4.5 1.2 5.6 3.4 2.2 1.4-2.1 1.6-4.2 1.2-12.3-.3-5.3-.2-10.8.2-12.2.5-1.6.8 1.5 1 8.5 0 11.8.8 18.5 2 18.5.4 0 1-1 1.4-2.5.9-3.5 2.6-3 2.6.6 0 2 .4 3 1.2 2.7 1.9-.6 2.8-5.8 1.8-10.2-.5-2.2-1-5.9-.9-8 .1-3.6.3-3.4 1.5 2.4.7 3.6 1.3 9.2 1.4 12.4v5.8l-4.2-.6-14.3-2.6c-14.7-2.8-19.5-3.3-19.5-2.2 0 1.3 8.3 3 21 4.3 6.5.6 12.1 1.8 14.8 3 4.5 2.2 5.7 4.5 2 3.6a107 107 0 0 0-9.3-1.2c-6-.6-6.8-.5-5.3.7 2 1.7.7 5.8-1.8 5.8-1 0-1.5.3-1.2.6.3.3 2.2.3 4.2-.1 2.7-.5 3.8-1.3 4.2-3 .5-1.8 1.3-2.5 3.3-2.4 4.3 0 6.9 1 7.4 3s-2 3-9.8 4.3c-1.6.3-.2.3 3.3.2l6.2-.4v5.4c0 3-.5 5.6-1 6-1.6 1-.1 2.4 2.5 2.4 2.8 0 5.5 3.8 3.3 4.5-2.3.7-46.9 3.6-47.7 3-.8-.4-.7-3.2 0-6.4.3-1-1-1.4-5.3-1.4-6.3 0-6.3 0-5.2 2.7 1 2.7-.6 3.6-9.2 5.1-12.2 2.2-29.1 2.3-176.4 1.5zm-138.8-5.7c.5-4.4-.3-10.3-1.3-9.7-.5.3-.7 1-.4 1.4.3.5-.7 1.8-2.1 3l-2.6 2 2.5 1c2 .7 2.4 1.4 2 3-.3 1.1 0 2 .5 2 .6 0 1.2-1.2 1.4-2.7zm8.8.2c0-1.9.5-2.5 2.2-2.5h2.2l-2.2-1.5a5.4 5.4 0 0 1-2.2-4c0-1.4-.4-2.5-1-2.5-.5 0-1 1.6-1 3.5 0 3.2-.3 3.6-2.7 3.7l-2.8.1 2.8.5c2 .3 2.7 1 2.7 2.8 0 1.3.5 2.4 1 2.4.6 0 1-1 1-2.5zm-30.2-2.2a22 22 0 0 0-5.5 0c-1.6.3-.3.4 2.7.4s4.3-.1 2.8-.4zm114.7-.3c-2.2-.5-18.2-.8-35.5-.7-31.3.2-31.4.2-10 .7 34.7 1 50 1 45.5 0zm188.8-.7a393 393 0 0 0-20.5 0c-5.7.2-1 .3 10.2.3 11.3 0 15.9-.1 10.3-.3zm78.5-.2c-2-.4-6.8-.4-10.5 0-6.4.6-6.1.7 3.7.7 7 0 9.3-.2 6.8-.7zm-242.3-1c-.3-.6-1.5-1-2.6-1-1 0-1.9.4-1.9 1 0 .5 1.2 1 2.6 1 1.4 0 2.3-.5 1.9-1zm22 0c.4-.7-1-1-3.4-1-2.3 0-4.1.4-4.1 1 0 .5 1.6 1 3.4 1 2 0 3.8-.5 4.1-1zm18.3-1.8c.2-1.5-.2-2.3-1.2-2.3-.9 0-1.5.6-1.3 1.3 0 .6-.8 1.3-2 1.5-3.2.5-2 2 1.4 1.8 2.1 0 2.9-.6 3.1-2.3zm20.6-.3c0-1.3-.4-2.5-1-2.7-1.3-.4-2.6 3.6-1.8 5 1 1.6 2.8.1 2.8-2.3zm-20.6-11.7l-.3-6.8h-8c-6.5-.2-7.1 0-3.5.5 3.3.6 1 .8-9 1.1l-13.5.4 16 .5 16 .5-.3 4c-.2 4.6.3 6.5 1.8 6.5.7 0 1-2.4.8-6.7zm20.4 1.5l.3-5.3 4-.6c2.2-.3 3-.6 1.8-.7-1.3-.1-2.3-.6-2.3-1.2 0-.5-1.3-1-3-1h-3v7c0 8.2 1.8 9.6 2.2 1.8zm-176 .2c1 0 2.2 1 2.8 2.1.7 1.2 1.4 1.8 1.8 1.5.6-.6-1.8-5.7-3.3-6.8-1.6-1.1-8.5-.9-8.5.3 0 .6.8.8 2 .5 2.2-.8 3.7 1.1 2.1 2.7a4 4 0 0 0-1 2.7c0 1 .4.8 1.1-.7.6-1.2 2-2.3 3-2.3zm323.8 1.4c0-1.2.8-1.5 2.9-1.2 2.3.4 2.7.1 2.3-1.4-.7-2.8-4.5-2.2-6 1s-1.5 4.6-.2 3.7c.6-.3 1-1.3 1-2.1zm8 1.6c0-.5-.4-1-1-1a1 1 0 0 0-1 1c0 .6.5 1 1 1 .6 0 1-.4 1-1zm-345.4-4.9c-.3-.5-1.5-.6-2.6-.4-2.8.8-2.5 1.3.6 1.3 1.4 0 2.3-.4 2-.9zm363.2.2a22 22 0 0 0-5.5 0c-1.6.3-.3.4 2.7.4s4.3-.1 2.8-.4zm-374.5-1c-.7-.2-1.9-.2-2.5 0-.7.4-.2.6 1.2.6s2-.2 1.3-.5zm347.2-.2c.3-.6 0-.8-1-.4-1.7.6-2 1.3-.6 1.3.6 0 1.3-.4 1.6-1zM143.3 250c.7-2-.3-4.5-1.9-4.5-.6 0-1.2 1.4-1.3 3 0 3.2 2.1 4.3 3.2 1.5zm39.3 1c-.3-.4-1.2-.4-1.9-.1-.8.3-.5.5.6.6 1 0 1.7-.2 1.3-.6zm334.3-.5c0-1.2-3-1.2-5 0-1.1.8-.7 1 1.8 1 1.7 0 3.2-.4 3.2-1zm-314.7-.7c-1.3-.2-3.3-.2-4.5 0-1.3.3-.3.5 2.2.5s3.5-.2 2.3-.5zm276 0c-1.3-.2-2.3-.8-2.3-1.3s-1.5-.9-3.2-.8c-2.9 0-3 .2-.8.6l2.5.5-2.5.8c-1.8.5-1 .7 3 .7 3 0 4.5-.2 3.3-.5zm21.7-.3a7 7 0 0 0-3.5-.8c-1.6 0-1.6.2.5.8 3.5 1.2 4.8 1.2 3 0zm-316.2-.6a11 11 0 0 0-4 0c-1.3.2-.5.4 1.7.4s3.2-.2 2.3-.4zm46.5 0c-.7-.3-1.9-.3-2.5 0-.7.3-.2.5 1.2.5s2-.2 1.3-.5zm18.5 0c-1.5-.3-4.2-.3-6 0-1.8.1-.6.3 2.7.3 3.3 0 4.8-.1 3.3-.4zm198.5 0c-1.3-.3-3.5-.3-5 0-1.6.2-.5.3 2.2.4 2.8 0 4-.2 2.8-.5zM159 245.7c.3-2.4.8-2.8 4.3-3 2.2-.3 4.5-.9 5-1.4.7-.8.4-1-1-.5a77 77 0 0 1-7.7 1.2c-3.2.4-5.8 1-5.8 1.6 0 .4.5.8 1.1.8.6 0 .9 1 .6 2-.4 1.5 0 2 1.3 2s2-.8 2.2-2.7zm49 2c-.6-.2-2-.2-3 0-.9.3-.3.5 1.3.5 1.7 0 2.4-.1 1.8-.4zm85.8-.1c-1.4-.4 1.5-.9 7-1.2 5.2-.4 0-.5-11.5-.4-25.2.4-24.6.3-22 1.4 1.1.5 8 .9 15.5.8 7.4 0 12.4-.3 11-.6zm91.8.2a11 11 0 0 0-4 0c-1.3.2-.5.4 1.7.4s3.2-.2 2.3-.4zm25.7-.8c1.8-.5-38-1.7-43-1.3-2.7.2 1 .5 8.5.6 8.1 0 13 .5 12.1 1-1.2.8 19.6.5 22.4-.3zm111.5-.2c0-.9.8-2.2 1.8-3 1.6-1.2 1.6-1.3-.4-1.3-1.2 0-3.7-.3-5.5-.6l-3.4-.6 2.8 1.6c3.2 1.9 2.7 3.5-1.1 3.6l-2.7.1 2.5.8c4.1 1.4 6 1.2 6-.6zm-343.4-1.5a3.6 3.6 0 0 1-1.6-3c0-1.5-.7-1.8-3.7-1.8-3.4 0-3.5.2-1.5 1 1.3.5 2 1.4 1.7 2-1.4 2.2.3 3.6 3.5 3.1 2.6-.3 3-.6 1.6-1.3zm63.1 1.4c-2-.2-5.2-.2-7 0-1.7.2 0 .4 3.8.4 3.9 0 5.3-.2 3.2-.4zm188.6 0c-.7-.2-1.9-.2-2.5 0-.7.4-.2.6 1.2.6s2-.2 1.3-.5zm15.5 0a22 22 0 0 0-5.5 0c-1.6.3-.3.4 2.7.4s4.3-.1 2.8-.4zm58.9-2.5c-.4-1.4 0-2.1 1.6-2.6 1.8-.5 1.4-.7-1.8-1.3-2.2-.4-5.1-.8-6.5-.8h-2.5l2.8 1.5c4.4 2.4 3.5 4.4-2 4.6-4.7.2-4.7.2 1.2.8 7.1.7 7.8.5 7.2-2.2zm-320.3 1.3c.4-.5-.3-.6-1.4-.4-2.3.7-2.6 1.3-.6 1.3.8 0 1.7-.4 2-.9zm17.1-.8c-3.8-1-4.5-3.9-1.2-5.2 1.8-.8 1.2-1-2.7-1-3.9 0-4.7.2-3.8 1.1 2 2 1.4 3.6-1.5 4.7-2.3.8-1.6 1 4.2 1 3.9 0 6.1-.3 5-.6zm128.9-3.6c1.5-3.8 4.5-4.9 10.6-4 4.1.7 7 3 7 5.5 0 2.4 1.5 2.3 3.3-.2 1.4-2 1.8-2 34.8-1 18.4.5 38.4 1.2 44.4 1.5 11.3.5 10.8-.6-.8-2-5.5-.6-5.8-.8-5.3-3 .6-2.2.3-2.4-4.6-2.9-3-.3-19.2-.7-36.3-1-17-.3-32.8-1-35-1.4l-4-1 4-.1 4-.3-3.4-.8a54 54 0 0 0-19.6 2c-2.7.7-22.3 1.4-43.5 1.8-27.9.4-37.7.9-35.7 1.6 3.3 1.2 3.5 3.1.5 4.9a88 88 0 0 1-25.4.4c-.3-.2 0-1.4.6-2.6 1-1.9.8-2-2.2-2-4.1 0-6.7 1.4-4.3 2.3.9.3 1.5 1.4 1.3 2.4-.3 1.6.9 1.7 12.7 1.9 7.2 0 30.7-.6 52.4-1.4l39.3-1.4 1.5 2c1.9 2.8 2 2.7 3.7-1.2zm136.6 2.3c-.8-.5-3.7-1-6.4-1-4.8 0-4.8 0-4.4-2.9.3-2.3 0-3-1.6-3.4a5.4 5.4 0 0 0-3.5.4c-1 .5-1.1.9-.3 1 1.9 0 1.4 2.8-.7 3.9-1.1.6-3.2 1.1-4.8 1.2-2.4.2 2.2.6 20.2 1.6 2.3.2 2.6 0 1.5-.8zm15.7-.3c-.7-1.8 1.1-3.6 3.8-3.8 1 0-.5-.5-3.5-1-6.2-.8-6.8-.6-5 1.7 1.2 1.4 1.2 1.9-.5 3-1.7 1.3-1.6 1.4 2 1.4 2.7 0 3.6-.3 3.2-1.3zm-298-3.3a11 11 0 0 0-4 0c-1.2.2-.4.4 1.8.4s3.2-.2 2.3-.4zm281.6-2c-.7-.3-2-.3-3 0-1 .2-.4.4 1.2.4 1.7 0 2.4-.1 1.8-.4zm-226-1c-.7-.3-1.9-.3-2.5 0-.7.3-.2.5 1.2.5s2-.2 1.3-.5zm200.8-.5c-1.6-.6-2.8-.6-3.5.1-.7.7 0 1 2.5 1 3.2 0 3.3-.1 1-1zm-162.8-4.6c-1.3-.2-3.3-.2-4.5 0-1.3.3-.3.5 2.2.5s3.5-.2 2.3-.5zm48-1c-.7-.2-1.9-.2-2.5 0-.7.4-.2.6 1.2.6s2-.2 1.3-.5zM131.9 237a46.5 46.5 0 0 1 0-19c.6-.4 1 2.8 1 8.7 0 11 1.3 14.5 2.8 7.8.7-3.3 1-3.7 1.1-1.8 0 1.5.8 3.4 1.6 4.2 1.3 1.3 1.3 1.5-.1 2-3.3 1.3-5.5.6-6.4-2zm9.8-3.5c.2-2.2.8-4 1.3-4s.9 1.8.9 4c0 2.6-.5 4-1.3 4-.9 0-1.1-1.2-.9-4zm5.8 2.2a11 11 0 0 1 0-4.5c.8-4.6 3-4.3 2.6.3-.3 2.7 0 3.2 1.5 2.9 1.2-.3 2.1-1.7 2.7-4.6 1.2-5.4 2.6-5.5 2.6-.3 0 3.4.3 4 2 4s2-.6 2-3.8c0-3.7 2-6.9 3.3-5.5.4.4.7 2.4.7 4.5 0 3.1.4 3.8 2 3.8 1.7 0 3.3-2.5 3-4.6-.6-2.8.2-4.5 1.7-4.2 1.2.2 1.7 1.4 1.8 3.8 0 3.5 1.1 4.6 3.2 3.2.8-.4 1.2-3.2 1.2-7.2V209c.2-9.3-.4-12.5-2.3-12.5-2.2 0-2.6 2.6-2.4 13.8.2 6.9 0 10.5-1 11.4-2 2-3.5-3.8-2.7-11 .8-7 0-12.2-2-12.2s-2.5 2.5-2.5 13.6c0 8.4-.3 10.4-1.4 10.4-.8 0-1.7-.7-2-1.7-.6-2.1-.2-22 .5-22.7.8-.8 19.3-5.4 20-5 .4.3.5 20.8 0 26.4-.2 2.8 1.4 10.5 2.2 10.3l1.6-.3c.6 0 1.1-2.1 1.3-4.7.3-4.4.5-4.8 3-5 2.7-.4 2.8-.2 2.8 4.2 0 4 .3 4.6 1.8 4.4 2.2-.5 4.7-9.6 3.1-11.5-.6-.7-1-6.1-.8-12.8 0-6.4-.1-12-.5-12.3-.3-.3-1.2 0-2 .7-1.3 1-1.6 3.7-1.6 13.1 0 6.5-.4 12-1 12.4-1.8 1.2-4-.8-5.1-4.8-1.4-5 .3-21.5 2.3-22.8.7-.5 2.7-.8 4.3-.9 2.7 0 18.4-2.4 30.7-4.8 2.6-.5 5-.7 5.3-.4.3.3.5 7.2.5 15.4v14.8h-2.5c-1.4 0-2.5.5-2.5 1 0 .6 1.1 1 2.4 1 2.2 0 2.5.5 2.8 4.3.2 3.5.7 4.3 2.5 4.6 2.4.3 3.4-2 3-6.8-.2-1.9.5-2.6 3.3-3.6l3.5-1.3h-3.2c-1.9-.1-3.4-.7-3.4-1.4l-.3-14.4-.1-13 7.5-1.2c24.7-3.9 39-4.6 92.5-4.6 31.1 0 60.6.5 71.5 1.2 39.1 2.6 49.5 3.5 50.2 4.6.4.6.8 10.3.8 21.5v20.3l2.8-.3c2.3-.3 2.7-.9 3-4.1.3-3.6.5-3.8 3.8-3.8 3.4 0 3.4 0 3.4 4.5 0 3.9.3 4.5 2 4.5s2-.6 2-4c0-3.6.2-4 2.8-4 2.6 0 2.6-.1.5-1-3-1.2-3.7-4.6-3-14.8.6-6.6.4-9.3-.7-11.4l-1.5-2.8h6.7c3.9 0 10.7 1.1 16.2 2.5l16 4.2 6.5 1.6-.1 10.1c-.2 14.4-.3 14.6-1.8 14.6-2 0-2.5-4.2-1.9-14 .6-9.2-.3-11.4-3.4-8.8-1.3 1-1.5 2.8-1 10.4.5 6.8.3 9.6-.7 11-1.2 1.6-1.4 1.5-2.5-1.9a29 29 0 0 1-.6-11c.8-8 .1-11.7-2-11.7s-2.8 4.3-2 12.6c.6 7.7-.3 11.4-3 11.4-2 0-2.9-5.8-2.2-14.7.7-8.6-.5-13.2-2.8-11.3-1 1-1.5 4.2-1.7 12.9-.3 10.4-.5 11.7-2.2 12-3 .6-3.6-1.7-3.6-14.1 0-9.7-.3-12-1.5-12.4-.9-.3-1.9-.3-2.3 0-.3.5-.7 8.4-.7 17.8 0 14.9.1 17.1 1.6 17.9 2.2 1.2 2.9.3 2.9-3.7 0-2.3.5-3.4 1.5-3.5l2.8-.3c.7 0 1.4 1.7 1.7 4.4.6 5.8 3.4 6.4 3.8.8.3-3.2.7-3.8 2.7-3.8 1.2 0 2.6.8 2.9 1.6.7 1.8-1 9.4-2.2 9.4l-12.2-2a200 200 0 0 0-35-2.5c-13-.2-25.5-.6-28-1-20.7-2.5-117.9-3.4-159-1.5-44.9 2.1-104.7 7-115.7 9.5-1.2.3-2.4.2-2.7-.3zm61.5-13.4c.1-13.8-.3-29-.8-30.3-.3-.8-.9-1.5-1.3-1.5-2 0-2.7 6.7-2.4 20.6l.4 15.7c0 .4.9.7 2 .7 1.7 0 2-.6 2-5.2zm12.4-15.3c0-18.6 0-19-2.1-19.3-3-.4-3.4 1.7-3.4 21.7v17.3l2.8-.3 2.7-.4zm29.5 12.5c.4-4.5.9-5.5 2.5-5.8 4.5-.7 4.9-1.5 1-2l-4-.7v-12.2c0-8.7-.4-12.5-1.3-13.5-1.1-1-1.6-1-2.8.7-1.2 1.6-1.5 4.7-1.3 14v13c-.2.6-.3 3.7-.2 6.9.1 5.7.1 5.8 2.9 5.5 2.5-.3 2.7-.7 3.2-5.9zm183.7-13c.2-15.2 0-19-1.2-20.6-1.5-1.8-1.5-1.8-3 0-1 1.5-1.4 5.6-1.3 19 0 19.8.2 20.9 3.1 20.4 2.2-.3 2.2-.6 2.4-18.9zm14.7 18.2c.5-.8.6-3.3.7-20.8 0-12.4-.6-16.4-2.7-16.4-2.7 0-3.2 3.9-3 20.6l.5 17.2c.3.6 4 .1 4.5-.6zm-180.6-6.3l.3-5.6 4.2-.8 4.2-.9-4.2-.3-4.3-.4v-12.2c0-13.5-.8-16.3-3.7-13.4-1.6 1.6-1.8 3.5-1.6 15.5l.3 19c0 5 .2 5.4 2.3 5 2-.2 2.2-1 2.5-5.9zm18.7 4c.4-1 .5-4 .3-6.5l-.3-4.5 7.8-.5 7.7-.4v6c0 4.5.4 6.3 1.5 6.7 3.6 1.4 4.1-1 4-20.6 0-20.2-.7-23.3-4.2-19.8-1.4 1.4-1.6 3.6-1.4 14.2l.2 12.6-7.7-.3-7.7-.3.2-10.6c.1-5.8 0-11.8-.5-13.2-.7-3-2.9-3.5-4.3-.8-1 1.7-1.3 37.9-.4 39.4 1 1.5 4.2.7 4.8-1.3zm109.9.6c.3-1 .6-3.6.6-6v-4.5h4.3l4.2-.1-4.5-1.2-4.5-1.2.3-12c.3-9.8 0-12.3-1.2-14-1.6-2-1.6-2-3 0-1.3 1.5-1.6 5.5-1.5 20.6 0 10.3.3 19 .6 19.3 1.2 1.2 4 .6 4.7-1zm18.6-3.6c0-4.3.3-5.1 2.2-5.6l2.2-.6-2.2-.8c-2.2-.8-2.2-1.2-2-13.2.2-9.5 0-12.7-1.1-14-1.3-1.6-1.6-1.6-3-.2-1.3 1.3-1.6 4-1.4 15.3l.3 19c0 5 .2 5.2 2.5 5.2s2.5-.3 2.5-5zm-85.2 3.3c1-.6 1.2-5.6 1-21.2-.3-19.9-.4-20.5-2.4-20.8-4-.5-4.4 1.6-4.4 21.7 0 10.5.2 19.6.5 20.2.7 1.1 3.5 1.2 5.3.1zm23 0c1-.7 1.3-5.4 1.2-20.6 0-10.9-.3-20.2-.6-20.7-1-1.6-4.3-1-5.4 1-.5 1.1-1 7.6-1 14.4V209l-5.7.2c-7.7.4-8 1.2-.5 1.2h6.2v5.9c0 3.2.3 6.1.7 6.5.9.9 3.5.8 5.1-.2zm21.6.2c1.2-.4 1.6-2 1.6-6 0-5.2.1-5.4 2.8-5.5h2.7l-2.5-.8c-2.5-.6-2.5-.8-3.1-14.6l-.7-14.2c-.6-1-3.3 0-4 1.5-1 1.7-1.4 38-.5 39.5.5.9 1.6 1 3.7.1zm-55.7-13c-2-.3-5.2-.3-7 0-1.7.1 0 .3 3.8.3 3.9 0 5.3-.2 3.2-.4zm46.6 0c-1.8-.3-4.8-.3-6.5 0-1.8.1-.4.3 3.2.3s5-.2 3.3-.4zM35.6 225.7l-1.2-5.8c-.9-5.1-4.2-15-10-29.9a105.3 105.3 0 0 1-9.5-44.9c0-24 4.7-39.3 18.8-60.4 7-10.5 9.4-12.6 5.3-4.4-5.3 10.3-6.3 24.4-3.5 47.6 3.3 27.5 3.4 37.3 1 61.3-.8 6.6 1 7 1.9.5.3-2.6 1.7-8.5 3-13 4.4-14 11.8-23.3 38.8-49a62 62 0 0 0 9.7-10.7c0-.7.7-1.9 1.5-2.6 1.3-1 1.4-.8.9 2.2-1.1 5.9-4 16.1-6.8 23.2-3.2 8.5-7.2 15.5-15 26.6-22.2 31.7-27.8 41.2-31.5 53.8a41 41 0 0 1-2.6 7.2c-.2 0-.6-.7-.8-1.7zM136 220c0-4.3.2-7.6.6-7.2 1.1 1.1 1.4 7.2.4 11.2-.8 3.5-1 3-1-4zm406.6 6.8c-1-1-.8-13.2.3-13.9.6-.4 1 2.2 1 7 0 7.6-.1 8.1-1.3 6.9zm-400.7-10c0-9.3 1.2-11.8 2.3-5 .7 4.5-.3 14.6-1.4 14.6-.5 0-.9-4.3-.9-9.5zm6 8.6l-.3-11.2c-.2-8.3 0-10.8 1-10.8 2 0 2.2 19.4.2 21.5-.5.5-1 .7-1 .5zm455.6-6.7c-2-8.5-7-19.1-13.4-28.6a748.1 748.1 0 0 0-22.8-31c-6.5-7.9-16-29.5-20.3-46-1.1-4.4.2-4.9 2.4-.7 1.6 3.2 10.7 12.7 19.5 20.5a140.3 140.3 0 0 1 24.4 25.5c5 8 6.3 11 8.7 22.5 1.9 8.6 3.8 13.7 2.5 6.5-1.5-8.6-1.8-44.1-.5-58.1 2.6-26.6 1.6-40.6-3.7-52.6-1.3-2.9-2-5.3-1.5-5.3.4 0 3.6 4 7 8.8a99.6 99.6 0 0 1 19.8 57.7 99 99 0 0 1-6.9 43.5c-5 12.8-9.1 26.5-10.8 35.7-.8 3.8-1.6 7.2-2 7.6-.4.5-1.4-2.2-2.4-6zM154.8 224c-.2-.5-.3-5-.3-10s-.5-9.8-1-10.8c-.7-1.5-.5-1.8 1-1.5 1.5.3 2 1.6 2.6 6.4.4 3.2.5 7.7.2 10-.6 4-2.2 7.7-2.5 6zm368.3-2.7c-1-3.5-.4-20.8.7-20.7 2.4 0 3 1.7 2 4.8-.7 2.1-1 6-.5 10.6.7 7.9-.6 11-2.2 5.3zm6.6.1c-.7-4.4.3-17.9 1.3-17.9 1.7 0 2 2.4 1.3 11.5-.7 9.6-1.8 12.2-2.6 6.4zm-64.3-5.9c-1-1-2-4-2.2-6.7a93 93 0 0 1 2.3-23.2c.3-.3 1.7.7 3 2.2 2.2 2.6 2.4 3.7 2.4 12.5 0 16.4-1.3 19.9-5.5 15.2zm71.4-10.7c-31.2-18.9-95.7-29.3-181.6-29.3-53 0-115.9 4-147.8 9.5-29.2 5-53.4 12.6-70.2 22-6.4 3.6-6.4 2.6 0-1.5 26.3-17.2 63.7-26.4 124.2-31 50.3-3.6 115.4-4.3 149.5-1.6 55.5 4.5 90.6 12.4 120.5 27.2 13.2 6.5 19.3 10.4 16.5 10.4-.8 0-5.8-2.6-11-5.7zm9.1-1.2C521 185 467.6 171 399.8 165.4c-41.3-3.5-143 .6-181.4 7.1a210 210 0 0 0-80.8 28.7c-4.9 3-9.2 5.3-9.8 5.3-.5 0-.9-1.3-.9-3 0-3.5 3.3-7 9.5-10.2 2.1-1.1 5.4-3.5 7.2-5.4 3.2-3.3 20.3-12 35-18 5.2-2 7.3-3.4 7.3-4.6 0-1 .7-1.8 1.5-1.8.9 0 1.2.6.9 1.5-.8 1.9.5 2 3 0 1-.7 3.5-1.6 5.7-2 2.1-.3 3.9-1 3.9-1.5 0-.4 8.4-2.8 18.8-5.3 41.6-10 57.4-12.1 93-12.1 17 0 26-.4 25.9-1-.8-2.6-5.3-3.7-12.7-3.2-52.4 3.6-86.5 8.3-110.3 15.2-9.9 3-12.7 2.7-4.5-.3 23.5-8.8 57.3-14.2 104.5-16.8 11.8-.7 12.2-.8 15-3.6l2.8-3-2.7 1c-3.2 1.2-4.8-.3-2-1.8 1.1-.5 2.3-2.1 2.6-3.5.4-1.4 2.4-3.7 4.6-5.2l4-2.6v-14.4c0-13.5.1-14.4 2-14.4 4.2 0 6.7 1.8 7.3 5.2.6 4.1.3 4.4-2.8 3-1.3-.6-2.6-.8-2.8-.4-.3.4-.7 5-1.1 10.4-.5 7.4-.4 10 .6 10.7 6.6 5.4 8.7 7.5 8.2 8.3-.3.6-1.7.7-3 .4-4.4-1-2.5.2 2.8 2 4.3 1.4 4.9 2 3.6 2.9-1.2.9-1.3 1.4-.4 2.7.9 1.2 5.2 1.7 21.6 2.7a415 415 0 0 1 86.5 13.6c10.5 3 23.7 7.6 23.2 8.1-.1.2-4.6-.7-9.7-2.1-35.9-9.4-55-13.2-78.7-16-12.8-1.4-50-2.6-53-1.7a2 2 0 0 0-1.3 1.8c0 1.2 3.6 1.4 20.3 1.4a395 395 0 0 1 95.7 11.6c21.2 5.1 22 5.4 22 7 0 1 1.2 1.4 4 1.4 2.3 0 5.2.8 6.5 1.7 2.3 1.4 2.5 1.4 2.5 0 0-2.3 2-2 2.7.2.5 2 6.1 4.9 18.3 9.4a55.7 55.7 0 0 1 19 10.1c1.3 1.5 3.3 2.6 4.6 2.6 1.3 0 2.4.8 2.6 1.9.3 1 3 3.2 6.1 5 7 4 9.4 7.2 7.9 10.7-1.6 3.3-3 3-9.2-1.5zm-266.7-44.8c-1.3-.2-3.3-.2-4.5 0-1.3.3-.3.5 2.2.5s3.5-.2 2.3-.5zm129.5 0a11 11 0 0 0-4 0c-1.3.3-.5.5 1.7.5s3.2-.2 2.3-.4zm-157.8-3.2l23.5-2.9c6.5-.7 7-1 3.2-1-6.9-.2-30.7 2.6-41.2 4.8-9.7 2.1-8.8 2 14.5-1zm50.7 2.2c-2-.2-5.2-.2-7 0-1.7.2 0 .4 3.8.4 3.9 0 5.3-.2 3.2-.4zm84 0c-2-.2-5.2-.2-7 0-1.7.2 0 .4 3.8.4 3.9 0 5.3-.2 3.2-.4zm62.3-.8a329 329 0 0 0-42.3-5.3c-4 0-2.5.4 5.8 1.5l24.5 3.2c16 2.3 19.6 2.4 12 .6zm-101.7-.2c-3.5-.2-9.1-.2-12.5 0-3.5.2-.7.4 6.2.4s9.7-.2 6.3-.4zm-18.5-7c-4.2-.2-11.4-.2-16 0s-1.1.3 7.7.3 12.5-.1 8.3-.3zm26 0c-1.5-.2-4.2-.2-6 0-1.8.2-.6.4 2.7.4 3.3 0 4.8-.1 3.3-.4zm17.5 0a65 65 0 0 0-9 0c-2.6.2-.7.4 4.2.4 5 0 7.1-.2 4.8-.4zm-23.3-18.3c-2-1.2-3.3-1.2-2.5 0 .3.6 1.4 1 2.3 1 1.5 0 1.5-.1.2-1zm-10.7-3.6c-.7-.3-1.9-.3-2.5 0-.7.3-.2.5 1.2.5s2-.2 1.3-.5zM45.4 116.8V82l2.7-7.5c4-11.2 7.4-16.5 16.2-25.4C72 41.5 80.2 36 87 34c2-.6 1.5.2-2.8 4.6A53.1 53.1 0 0 0 75.3 51c-3.3 6.7-4.6 11.6-10.8 38.6-1.5 6.4-4 15.1-5.6 19.4a96.5 96.5 0 0 0-3.5 11c-.5 2.6-.1 2.3 2.1-2 6.6-12.3 14-19.8 33.4-34.2 15.6-11.5 23.1-18.7 26.6-25.6 1.4-2.7 2.7-4.6 3-4.4 1 1-2.9 16.4-5.3 21.7a123 123 0 0 1-35.8 41l-13.3 10.8a104.7 104.7 0 0 0-20 24.2c-.3 0-.7-15.6-.7-34.7zm545.2 24.8c-5.2-8-16.7-19-32.7-31a133 133 0 0 1-30.3-31c-4.8-8.8-10.8-27-8.9-27 .5 0 1.4 1 2 2.3a86.2 86.2 0 0 0 22.5 21.7c22.4 15.3 32.7 25.1 38.8 37.1a29 29 0 0 0 3.4 5.8c.3 0-.5-2.3-1.6-5.2-4-10.1-5-13.4-10.6-34.8-8-31.3-10.3-36.4-20.2-45.8-4.5-4.2-4.5-4.2-1.6-3.6 12.7 3 28.5 17.5 36.8 34 6.1 12.1 6.9 18 6.5 50.4-.2 15.7 0 29.6.5 30.8 1.5 4-.7 2.3-4.6-3.7zM74.2 85.3c.7-2 4.6-14.8 7.6-25.3a78.6 78.6 0 0 1 33.9-41.8c7.5-4.5 34.2-16 34.2-14.9 0 .3-3 3.8-6.7 7.7a190.9 190.9 0 0 0-22.8 28.5A133.3 133.3 0 0 1 90.9 72c-5.2 4.3-11.3 9.5-13.4 11.5-2.3 2-3.6 2.8-3.3 1.8zM556 75.8A248.8 248.8 0 0 1 510.2 27c-4.4-6-11.5-14.5-15.8-18.7-4.3-4.3-7.6-8-7.3-8.3.4-.4 12 4 25.3 9.7a81.7 81.7 0 0 1 45.2 49.5c4.4 12.6 7.4 22.5 7 23a61 61 0 0 1-8.7-6.4z"/>
</symbol>
</svg>
