<svg xmlns="http://www.w3.org/2000/svg">
<symbol id="logo" viewBox="0 0 642.6 544">
  <path d="M243.8 539.3c-3-2.5-6-5-6.4-5.5-1.5-1.4 12.6-14.3 28-25.7 7-5.3 13.8-10.3 15-11 5.6-3.4 21.3-12.2 23.7-13.3 3.6-1.6 3.4-2.5-.4-3.3-8-1.6-17.6.3-25.9 5-2.7 1.6-10 6.4-16.2 10.7-30.7 21.1-42.7 26-66.8 27.4a86.9 86.9 0 0 1-51.3-14.1c-6.8-4-18.7-14-18.7-15.6 0-.5 3.3.6 7.3 2.4 12.4 5.7 19.4 7 36.2 7 20 0 23-.7 50.5-13.1a269.9 269.9 0 0 1 45.3-15.8c4-1 13.3-1.9 20.7-2.2 13.4-.5 21.5.4 33.8 4 3.4.9 5 .9 7.5-.2a90.6 90.6 0 0 1 31.2-4.1c23.1 0 37.5 3.6 66 16.5a221 221 0 0 0 35 12.2c10.1 2 28.1 1.3 38.5-1.3 4.1-1 11.3-3.7 15.9-6l8.4-4.3-3 3.1c-9.1 10-17 15.7-28.8 21.3A82.1 82.1 0 0 1 453 522c-24 0-41.2-6.5-71.2-26.8-9-6.1-18.5-11.8-20.9-12.7a62.6 62.6 0 0 0-22.6-.9c-1.1.5 1.7 2.4 9.3 6.4 19 10 45.9 29.4 56.7 41l3 3.2-6.3 6-6.3 5.9-12.2-12.4a297.9 297.9 0 0 0-37.7-32.7c-.8-1-13.2-8.6-17.7-10.9l-4.3-2.2-5.2 2.2a206.8 206.8 0 0 0-62.2 50.1c-2.7 3.2-5.1 5.8-5.5 5.8-.4 0-3.1-2-6.1-4.6zM147 488.8c-21.1-2-42-11.6-58.2-26.5-7.6-7-18-20.4-18-23 0-.3 2.3 1.5 5.2 4 6 5.3 17.8 11.6 27 14.4 9 2.8 23.8 5 42.2 6.2a332 332 0 0 1 44.7 5c16.2 3.1 20 2.6 6.8-1-21.4-6-30.8-15-45-43-4-8-8.1-15.6-9-17l-4-6.5-2.4-4 3 2c9.8 6.2 19.3 14.4 41.8 35.8 19.4 18.5 22.6 21 32.1 26 7.2 3.7 22 9 28.8 10.2 4.6.9 4 2.5-1 2.5-3.5 0-10.6 1.6-32.8 7.5a245 245 0 0 1-52.5 8.4l-8.7-1zm325.3-2c-9-.9-17.8-2.5-32-5.9-24.1-5.7-29.7-7-36.6-8-4.1-.7-7-1.4-6.5-1.6 19.3-5.1 30.7-9.6 39-15.2 4.8-3.2 3.5-2 28.2-25.9a331.4 331.4 0 0 1 39.6-34.5c1.4-.7 1.2 0-.9 3.4-1.5 2.3-6.2 11.5-10.5 20.4-9.4 19.2-13.9 26.3-20.5 32.5-6.5 6-13 9.7-23.9 13.6-10.6 3.8-8.3 4.2 6.7 1.2a523 523 0 0 1 51.3-6c29.3-2.6 45.3-8.1 60.3-20.7 2.9-2.5 5.2-4 5.2-3.6a102.8 102.8 0 0 1-99.4 50.3zm-317-31c-4-1-14-3-22.6-4.4-31.6-5.3-41.4-8.4-56.8-18.2a145 145 0 0 1-45.7-47.7c-3.1-5.7-7.4-17.2-8.9-24.1-.6-2.6-.3-2.4 2 1.5a93 93 0 0 0 29.4 29.7c2.5 1.7 15 8.2 27.9 14.6 23.1 11.6 31.4 16.6 42.3 25.5 3.2 2.6 7.7 5.8 10 7 4 2.2 3.7 1.7-4-6-17.3-17.1-22.3-28.3-27.7-62.3-3-18.4-4.6-26.1-7.4-34-1-3-1.5-5.5-1-5.5s1 .3 1 .7a247.3 247.3 0 0 1 26.5 39.8 388 388 0 0 1 13.9 38 109.4 109.4 0 0 0 24 41.7c3 3.2 5.2 5.7 4.8 5.7l-7.8-2zm327.1-3.2c5.9-6.3 7.5-8.3 10.8-13.2 6.6-10.1 11.2-20.8 19.4-45.1a160.7 160.7 0 0 1 27.6-54.9c5-7.1 9.5-12.4 9.5-11.4 0 .3-1.1 3.9-2.5 8-1.4 4-4.1 17.2-6 29.4-2 12.1-4.2 24.6-5 27.9a91.6 91.6 0 0 1-22.6 38c-6 6.3-7 8.6-2 4.5a193.5 193.5 0 0 1 47.6-30.7c34.8-17.5 47.6-27.5 58.8-46.1 3.4-5.8 3.5-3.5.1 7-8 25.5-28.6 49.8-56.3 66.2-14.4 8.5-21.3 10.8-49.6 16.2a562 562 0 0 0-25.4 5.4l-7.3 2zM94.8 403.5l-11-7.2c-45.9-29.2-62.2-44-73.9-67.2A82.6 82.6 0 0 1 .2 288c-.3-14.5-.3-15.2 1-10.5 4.7 17.3 9.6 24.6 33.5 49.5 19 19.8 21.1 22.3 29.6 34.8 6.6 9.7 11 15.6 10.3 13.7-.1-.6-2-4.4-4-8.5a65 65 0 0 1-7.2-35c0-12.8.3-16.5 3.4-31 2.4-11.7 3.5-19.2 3.5-25.7 0-5 .4-8.6.8-8 2 3 7 21.1 8.8 31.4 1 6.3 3 23.2 4.5 37.6 2.6 26.6 4.6 41.4 6.6 47.7 1 2.9 8 18.5 9.5 21.2.9 1.6-2.3.6-5.7-1.6zm447 0c0-.4 1.1-2.8 2.4-5.4 7.1-14 10.8-31 13.1-60.7 3.2-39.8 5.3-52.5 11-67.2l3.4-8.8.1 9.5c0 5.2.8 13.1 1.6 17.5 4.5 24.5 5.5 32 5.5 41.2.1 12.5-2.6 24.4-8.2 35.8-4.8 9.7-2.7 7.6 7.6-7.6a207.6 207.6 0 0 1 27.8-33.9c22.8-23.4 29.3-33.3 33.6-50.1l1.9-7.4.7 6.9c1.3 11.2-1.3 29.1-5.9 41.4-7.3 19.4-24.5 41-44 55.2-4 2.8-15.9 11-26.6 18l-21.7 14.6c-1.3 1-2.3 1.3-2.3 1zm-386.6-6c-.2-.7-.3-5-.2-9.7.3-7.9.5-8.4 2.6-8.7 2.2-.3 2.2-.1 2.2 9.7 0 9.5-.1 10.1-2 10.1-1.1 0-2.3-.6-2.6-1.3zm8.6-8.6c0-9.3.2-10 2-10 1.3 0 3.2 1.8 5.3 5 3.1 4.8 5 6.3 4.6 3.7v-5c.1-3 .5-3.7 2.1-3.7 1.9 0 2 .7 2 10 0 9.7 0 10-2.2 10-1.6 0-3.3-1.6-5.8-5.3l-3.5-5.2-.3 5.2c-.2 4.5-.6 5.3-2.2 5.3-1.8 0-2-.8-2-10zm22 2.4c0-6.8-.2-7.6-2-8.1-1.2-.3-2-1.2-1.8-2.2.3-1.2 1.6-1.6 5.8-1.6 4.3 0 5.6.4 5.8 1.6.2 1-.5 1.9-1.7 2.2-1.9.5-2 1.3-2 8.1 0 7-.3 7.6-2 7.6-1.9 0-2-.7-2-7.6zm10-2.4v-10h5.5c4.9 0 5.5.2 5.5 2 0 1.6-.6 2-3.5 2-2.8 0-3.5.4-3.5 2s.7 2 3.6 2c2.9 0 3.5.3 3.2 1.7-.3 1.8-.7 2-4.8 2.2-1.3 0-2 .8-2 2.1 0 1.6.7 2 3.5 2 2.9 0 3.5.4 3.5 2 0 1.8-.6 2-5.5 2h-5.5zm15-.1v-10.2l4.7.6c6.7.7 9.6 5.6 5.8 9.8-1.5 1.6-1.4 2 .5 5.8l2 4.1h-2.4c-1.9 0-3-1-4.5-3.8l-2-3.7v3.7c0 3.1-.4 3.8-2 3.8-2 0-2-.7-2-10.1zm6.5-3.9a2 2 0 0 0-1.2-1.8c-.8-.2-1.3.5-1.3 1.8s.5 2 1.3 1.7a2 2 0 0 0 1.2-1.7zm8.5 4c0-8.9.2-10 1.8-10 2.5 0 3.7 1 5.5 4.6a17 17 0 0 0 3.2 4.3c1.3 1.2 1.5.8 1.5-3.8 0-4.4.3-5.1 2-5.1 1.9 0 2 .7 2 10 0 9.7 0 10-2.2 10-1.6 0-3.2-1.4-5.3-4.8l-3-4.7-.3 4.7c-.3 4.3-.5 4.8-2.7 4.8-2.5 0-2.5 0-2.5-10zm19.6 7.7c.4-1.2 2-5.7 3.7-10 2.5-6.7 3.3-7.8 5-7.5 1.7.2 3 2.3 6 9.3 2 5 3.7 9.3 3.7 9.7 0 .5-1 .8-2.4.8-1.6 0-2.7-.7-3-2-.5-1.5-1.6-2-4.1-2-2.4 0-3.7.6-4.5 2-.6 1.1-2 2-3 2-1.7 0-2-.4-1.4-2.3zm10.4-6.1c0-1.5-1.3-3.5-2-3-1.5.9-1.1 3.4.5 3.4.8 0 1.5-.2 1.5-.4zm12 .4c0-6.4-.3-8-1.5-8-.8 0-1.5-.9-1.5-2 0-1.8.7-2 5.5-2 4.9 0 5.5.2 5.5 2 0 1.1-.6 2-1.5 2-1.2 0-1.5 1.6-1.5 8 0 7.9 0 8-2.5 8-2.4 0-2.5-.1-2.5-8zm10.2-1.8c.3-9 .5-9.7 2.3-9.7 1.9 0 2 .8 2.3 9.7l.3 9.8h-5.1zm10.3 7.3c-2-1.9-2.5-3.4-2.5-7.4 0-4.3.4-5.3 3.1-7.5a10 10 0 0 1 16.5 9.7c-.9 4.9-4.6 7.7-10.3 7.7-3.3 0-5-.6-6.8-2.5zm11-3c3.1-3.2.8-10.5-3.4-10.5-3 0-6 3-6 5.7 0 5.3 5.8 8.2 9.4 4.7zm9.7-4.3c.3-9 .5-9.7 2.4-10 1.5-.2 3 1 5.5 5l3.4 5.3.3-5.3c.3-4.4.6-5.2 2.3-5.2 1.8 0 2 .8 2 10 0 9-.2 10-2 10-1 0-3.3-2.1-5.4-5.2l-3.7-5.2v5.2c0 4.9-.1 5.2-2.5 5.2h-2.5zm19.5 8l3.7-10c2.6-6.7 3.5-8.2 5.3-8.2 1.8 0 2.7 1.6 5.7 9.3 2 5.1 3.6 9.6 3.6 10 0 .4-1 .7-2.4.7-1.5 0-2.5-.7-2.9-2-.4-1.5-1.3-2-4-2s-3.7.5-4.2 2c-.4 1.3-1.5 2-3 2-1.9 0-2.3-.4-1.8-1.8zm10.3-7.6c0-.8-.4-1.8-1-2.1-.5-.3-1-.4-1-.1 0 .2-.2 1.1-.6 2-.4 1 0 1.6 1 1.6.9 0 1.6-.7 1.6-1.4zm10.2-.4c.3-9.2.4-9.7 2.6-10 2.1-.3 2.2 0 2.2 7.7 0 8 0 8.1 2.5 8.1 1.9 0 2.5.5 2.5 2 0 1.7-.6 2-5 2h-5zm21 8.6c-2.8-2.9-.4-5.3 3.6-3.5 3.4 1.5 4-.2 1.1-2.7a28.4 28.4 0 0 1-4.4-5c-1.6-2.4-1.6-2.8 0-5.1 1.9-3 6.5-3.4 9-.8 1.6 1.6 1.6 1.7 0 3-1.4 1-2.2 1-3.2.1-.7-.6-1.7-.8-2-.4-.4.5 1 2.2 3 4 2.8 2.3 3.7 3.8 3.7 6.1 0 4-1.6 5.5-6 5.5-2 0-4.1-.5-4.8-1.2zm14.6.4c-.2-.4-.3-4.8-.3-9.7v-9l4.4-.3c2.4-.2 5 0 5.7.2 2.2.8.5 3.4-2.4 3.8-4.1.5-4.1 3.6 0 4 4.5.4 4.5 3.2 0 3.6-2.4.2-3.2.8-3.2 2.3 0 1.4.7 1.9 3 1.9 2 0 3 .6 3.3 2 .5 1.8 0 2-4.8 2-3 0-5.5-.3-5.7-.8zm18.3 0c-3-1.1-5-4.7-5-9 0-3.5.5-5 3-7.4 2.7-2.8 3.5-3 8-2.6 6 .6 9 2.7 6.5 4.8-1.3 1-2.2 1-4.5 0-3.9-1.6-6.6-.6-8 3-2.5 5.8 3.2 10 9 7 1.5-.9 2.5-.8 3.6.1 3.6 3-6.8 6.4-12.6 4.2zm18.5-.8c-1.2-1.2-1.6-3.6-1.6-10 0-7.7.2-8.4 2-8.4 1.7 0 2 .8 2.2 7.7.3 7 .5 7.8 2.3 7.8 1.8 0 2-.8 2.3-7.8.3-6.9.5-7.7 2.3-7.7 1.8 0 2 .7 2 8.4 0 9.7-1.2 11.6-6.6 11.6-1.8 0-4-.7-4.9-1.6zm16.4-8.5v-10.2l4.5.5c2.5.3 5.2 1.1 6 1.8 2 1.6 2 5.9 0 8-1.3 1.4-1.2 2 .5 5.5 2.5 4.8 2.5 4.5-.5 4.5-1.7 0-2.9-.9-4-3-2-3.7-2.7-3.8-2.3-.3.3 2.3-.1 2.9-2 3.1-2.1.3-2.2.1-2.2-9.9zm6.5-5c-.5-.8-1-.8-1.5.2-1 1.7 0 3.4 1.2 2 .6-.5.7-1.5.3-2.1zm8.5 5.2c0-9.2.2-10.1 2-10.1 2.5 0 2.7 1.1 2.6 11-.2 8-.4 8.5-2.4 8.8-2.1.3-2.2 0-2.2-9.7zm10 1.9c0-6.4-.3-8-1.5-8-.8 0-1.5-.9-1.5-2 0-1.8.7-2 5.5-2 4.9 0 5.5.2 5.5 2 0 1.1-.6 2-1.5 2-1.2 0-1.5 1.6-1.5 8 0 7.9 0 8-2.5 8-2.4 0-2.5-.1-2.5-8zm14 3.7c0-2.7-1-6.3-2.5-9.3a35 35 0 0 1-2.5-5.7c0-1.8 4.1-.5 5.6 1.8 1 1.4 2 2.5 2.4 2.5.4 0 1.2-1.1 1.8-2.5.7-1.5 2-2.5 3.2-2.5 2.6 0 2.6 1-.5 7a23.3 23.3 0 0 0-2.5 9c0 3.6-.2 4-2.5 4s-2.5-.4-2.5-4.3zm-260.4-28.8c-3.3-2.6-2.4-4.3 2-3.4 4.4.8 4.3-.4 0-4.8-2-2-3.6-4.2-3.6-5.1 0-2 3.6-5.6 5.6-5.6 2.4 0 5.4 2 5.4 3.4 0 1.9-2.5 2.7-3.8 1.3-.6-.6-1.5-.8-1.8-.4-.4.4 1 2.4 3 4.5 4.3 4.4 4.8 8.3 1.4 10.6-3 2.1-5 2-8.2-.5zm-27.6-8.4v-9.5h5.3c4.3 0 5.8.5 7.4 2.2 2.7 3 3.5 6.6 2.3 11-1.2 4.1-4.2 5.8-10.5 5.8h-4.5zm10 3.6c2.4-4.6.6-9.1-3.7-9.1-2.1 0-2.3.4-2.3 5.5 0 5.2.2 5.5 2.5 5.5 1.4 0 2.9-.8 3.5-2zm8-3.6c0-9.5 0-9.5 2.5-9.5s2.5 0 2.5 9.5 0 9.5-2.5 9.5-2.5 0-2.5-9.5zm22 8.7c0-.4 1.5-4.5 3.3-9.2 2.9-7.3 3.7-8.5 5.9-8.8 2.2-.3 2.8.4 5.6 7.8 1.8 4.5 3.2 8.8 3.2 9.6 0 2.1-3.8 1.7-4.5-.6-.4-1.5-1.5-2-4-2-2.4 0-3.7.6-4.5 2-1 1.9-5 2.9-5 1.2zm10.4-8.7c-.3-.8-1-1.5-1.5-1.5s-.9.7-.9 1.5.7 1.5 1.5 1.5c.9 0 1.2-.6.9-1.5zm11.6 0v-9.5h5c3.9 0 5.2.4 6 2 1.5 2.7 1.3 5-.5 7-1.5 1.7-1.5 2 0 4.9 2 4 2 5.1-.5 5.1-1.1 0-2.6-1.3-3.7-3.3l-1.8-3.2-.3 3.2c-.2 2.5-.8 3.3-2.2 3.3-1.8 0-2-.8-2-9.5zm7-4c0-.8-.7-1.5-1.5-1.5s-1.5.7-1.5 1.5.7 1.5 1.5 1.5 1.5-.7 1.5-1.5zm7.4 11.2l1.7-9.5c1.1-6.5 1.4-7.2 3.5-7.2 1.8 0 2.6 1 4 5 .9 2.8 2 4.8 2.3 4.5.3-.4 1.3-2.5 2.1-4.8 1.1-3 2.2-4.3 3.8-4.5 2.3-.4 2.4-.3 4.2 10.2 1.4 8 1.3 8.6-.9 8.6-2 0-3-1.9-3-5.6 0-3.7-1.6-2.8-3 1.7-1.7 5.6-4.8 5.2-7-1.1l-1.5-4.5-1 4.7c-.8 4.2-1.2 4.8-3.4 4.8-2 0-2.3-.4-1.8-2.3zm24.6 1.5c0-.4 1.5-4.6 3.3-9.4 2.9-7.8 3.5-8.8 5.7-8.8 2.3 0 2.9 1 5.8 8.8 1.8 4.8 3.2 9 3.2 9.4 0 1.7-4 .7-5-1.2-.7-1.4-2-2-4.4-2-2.5 0-3.5.5-3.9 2-.5 1.9-4.7 3-4.7 1.2zm10-8.7c0-.8-.4-1.5-.9-1.5s-1.1.7-1.4 1.5c-.4 1 0 1.5.9 1.5.8 0 1.4-.7 1.4-1.5zm10.5 5.2c2-12.8 2.6-14.7 5-14.7 1.8 0 2.5 1 4 5.7l1.8 5.8 2-5.8c1.6-4.7 2.3-5.7 4.2-5.7 2 0 2.4.7 3.5 7.7.6 4.3 1.4 8.6 1.7 9.5.3 1.4-.1 1.8-2.1 1.8-2.1 0-2.6-.5-2.6-2.8 0-1.5-.5-3.6-.9-4.6-.6-1.6-1-1-2 2.7s-1.8 4.7-3.5 4.7c-1.6 0-2.6-1-3.8-4.3-1.6-4.3-2-4-3.2 1.5-.4 2-1.2 2.8-2.7 2.8-1.9 0-2-.4-1.4-4.3zm25.5-5.2v-9.5h5.5c4 0 5.5.4 5.5 1.4 0 1.5-2 2.6-5 2.6-1.1 0-2 .7-2 1.5 0 1 1 1.5 3.5 1.5 2.9 0 3.5.4 3.5 2s-.6 2-3.5 2c-3 0-3.6.3-3.3 1.7.2 1.2 1.4 1.9 3.6 2.1 2.4.2 3.2.8 3.2 2.3 0 1.6-.7 1.9-5.5 1.9h-5.5zm14 0c0-9.3 0-9.5 2.3-9.5 1.7 0 3.2 1.3 5.3 4.7l3 4.7.2-4.7c.3-4.2.6-4.7 2.8-4.7 2.4 0 2.4 0 2.4 9.5 0 9.3 0 9.5-2.3 9.5-1.7 0-3.2-1.4-5.8-5.3l-3.4-5.2-.3 5.2c-.2 4.5-.6 5.3-2.2 5.3-1.8 0-2-.8-2-9.5zm22 2c0-6.5-.2-7.4-2-8-1-.4-2-1.3-2-2 0-1.2 1.5-1.5 6-1.5 4.6 0 6 .3 6 1.4 0 .8-.9 1.7-2 2.1-1.7.6-2 1.5-2 8 0 6.8-.2 7.5-2 7.5s-2-.7-2-7.4zm17 6.5c0-.5 1.5-4.8 3.3-9.5 3-7.8 3.4-8.6 5.7-8.3 2 .3 3 1.6 5.7 8.7 1.8 4.7 3.3 8.8 3.3 9.3 0 1.7-4 .7-5-1.2-.7-1.4-2-2-4.4-2-2.6 0-3.6.5-4 2-.7 2-4.6 2.9-4.6 1zm10-8.4c0-2.4-1.7-2.8-2.3-.6-.3 1.3 0 2 1 2 .7 0 1.3-.7 1.3-1.4zm11-.1c0-9.3 0-9.5 2.3-9.5 1.7 0 3.4 1.5 6 5.2l3.7 5.3v-5.3c0-4.5.3-5.2 2-5.2 1.9 0 2 .7 2 9.5 0 9.2 0 9.5-2.2 9.5-1.6 0-3.1-1.4-5.3-4.8l-3-4.7-.3 4.7c-.3 4.3-.5 4.8-2.7 4.8-2.5 0-2.5 0-2.5-9.5zm21 9.2c-.2 0-.3-4.4-.4-9.5l-.3-9.2h5.4c7.3 0 10.3 2.8 10.3 9.5 0 6.5-3 9.5-10 9.5-2.7 0-5-.1-5-.3zm8.6-4.5c3.6-2.3 1.9-10.2-2.2-10.2-2.2 0-2.4.4-2.4 5.5 0 4.6.3 5.5 1.8 5.5 1 0 2.2-.4 2.8-.8zm81.1-21.9l3-6.5c1.3-2.6 2.3-5.3 2.3-5.8 0-.6-1.5-1.8-3.4-2.7-2-.9-4-2.8-4.6-4.3-1.7-4.3-4.6-5-17.2-4.4-10.7.6-11.5.5-16-2a98 98 0 0 1-10.6-7.1c-5.2-4-6.8-4.7-12-5.2-6.3-.6-7.2-1.2-4.8-3.2 1.4-1.2 4.6-.5 4.6 1 0 .5 1.3.9 3 .9 1.6 0 4 .4 5.5 1 3 1.1 3 1 .6-4.4-1.1-2.4-2.3-6.3-2.7-8.7-.8-5.2-3.6-7.8-8.2-7.9-7 0-14.3-5.6-15.8-11.8-.9-3.7-2-4.9-7.1-7.9l-4.4-2.6-4 3.9c-2.9 2.8-4.3 3.6-5.3 2.9l-13.2-9.6c-6.5-4.7-14.4-10-17.4-11.9-3-1.9-10.7-7.6-17.2-12.7a119 119 0 0 0-14.8-10.8c-.7-.9-2-1.3-2.7-1-1.9.7-8.3-3.2-8.3-5 0-.8-1.6-2.2-3.6-3.1-2-1-3.8-2.3-4-3-.9-2.2-3-1.6-5 1.3a54.4 54.4 0 0 1-4.8 6.8c-1.2 1.6-1.6 1.7-3 .6-1.7-1.4-2.2-5.1-.7-5.1.5 0 .7.9.4 2-1.5 6 7.1-3.3 9.2-9.8.3-1.2 1.2-2.2 1.8-2.2.7 0-1-1.4-3.6-3.2-6.3-4.1-5.3-4.7 1.6-.9 3 1.7 6 3.1 6.6 3.1 2.6 0 .9-2.1-3.6-4.4-3.1-1.6-4-2.5-2.8-2.6 1.1 0 3.5 1 5.4 2 6.1 3.8 4.3 1.4-3.4-4.4-4.2-3.2-7.4-6-7.1-6.3.3-.3.1-1.5-.4-2.8l-.8-2.3 3.7 1.9c6.7 3.2 8.8 3.4 9.5.7.5-1.8 0-2.8-2.1-4.5-3.5-2.9-1.5-3 2-.2 3.4 2.5 3.4 2.2.2-2.1-3.8-5.2-2.9-6 1.4-1.1 2.4 2.7 4.1 3.9 4.6 3.2 1.2-2 3.3-1.2 8 3 4.5 3.8 4.9 4 6.6 2.3 2.1-1.9 2.8-1 3.2 3.9.2 2.7 7.5 9 18.7 16.3l8.4 5.6c2.6 1.9 2.9 1.9 4.7.3 1-1 2.5-1.5 3.4-1.2 1.7.7 2 4.2.5 5.2-1.8 1.2-1 2.2 6.3 7.7 17 12.8 26 18.9 27 18 2-2-7.6-26.2-10.3-26.2-.6 0-.8-.4-.5-1 1.2-1.8-10.4-21-15.4-25.4-2-2-2.1-2-5 .8-7.3 7-22.1 4-22.9-4.6-.4-5 2.7-8.5 8.5-9.4 5-.7 8.3.5 14 5.2l3.2 2.6.6-2.4c1-3.5-4.6-18.3-6.7-18.2-.9 0-1.4-.4-1.2-1 .5-1.3-9-6.1-17.9-9-9.4-3.1-23.9-1.4-30 3.6a13.4 13.4 0 0 1-8.2 3.5c-3 .1-4.5.8-6 2.9-11.2 15-11.5 15.6-10.5 17 1 1 .7 1.1-1 .7-1.2-.3-2.8.2-4 1.2-2.4 2.2-2.5 3.2-.2 3.8 1 .2.4.3-1.3.2a10 10 0 0 0-5.6 1.6c-3 2.2-11.9 5.7-16.8 6.7s-4.8 3.6.2 4c4.4.4 4.7 1.3 1.2 3.6-1.3.9-2.4 2-2.3 2.4.2.4-.3 1.7-1 3-1 1.8-1 2 .3 1.6 2.2-.9 1.9 1-.6 3.2-1.1 1-2.5 2.6-3 3.5-.8 1.5-.5 1.6 2.2.6a9.5 9.5 0 0 0 4.5-3.8c1.3-2.6 4-3.9 7.7-3.9 1 0 3.4-1 5.4-2.4a9.3 9.3 0 0 1 7.7-1.9c5.8.8 6.3 1.7 2 3.8-5.8 2.7-9.5 5.7-9 7.2.4.8-.2 1.6-1.1 2-8.4 2.6-12.3 4.7-12.3 6.4 0 1.6-.5 1.8-2.5 1.3-1.7-.4-3.8.2-7 2-3.8 2.3-4.5 3-4 5 .5 1.1 1.1 2.5 1.6 3 .5.6 1 1.7 1 2.6 0 1 .8 2.5 2 3.5 1 1 2 2.9 2 4.2 0 1.3 1 3.4 2.4 4.7 1.4 1.3 2.5 3.2 2.5 4.2 0 2.3 1 3.6 3.5 5 1.1.6 2 2.1 2 3.4 0 1.2 1.3 3.2 2.8 4.4 1.5 1.2 2.7 3 2.7 4s1.4 3.1 3 4.7c1.7 1.7 3 3.7 3 4.4 0 .8-1.7 2.5-3.7 4l-13 9c-2.2 1.7-2.5 1.6-6.3-1-3.4-2.4-5.7-5.7-5.2-7.6 0-.3-2.5-4-5.8-8a37 37 0 0 1-6-9c0-.9-1-2.5-2-3.5-1.2-1-3.3-4-4.6-6.7-2.7-5.2-3-5.3-7-3.3-3 1.6-4.7 1.1-7.8-2.3-2.7-3-3.5-2.6-2.9 1.8.3 2 0 4.8-.6 6-1.8 3.2-7 6-11.3 6-3.5.1-3.8.4-6.4 5.8a23 23 0 0 0-2.6 12.6c0 4.5.7 7.8 1.8 9.4 2 3.2 1 4.3-5 5.4l-9.1 1.7c-2.5.5-5.7.7-7 .4-2.2-.4-2.5-1-2.5-4.6 0-2.4 1.2-7.6 2.6-11.7 4.6-13 4.6-13.6 1.4-17.2l-3-3.2v3.6c0 8.2-11.4 11.4-15 4.2l-1.6-3-4.7 4.7a42.1 42.1 0 0 0-7.1 10.3c-2.5 5.7-6.5 9.7-9.7 9.7-2.2 0-12.9 10.4-12.9 12.5 0 .8.8 1.5 1.8 1.6 1.4 0 1.4.2.2.6-.8.3-3 1.9-4.8 3.4-1.8 1.6-4.2 2.9-5.5 2.9-1.2 0-4 1.7-6.2 3.7-2.2 2.1-6 5.4-8.5 7.4s-7 6-9.9 8.8c-3 2.8-5.9 5.1-6.4 5.1a56 56 0 0 1-13-13.8l-10-13c-5.7-7.4-6.7-10.4-4.4-13.5a401 401 0 0 1 46.1-23.2c9.1-4 12.3-6 13.4-8 1.2-2.3 1.9-2.6 4.6-2.2 2.2.3 4.9-.4 8.9-2.4 3.1-1.6 5.7-3.2 5.7-3.5 0-.2-.9-1.7-2-3.2-2.6-3.6-4-11.5-2.8-15.8.5-1.8 2.4-5 4.2-6.9 2.9-3 4-3.5 7.8-3.5 5 0 8.4 2.4 10 7.2 1.2 3.3 3.2 3.2 3.7-.2.2-1.4 1.2-3.5 2.2-4.9 1-1.3 2-3.3 2-4.5 0-1.2.3-2.6.7-3.2 1.6-2.2 5.8-4.4 8.7-4.4 4.8 0 5.6-1.2 6.7-9.6.7-5.3 2-10 4.2-14.3 4-8.1 14.2-18.4 21.6-21.9 3-1.4 6.5-3.4 7.6-4.4 1.9-1.7 2.2-1.7 2.8-.4.8 2.3 3 2 5.6-1l2.4-2.5-5 .2c-5.2.2-7.4-.5-7.4-2.2 0-.6.5-.7 1-.4.6.3 1 .1 1-.4 0-.6-1.3-1.1-3-1.1-1.8 0-3.3-.6-3.6-1.5-.3-.8-1.1-1.5-1.8-1.5s-2-.7-3.1-1.5c-1.8-1.3-1.7-1.4 1.7-.8 5 .7 13.8-1.4 13.8-3.4 0-1-.6-1.4-2.3-1a53.1 53.1 0 0 1-16.1 1.3c-1.4-.4-2.6-1.3-2.6-2.1s-.4-1.5-1-1.5c-.5 0-1-.7-1-1.5 0-.9-1.2-2-2.6-2.5-1.8-.7-2.5-1.6-2.1-2.8.2-1-.2-2.4-1-3-.8-.8-1.2-2-1-2.6.3-.7-.8-1.8-2.4-2.5-1.6-.7-2.9-2-2.9-2.7 0-.8-.7-2.6-1.6-4-.8-1.2-1.4-3-1.1-3.6.2-.7-.4-2.5-1.4-4-2.7-3.8-3.7-7-2.9-9.3.4-1.2 0-3.7-1.2-6.3-1.5-3.3-1.7-4.6-.8-5.7.8-1 .9-2 0-3.4-1.5-2.9-1.2-5.8.6-6.5 1.3-.5 1.5-1.4 1-4.2-.8-4.2 0-7.4 2-7.4 1.7 0 1.7-.2.5-5.4-1.3-5.3 0-8.3 3.5-8.2 2.2 0 3 .8 3.8 3.3 2 5.5 3.7 6.2 2 .8-.7-2.7-1.4-6.1-1.4-7.7 0-4.2 2.7-3.6 4 1 .6 2 1.5 4.4 2 5.2.9 1.3 1 1.2 1-.3 0-3.5 2.9-1.6 4.6 3 5.4 15.3 6.8 18.6 9.6 22.5 5.6 7.8 26.6 26.7 31.5 28.2 2.3.7 3.3-1.3 3.3-6.6 0-1.5.5-3 1-3.3.6-.3 1-2.4 1-4.5s.7-4.5 1.6-5.4c1-1 1.3-2.4.9-4-.4-1.3-.3-3.4 0-4.6.6-2 1.3-2.2 4.5-1.7l3.8.5-2-3.4a12 12 0 0 1-1.6-6.6c.3-2.9.7-3.3 3.4-3.6 2.6-.3 3-.7 3-3 0-6.6 2.8-10.2 7.2-9.4.8.2 1.2-.9 1.2-2.9 0-2.2 1-4 3.1-6 4-3.6 5.7-3.7 6.5-.2l2 7.8 1.2 5 .1-7.1c.2-9.7 1.6-13.6 5-13.2 2 .2 2.7 1.1 3.6 4.3l1.2 4 .8-3c1.8-7.4 2.6-8.6 6-8.3 2.8.3 3.1.7 4.1 5.8l1.1 5.5 1.2-4.1c1.9-6.8 10.1-8.9 10.1-2.6 0 9.5-9.3 65-12.4 74.5-1.4 4-2.3 7.3-2.1 7.5.2.2 2.6-1.3 5.3-3.2 10-7.2 18-8 22.7-2.4 1.4 1.6 2.5 3.5 2.5 4.2 0 .7 1.4 2.5 3 4.1 3.9 3.7 3.9 5.5 0 5.5-2 0-3.3.7-4 2-.6 1.2-1.4 2-1.7 1.6-.3-.3 0-1.2.7-2 1-1.4.9-1.6-1.3-1.6-2.8 0-10.6 8-14.4 14.7l-2.2 4 3.5-.2c2-.1 4.7-1.2 6.1-2.5 4.3-3.7 12.6-7 20.4-8 15-2 20-1.2 29.2 4.4 3.2 1.9 5.7 3.1 5.7 2.7 0-.4-2.1-4-4.8-8.2-2.6-4-5-8.1-5.4-9-.6-1.6.8-3.9 2.5-3.9 1.4 0 3.6 6.4 2.6 7.6-.6.8.7 3.6 4 8.5a50 50 0 0 1 9.1 22.3c0 1.8-.6 5.5-1.4 8.1l-1.5 4.8 4.2 5.1 4.8 5.6 5.1 7c6.5 9.4 14 23.6 15.9 30l1.6 5.5 5.4.6c6.4.8 9.4 1.9 14.9 5.5 5.6 3.7 8.2 8.6 8.8 16.4a19 19 0 0 0 2 8.2c.8 1 4.4 3.4 8 5.3 6 3.4 6.6 3.5 8.8 2 1.3-.8 3-2.9 4-4.5 1.5-3.1 2.3-3.1 5.7-.2 2.5 2.1 2.1 5.5-1 9.2-1.9 2.3-2.3 3.4-1.4 4.3.6.6 1.1 2.4 1.1 3.9 0 2.8-1.2 3.4-6.2 3-2.9-.3-2 1.5 1.9 3.9 2 1.2 7 4.9 11 8 4 3.3 7.9 5.9 8.6 5.9.8 0 2.4-1.2 3.6-2.6 6.3-7.2 5.6-19.7-1.2-23.3-7-3.7-14.3 3.2-10.6 10 1 2 1.1 2 3.5-.1 2.4-2.3 5.4-2.2 5.4.2 0 1.9-1.2 3.3-3.6 4.6-3 1.6-6.2-1.1-7.4-6.6-2.6-11.3 9-15.4 17.4-6.2 2.6 2.9 3.6 5 3.6 7.2 0 5.6-2 10.8-5.6 14.8l-3.4 3.8 2.6 2.1a9.6 9.6 0 0 0 4.3 2.1 9 9 0 0 1 4 1.6c3 2.1 3 2 7.6-12.2 14-43.7 13.7-93.8-.8-139.2a227.3 227.3 0 0 0-91-119.7c-45.6-30-98.5-43-151.2-37-11.8 1.3-15.6 2-28 4.5a244 244 0 0 0-68 28c-6.6 4-9.7 6.2-23.1 16.2a337.5 337.5 0 0 0-39.7 40.2c-2.2 2.4-2 1.8 1-2.4 24-34.6 59.4-62.4 99.8-78.3a230 230 0 0 1 227.5 35.3 232.1 232.1 0 0 1 82.4 134 199 199 0 0 1 4.6 48c0 26.2-3.6 48.4-11.5 71-5.2 14.9-5.1 14.7-2 17 3.1 2.6 3.2 5 .2 7.9-2 1.9-2.7 2-5 1-1.5-.7-2.9-1-3-.8-.3.2-1.8 3.2-3.6 6.6-2.9 5.8-4.9 8.5-3.4 4.6zm-395.9-7.6c1-.7.1-2-3.4-5.6-6.3-6.2-16.6-19.2-15.8-20 .3-.3 2.2 1.2 4.2 3.4s4 3.9 4.5 3.7c.5-.1.6.2.2.8-.8 1.3 1.4 4.2 2.7 3.4.5-.3.8-.2.6.3-.3.8 5.3 8.3 6.3 8.3.2 0 1.9-1.3 3.6-2.8 1.7-1.6 5.3-4.6 8-6.8 2.6-2.1 5-4.2 5.2-4.7.1-.4.7-.4 1.3-.1.5.3-1.7 3.1-5 6.2-3.2 3.1-4 4.1-1.7 2.2l11.3-9.5c7.1-6 9.3-8.7 5-6.4-2.2 1.2-2.2 1.2-.5-1.5 1.6-2.4 1.7-2.8.1-5.1-.9-1.4-2-2.2-2.6-1.8-.7.3-.8.1-.3-.6 1-1.8-5.6-12.3-7.3-11.6-1.3.5-1.3.3 0-1.1 1.2-1.5 1-1.6-1.2-1a14 14 0 0 0-3.7 1.8c-.7.6-5.4 3.2-10.5 5.9-5.1 2.6-9.2 5.3-9 5.8.1.6-.2 1.1-.7 1.1-.5 0-1.5.6-2.3 1.3-.7.7-3 2.3-5.2 3.5-3.5 2-4 2.1-5.5.7-2-1.7-6-2-6-.5 0 .5 1.2 1 2.7 1.1 2.3.1 2.4.2.5.6-1.3.2-2.3.8-2.3 1.2 0 1 2.9 4.8 9.6 12.6 2.8 3.3 6.6 8.2 8.4 11 4.7 6.9 5 7 8.8 4.2zm-11.3-10.7c.4-.6 1-.8 1.6-.5 1.4.9 1.1 1.5-.6 1.5-.9 0-1.3-.5-1-1zm30.5-12c0-.6.7-1 1.6-1 .8 0 1.3.4 1 1-.4.5-1.1 1-1.6 1-.6 0-1-.5-1-1zM121.4 294c-.7-1 4.8-3.5 6.6-2.9.8.3 0 1.2-1.9 2.1-3.7 2-4 2-4.7.8zm10.4-2.1c0-.6.5-1 1-1 .6 0 1 .4 1 1 0 .5-.4 1-1 1a1 1 0 0 1-1-1zm-4.5 37c-.3-.6.1-1.3 1-1.6.8-.3 1.5-1 1.5-1.6 0-.5-1 0-2.4.9-2.3 1.7-2.5 3.3-.5 3.3.6 0 .8-.5.4-1zM535 326c1.2-1.5 1.2-1.6-.4-.3-1.7 1.3-2.2 2.1-1.4 2.1.2 0 1-.8 1.8-1.8zm-8.4-8c-.5-.6-1.4-1.2-1.9-1.2-1.3 0-1 2.4.3 3.8 1.6 1.6 3.1-.7 1.6-2.5zm-21.9-3.8c1.7-.4 3.1-1 3.1-1.3 0-.3-4-3.5-9-7-5-3.4-9.2-6.7-9.5-7.2-1-1.5-4.2-1-4.9.7-.4 1.2-1.3 1.4-3.7.9-2.8-.6-3-.5-2 1.1a33.9 33.9 0 0 0 14.6 12.7c3 .7 8 .8 11.4 0zm-349.3-14.9c-.9-1.4-1.2-2.5-.6-2.5.5 0 1.4.8 2 1.7 1 1.7 1.1 1.7.6 0-.2-.9-.1-1.9.4-2.2 1-.5 2.8-11.6 3-17.7 0-2-.4-4-1-4.3-.6-.4-4 .7-7.4 2.5-5.4 2.7-6.3 3.4-5.8 5.3.5 2.2.5 2.2-1.1.2-2.8-3.5-1.8-.7 2.2 6.3 4.9 8.6 8.5 14 9 13.6.2-.2-.4-1.5-1.3-2.9zm-45-1.3c-.5-.4-6.6 2.6-6.6 3.3 0 .3 1.6-.3 3.5-1.2 2-1 3.3-1.8 3.1-2zm-3.3-1.6c2.9-1.9 11.3-6.2 18.6-9.7 10-4.8 12.9-6.5 11.5-7-1.3-.5-.8-.8 1.9-.8 4.2-.1 21-8 20.4-9.6-.2-.5-1-1-1.8-.8-2.6.3-19.9 7.7-34.9 15C97 296 95.3 297 97.5 299.2c1.4 1.4 4.5.6 9.6-2.7zm112.1-.2c1-.3 1.6-1.2 1.6-2s.5-1.4 1-1.4c.7 0 .9.4.5 1-.3.5 0 1 .5 1 1.3 0 .5-3.6-1.2-5.8-.8-.9-.6-1.6.6-2.5 1-.7 1.8-2.6 1.9-4.4.1-1.7.6-2.9 1-2.6.4.2.7-.3.7-1.3 0-1.7-1.8-1.7-6.5 0-1 .5-.5-.1 1.3-1.3s3.7-2.1 4.2-2.1c.6 0 1-1.6 1-3.5 0-3-.3-3.5-2.4-3.5-1.4 0-2.7-.4-3-1-.4-.6 0-.7.9-.4 1.3.5 1.3.1.2-3.3-1.4-4-4.3-5.6-5.3-2.9-.3.9.1 2.7 1 4 2.2 3.4 2 4.4-1.3 15-1.6 5-3.2 10.6-3.5 12.3-.7 3.1-.6 3.3 2 3.3 2.3 0 2.6.2 1.4 1-1.3.8-1.3 1 .2 1 1 0 2.4-.3 3.2-.6zm264.1-.4c.8-1.3-.5-1.3-2.5 0-1.3.8-1.2 1 .2 1 1 0 2-.5 2.3-1zm-8.9-6.9c-1.4-1.4-1.6-1.4-1.6.1 0 1 .6 3 1.3 4.5l1.2 2.7.4-2.8c.1-1.7-.4-3.5-1.3-4.5zm13.4 2.8c0-.6-.4-.7-1-.4-.5.3-1 1-1 1.6 0 .6.5.7 1 .4.6-.3 1-1 1-1.6zm-318.6-3.2c-.4-.5-.2-.7.3-.4 1.1.7 2.9-1.1 5.1-5.1 1.2-2.1 1.2-2.2-.5-1.4a17 17 0 0 0-3.7 3c-1 1.2-2.2 2-2.7 1.6-.5-.3 1.4-2.8 4.2-5.7 5.7-5.7 7.3-9 6.5-12.4-.8-2.8-1.6-2.9-5-.2-3.7 3-4.4 1.7-.9-1.6l2.8-2.6-3.7 2c-2 1.3-3.6 3-3.6 4 0 .8-.4 5.3-1 9.9-1.4 9.2-1 13 1.4 11.1.8-.6 1.1-1.6.8-2.2zm.7-14c-1.2-1.5-.5-2.7 1.6-2.7 1.5 0 1.8 2.6.4 3.4-.5.3-1.3 0-2-.8zM301.3 288c1-1.1 1.5-2.4 1.2-2.9-.6-1 2.8-4.3 6.2-6.2 2-1 2-1.3.6-3.4l-1.5-2.3-5.5 2.8c-5.7 2.9-10.5 6.2-10.5 7.3 0 .4.5.4 1.2 0 .7-.5.9-.3.4.5-.9 1.4 3 6.1 5 6.1.6 0 1.9-.9 2.9-2zm-6.5-5.5c0-.2.8-1 1.8-1.7 1.6-1.3 1.6-1.2.4.3-1.4 1.7-2.2 2.2-2.2 1.4zm10-5.5c0-.6.5-1.3 1-1.6.6-.3 1 0 1 1 0 .8-.4 1.5-1 1.5-.5 0-1-.4-1-1zm187.4 4.8c-1-1-2.3-1.9-3-1.9-.9 0-1.2-.5-.9-1 1-1.7-.7-1-2 .7-1.1 1.5-.8 2 1.9 4 2.2 1.5 3.5 1.8 4.4 1 1-.8 1-1.4-.4-2.8zm-7-3.6c.5-1.1 0-2.3-1.6-3.5-2.5-2-6.8-2.4-6.8-.8 0 .5.6 1 1.3 1 .9 0 .9.3-.1.9-1 .7-.9 1.2 1 2.5 3 2 5.4 2 6.3-.1zM298 275.4c6.3-4 5.7-4.7-.8-1-5.5 3.3-6.9 2.5-1.6-.8 2-1.4 4.8-3.4 6-4.5 2-1.7 2.1-2.1.8-3.2-1.5-1.2-1.6-1.2-1.9 1.2 0 .7-1 1.2-2.1 1-1.1-.1-3.1.7-4.4 2a9.1 9.1 0 0 1-4.2 2.3c-1 .1-2.2.5-2.6 1-.4.4 0 .5 1.1.1 1.6-.5 1.7-.4.6.9-1 1.2-1 1.8 0 3 1.8 2.2 3 1.9 9-2zm158.4 0c-2.2-2-4.8-4-5.8-4.6-1.6-1-1.7-.8-.8.8 1.2 2.2 5.1 5.9 7.1 6.6 3.4 1.2 3.3.5-.5-2.8zm41.4.1c1-1 .8-1.5-.3-2-1.6-.5-4 1.7-2.9 2.7 1 1 2 .8 3.2-.7zm-184.9-.6c0-.6-.5-1-1-1-.6 0-.8.4-.5 1 .4.5.8 1 1 1 .3 0 .5-.5.5-1zm-124.5-5c1-1.1 1.6-2 1.3-2-.2 0-1.3.9-2.3 2-1 1.1-1.6 2-1.3 2 .3 0 1.3-.9 2.3-2zm101.6-1c2.4-1.6 5-3 5.6-3 1.2 0 2.7-3 1.8-3.8-.2-.3-.5 0-.5.6 0 .7-.9 1.2-2 1.2-1.4 0-1.8.4-1.4 1.2.5.8.2 1-1 .5-1-.4-3 0-4.6.8-4.7 2.4-3.5 1 2.8-3.1 6.1-4.2 7.4-5.4 6.6-6.5-.5-.8-15.3 5.6-16.9 7.3-.7.8-.4.9.8.4 4.3-1.5 5-1.5 2 0l-3.2 1.7 2 2.9c1.2 1.5 2.4 2.8 2.8 2.8a25 25 0 0 0 5.2-3zm181.8.1c-1.3-1.5-2.5-2.4-2.7-1.9-.4 1 2.7 4.8 4 4.8.6 0 0-1.3-1.3-2.9zm-265.8-1.2c2.7-2.7 1.9-3.4-2.4-2-1.8.6-4.1.9-5 .5-2.2-.8-2.1 1.2 0 2.5 2.8 1.6 5.1 1.3 7.4-1zm103 .3c1.3-1.5 1.3-1.6-.3-.3-1.7 1.3-2.2 2.1-1.4 2.1.2 0 1-.8 1.8-1.8zm153 .4c0-.2-.9-1-1.8-1.7-1.6-1.3-1.6-1.2-.4.3 1.3 1.7 2.1 2.2 2.1 1.4zM191 261.3c-.3-.8-1-1.4-1.4-1.4-.5 0-.5-.9.1-2 1.5-2.8.6-2.5-2.4.7-1.8 2-2.4 3.4-2 4.8.4 1 .7 2.6.7 3.3 0 .7 1.3 0 2.8-1.4 1.5-1.4 2.5-3.3 2.2-4zm-19 1.8c2.1-1.4 3.4-2.8 2.8-3-1.5-.5-12 4.8-12 6 0 1.5 4.7 0 9.1-3zm21.3 2c-.4-.3-1.2 0-1.8.7-1 1-1 1 .5.5 1-.3 1.6-.9 1.3-1.2zm274 .6c.3-.4-.4-1.1-1.5-1.8-2.6-1.4-4.6-.4-3 1.5 1 1.3 3.3 1.4 4.5.3zm-239.6-1.3c1-1.2.9-1.8-.4-3-1.7-1.8-2.2-5-.6-4 .6.3 1 .1 1-.4 0-.6-.5-1.1-1.2-1-1.4 0-4.8 1.9-3.4 1.9.5 0 .3.7-.4 1.5-1 1.2-1 1.8 0 3 .7.8 1.6 1.2 2.1 1 .5-.4 1-.2 1 .4 0 .5-.6 1.2-1.3 1.4-.8.4-.7.6.4.6a4 4 0 0 0 2.8-1.4zm55.5-4.2c4.3-2 4.6-3.5.5-2.3-4.3 1.2-2.9-.3 3.6-4 5.3-3 6.4-4.8 3.5-5.8-.9-.3-1 0-.6.8.5.8.4 1-.3.6-.8-.5-14 5.2-16 7-.4.3 4.1 5.2 5 5.3.4 0 2.3-.7 4.3-1.6zm19.6.7c1-.6 2-1.6 2-2.3-.1-1-.3-1-.9 0-.4.7-1.8 1.6-3.2 2.2-1.4.5-1.9 1-1.2 1a8 8 0 0 0 3.3-1zm-55.6-1c3.4-1.3 6-7.2 4.5-10.1-.7-1.3-1.7-1.8-2.7-1.5-.8.4-3.5 1.1-5.9 1.7-2.4.6-4.4 1.3-4.4 1.5 0 2 2.8 5.4 4.9 5.9 2.5.6 2.6.7.7 2-2.3 1.7-.9 2 3 .5zm209.5-2.1c0-.6-.4-.7-1-.4-.5.3-1 .1-1-.5s-.4-.8-1-.5c-.6.4-.5 1.1.3 2 1.3 1.4 2.7 1 2.7-.6zm6.7-2.3c-2.2-2.9-8.3-5.8-7.5-3.5.5 1.1 9.2 7.9 9.7 7.4.2-.3-.8-2-2.2-3.9zm-276.5.6c1.2-1.5 1.2-1.6-.4-.3-1.7 1.3-2.2 2.1-1.4 2.1.2 0 1-.8 1.8-1.8zm282.2-4.7c-3.1-6.7-12.8-12.3-21.1-12.4-3.8-.1-4.3.1-4.3 2.2 0 1.4 1.2 3.2 3 4.5 2.6 2 3.8 2.2 8 1.6 5.8-.8 9.4 1.3 13.2 7.4 2.9 4.6 3.8 2.1 1.2-3.3zM291.4 255c-.4-.3-1.2 0-1.8.7-1 1-1 1 .5.5 1-.3 1.6-.9 1.3-1.2zm7.5-.5c-1-1-1-.8-.5.6.4 1 1 1.5 1.2 1.2.3-.3 0-1-.7-1.8zm153.2.7c.4-.4-.4-1.5-1.6-2.4-1.5-1.3-2.4-1.5-2.9-.7-1.3 2.1 2.7 4.9 4.5 3zm-32.3-1.4c0-.6-.2-1-.4-1-.3 0-.7.4-1 1-.4.5-.2 1 .4 1 .5 0 1-.5 1-1zm-235.3-5c3.1-5.8 3.5-8.6 1.8-12.6-2.6-6.3-10.3-5.5-13.1 1.3-2 4.7-1 9.5 2.4 13.3 3.6 4 6 3.5 9-2zm96.7 1.3c3-2 5.4-3.9 5.1-4.1-.2-.3-1 0-1.7.5-.7.6-2.6 1.3-4.3 1.7-2.9.7-2.8.6 1.3-2.5 2.3-1.9 4.2-3.6 4.2-4 0-.3-3.6 1.1-8.1 3.3a26.4 26.4 0 0 0-7.6 4.4c.3.3 2-.2 3.9-1.2l3.3-1.7-2.7 2.6c-6 5.7-1.6 6.4 6.6 1zm-65.2 0c1.2-1.6 1.2-1.7-.4-.4-1.7 1.3-2.2 2.1-1.4 2.1.2 0 1-.8 1.8-1.8zm-19.6-2.7c1.3-2 1.4-2.8.2-4.8-1.6-2.8-4.3-3.2-4.5-.7 0 1 .3 1.9.8 1.9s.6.7.3 1.5-.1 1.5.5 1.5.8.7.5 1.5c-1 2.3.4 1.8 2.2-1zm98.8 0c-.3-.9-1-1.6-1.5-1.6s-.4 1 .2 2c1.2 2.5 2.3 2.1 1.3-.4zm119.4.5c.3-.8 0-1.2-.8-1-.8.3-1.5 1.1-1.8 1.8-.2.8.1 1.2.9 1 .7-.3 1.5-1.1 1.7-1.8zm16.7-.1c-1-1.1-2.2-2-2.8-2-.5 0-.2.9.8 2s2.3 2 2.8 2c.6 0 .2-.9-.8-2zm13.3.2c.6-1.8-1.5-1.4-2.2.4-.3 1-.1 1.4.6 1.2.7-.3 1.4-1 1.6-1.6zm-240.7-2.5c-1-1-1-.8-.5.6.4 1 1 1.5 1.2 1.2.3-.3 0-1-.7-1.8zm19.5.5c-.4-.3-1.2 0-1.8.7-1 1-1 1 .5.5 1-.3 1.6-.9 1.3-1.2zm215.8-1.3c-.6-1-2.4-.2-2.4 1.1 0 .5.7.7 1.5.4.8-.4 1.3-1 1-1.5zm-225.4-.5l2.5-1.5-2.5.7c-1.4.3-2.9 1-3.4 1.5-1.6 1.4.6 1 3.4-.7zm15.5-.2c1.7-1 5.4-2.7 8.3-3.7 3-1 5.8-2.5 6.4-3.2.5-.7-3.5.7-9 3-5.6 2.2-10.2 4.5-10.2 5 0 1.1 1.3.8 4.5-1.1zm179 0c1.5-1.8.9-4.5-.8-3.5-.6.4-.8 0-.4-1 1-2.5 0-2-1.9.8-1.3 2-1.4 2.8-.4 4 1.6 1.9 2 1.9 3.6-.2zm-115.3-2c1.2-1.5 1.2-1.6-.4-.3-1.7 1.3-2.2 2.1-1.4 2.1.2 0 1-.8 1.8-1.8zm129.8-.8c-.8-.9-3.4-3-6-4.6-5.3-3.6-4.4-2.4 2 2.6 5 3.9 5.9 4.3 4 2zm-20-5.6c0-.4-1-1.2-2.1-1.9-1.4-.7-1.9-.8-1.5 0 .4.6.3 1.9-.3 3-.6 1-.8 2-.5 2.4.7.6 4.4-2.4 4.4-3.5zm-202 .8c0-.8-.6-1.6-1.5-2-1.2-.4-1.2-.2-.2 1.4 1.4 2.4 1.7 2.5 1.7.6zm22.6-.4c-.4-.3-1.2 0-1.8.7-1 1-1 1 .5.5 1-.3 1.6-.9 1.3-1.2zm7.4-3.8c0-.2-.9 0-2 .6-1 .6-2 1.3-2 1.6 0 .2 1 0 2-.6 1.1-.6 2-1.3 2-1.6zm165.5.6c1-1.1 1.3-2 .7-2-.7 0-1.2-.7-1.2-1.7 0-1.3-.4-1.1-2 .7-3.7 4.3-1.3 7.2 2.5 3zm-138.5-2c1-1.8 1-2-1.4-.9-1.4.7-2.3 1.6-2 2 .9 1.5 2.3 1 3.4-1.1zm-54.3-.1c-1.3-.8-2.2-.8-3 0-.8.8-.3 1 1.9 1 2.6 0 2.7-.1 1-1zm31.5-.7c-.8-.2-1.8 0-2.4.6-.7.8-.4.9 1.3.5 1.4-.4 1.8-.8 1-1zm154.8-1.3c0-.5.4-.8.8-.7.4.2.8-.2 1-.7 0-.6-.6-.9-1.4-.7-1 .2-1.3-.1-1-.7 1.1-1.7 0-1.3-1.5.6-1 1.1-1 1.4-.1 1 .7-.5 1.2-.4 1.2 0 0 .5-.5 1.5-1.2 2.2-1 1-1 1 .5.5 1-.3 1.7-1 1.7-1.5zm-178-2c0-.4-.8-1.3-1.7-2-1-.7-1.5-1-1-.5.3.4.2 1.9-.3 3.2-.8 2.2-.8 2.3 1 1.1 1.1-.6 2-1.5 2-1.8zm57.7 0c6.3-3.2 8-4.5 7-5.6-.5-.4-15.4 5.2-16.5 6.2-.7.6 1 2.5 2 2.5.6 0 4-1.4 7.5-3.2zm133.3-1a283.5 283.5 0 0 0-24.6-16.9c-.8 0 7.6 7 10 8.2 1.2.6 2.6 1.8 3.2 2.5 1.4 2 13.8 10.2 14.4 9.6.3-.3-1-1.8-3-3.5zm-163 2.1c0-.5-.7-.7-1.5-.4-.8.4-1.5.8-1.5 1 0 .2.7.4 1.5.4s1.5-.4 1.5-1zm-36-1.6c0-.8-.4-1.2-1-.9-.6.4-.7 1-.4 1.6.8 1.4 1.4 1 1.4-.7zm40-.4c0-.5.6-.7 1.3-.4.8.2 2.4-.5 3.7-1.6 1.3-1 3.1-2 4.1-2 1 0 2-.5 2.4-1 1.1-1.8-2.4-1-7.4 1.5-4.9 2.4-7.2 4.5-5.1 4.5.5 0 1-.4 1-1zm142.4-1.6c.3-.8.2-1.2-.4-.9-.5.3-1 1-1 1.6 0 1.4.7 1 1.4-.7zm-167-1c-.4-.8-.8-1.3-1.1-1-.3.2-.2 1 .2 1.5 1 1.6 1.5 1.3.9-.4zm-3.4-.9c0-.8-.4-1.5-1-1.5-.5 0-1 .7-1 1.5s.5 1.5 1 1.5c.6 0 1-.7 1-1.5zm75.6-.3c-.4-.3-1.2 0-1.8.7-1 1-1 1 .5.5 1-.3 1.6-.9 1.3-1.2zm91.1-.9c1.2-1.8 1.2-2.1 0-2.6-1-.4-1.9.4-2.6 2.4-1.2 3.5.4 3.6 2.6.2zm-172.2-.3c1-1.1 1.3-2 .7-2-.6 0-1.6.9-2.2 2-.6 1.1-.9 2-.7 2 .2 0 1.2-.9 2.2-2zm71-1.8c-.7-.8-3.5.7-3.5 1.8 0 .6.7.6 2-.2 1-.7 1.7-1.4 1.5-1.6zm-56.3-1.4c-.7-.7-1.2-.8-1.2-.2 0 .6.3 1.4.7 1.7.4.4.9.5 1.2.2.3-.3 0-1-.7-1.7zm152.1-.6c.8-4-.5-4.5-3.4-1.2-2.9 3.2-2.7 4 .7 4 1.6 0 2.3-.7 2.7-2.8zm-112.7-2.3c.3-.6-.7-.4-2.4.5s-3.4 2-3.7 2.7c-.4.6.7.4 2.4-.5 1.6-.9 3.3-2 3.7-2.7zm22.6 2.3c1.2-1.5 1.2-1.6-.4-.3-1.7 1.3-2.2 2.1-1.4 2.1.2 0 1-.8 1.8-1.8zm77.8 1.3c0-.2-.7-.8-1.5-1.5-1.2-1-1.5-1-1.5.2 0 .8.7 1.5 1.5 1.5s1.5-.1 1.5-.2zm-128-1.5c.5 0 .6-.9.3-1.9-.6-2.5-4.3-1.6-4.3 1.1 0 1.4.5 1.8 1.6 1.4l2.4-.6zm65.1 0c1.6-.9 2.8-4 1.6-4-.5 0-8.7 4-8.7 4.3 0 .8 5.5.5 7.1-.3zm-72-5.4c1.5-1.2 3.5-3.8 4.5-5.9 1.4-3 3.2-4.5 9.4-7.7a63.5 63.5 0 0 0 26.1-26.2l2-3.8h-3c-1.7 0-3-.4-3-.8 0-.5-1.8-.8-3.9-.8-2.5 0-4.6.9-6.4 2.6a34 34 0 0 1-8.8 4.8c-6 2.4-15 9.5-19.1 15.4l-2.1 3 2.8-1.5c1.6-.8 4.2-1.7 5.8-2.1 1.6-.4 3.5-1.4 4.3-2.2.8-.8 2.5-1.4 3.9-1.4 3.2 0 2.1 2.8-1.4 3.6-11.9 2.4-16.8 5.7-19.6 13.2-1.6 4.4-2.1 11.3-.9 12.6 1.2 1 6.6-.5 9.5-2.8zm138 .5c0-1.1.4-2.3 1-2.7.8-.4.8-1 0-1.7-1.5-1.5-5.6 2.5-4.7 4.7.8 2.3 3.6 2 3.6-.3zm-91-.6c0-.8-.9-1.5-1.8-1.4-1.2 0-1.4.2-.4.6 1.1.5 1.1.7 0 1.4-1 .7-1 .9.4.9 1 0 1.7-.7 1.7-1.5zm-37-2.6a74.5 74.5 0 0 1 12.4-8.3c2.5-.9 1.6 0-5.4 5-4.5 3.2-5 3.9-3.5 4.5 2.2.8 2.2.8 15.6-9.6 5.7-4.3 9.6-7 8.8-6-.8 1-5.7 5.2-10.8 9.3-5.1 4-9 7.6-8.8 7.9.3.3 3-.9 6.2-2.6 3.2-1.7 6.5-3.1 7.4-3.1 1.5 0 4-2.5 8.7-8.5.8-1.1.6-.3-.5 1.7-1.2 2.1-1.7 3.8-1.3 3.8 1.5 0 3-2.6 4-6.6l1-3.9v4c.1 3.5.3 3.7 1.5 2 .7-1 1.8-1.5 2.5-1 .7.3 1.8.2 2.6-.5.8-.6 2-1 2.7-.9 2 .4 5.8-1.1 5.8-2.3 0-.6.3-.8.7-.5.3.4 1.2-.1 2-1 1.3-1.7 1.4-1.7 2.7 0 1.4 1.8 1.5 1.8 2-.1.5-1.4 2-2.1 5-2.5a38 38 0 0 0 19-9c2-2 4-3.7 4.4-3.7 1.3 0 7.6-7 11.1-12.3 1.8-2.6 2.7-4.7 2.2-4.7-.6 0-1-.6-1-1.3 0-.6-1.3-2.6-2.8-4.2-2.3-2.5-2.8-4-3-9 0-3.3 0-5.3.3-4.4.4 1 1.3 1.5 3 1.1 2-.4 2.4 0 2.4 1.8 0 1.4-.7 2.4-2 2.7-1.7.5-2 1.1-1.5 3.2.6 2.4 4.7 7.1 6.4 7.1.4 0 2.4-2.8 4.4-6.3 4.3-7.2 6.3-9.7 9.8-12 3.5-2.3 7.2-9.4 6-11.5a9.5 9.5 0 0 0-9.2-5.5c-4.5.2-6.1 1.1-14.3 7.8-3 2.5-6 4.5-6.6 4.5-1.8 0-20.1 11.2-20.7 12.6-.2.8.8 2.5 2.4 3.8 1.5 1.4 2.2 2.5 1.5 2.6-.7 0-3.4-2-6-4.3-6-5.4-12.3-10.4-18.7-14.7-2.7-1.8-10.2-7.6-16.5-12.9-15.3-12.6-16.7-13.6-8.8-5.9a214 214 0 0 0 16 13.6c5.1 3.8 13.1 10.5 17.8 14.7a93.2 93.2 0 0 0 18 13.5c1.7 1.4.6 1-3.5-1-7.4-4-11-6.7-19.4-14.5-3.6-3.4-8.7-7.6-11.3-9.3a70.8 70.8 0 0 1-6-4.5l-7.8-6.5c-3.6-3-8.6-8-11.3-11-2.6-3.2-6-7-7.5-8.7-8-9.1-12.3-16.2-16.6-27.5-2.8-7.4-3-7-1.2 1.5 1.6 7.3 6.3 14.8 16.1 25.7a47 47 0 0 1 7 8.7c-.3.3-1.7-.7-3-2.2-4.2-4.4-5.8-3.2-3 2.2 1.7 3.4 8.3 8.8 19 15.8 9.8 6.5 8.7 7-1.5.8-9.7-5.8-8.7-5.2-17-11-6.9-4.7-10-5.2-8.4-1.2 1.4 3.7 16.4 13.5 27.4 18 3.6 1.5 5.6 2.6 4.5 2.6-2.8 0-11.7-3.8-20.4-8.8a28 28 0 0 0-9.5-3.9c-5.7.8 18 12.5 29 14.3 2.7.5 4.1 1 3.2 1.2-3 .7-11.6-1.5-20-5.1-8.5-3.8-11-3.4-4.7.6a63.8 63.8 0 0 0 22 6.1c2.6.3 2.3.4-1.6.5a44 44 0 0 1-10.5-1.3c-7-2-11-2-10.4-.1 1.5 3.7 13.9 6.1 24 4.6 10.3-1.6 11.9 0 3 3-3.6 1.2-6.4 2.5-6 3 .5.9 7.6-.5 10.5-2 2.8-1.5 7-3 7-2.5 0 .8-7.4 4.2-12 5.6-2.6.7-5.5 1.9-6.7 2.6a6.8 6.8 0 0 1-4.5.8c-2.8-.6-5.4.8-4.4 2.4 1 1.7 3.5 1.3 3.6-.7.2-1.6.2-1.6.6 0 .3 1 .9 1.8 1.4 1.8a95.2 95.2 0 0 0 25-11.2l3.4-2-3 2.7a79.3 79.3 0 0 1-12.7 7.3c-9.8 4.7-11.6 6.2-7.5 6.2 3.2 0 9.5-3.1 15-7.4 2.7-2 5.1-3.5 5.4-3.3 1 1-10.8 9.4-14.7 10.7-2.2.7-3.7 1.6-3.4 2 .8 1.5 4.9-.3 12.4-5.2 6.5-4.3 7.1-4.5 4.5-1.8a42.7 42.7 0 0 1-8 6c-3.6 2.2-4.4 3-2.8 3 1.1 0 4.4-1.6 7.2-3.5 6.3-4.3 6.9-2.9.7 1.6-4.3 3-6.2 5.6-5 6.7 1.8 1.9 10.8-9 10-11.9-.4-1 0-2 1-2.3.8-.3 1.3-.2 1 .3a1 1 0 0 0 .3 1.5c.5.4-.1 3.5-1.5 7.3-2.9 8-2 7.6 2.6-1.4 2-3.7 4.2-7 5-7.2 1.2-.3 1.2 0-.2 1.5-.9 1-2.6 4.1-3.8 6.9-3.2 7.5-7 11-7 6.4 0-1.1.5-3 1-4.2l1.1-2.2-1.8 2.1c-2.4 2.8-8 5.7-9.3 4.9-.6-.4-.8-1.5-.4-2.6.3-1 .2-1.9-.3-1.9-2.6.1-5.9 3.6-11.7 12.3L261 188l5.2-3.7 5.2-3.6-5.2 5c-3.4 3.3-9.2 7-16.7 10.8-10 5.1-14.7 8.6-13.3 10 .3.3 4-1.8 8.4-4.6 19.1-12.4 31.6-20 30.4-18.6-1.5 1.8-18 12.8-25.6 17.2-7.5 4.3-17.4 11.8-14.5 11 1.4-.4 3.6-1.6 5-2.7zm34-18.5c0-1.2.3-1.4.6-.6.3.7.3 1.6 0 2-.4.3-.6-.3-.6-1.4zm24-3c0-1.2.3-1.4.6-.6.3.7.3 1.6 0 2-.4.3-.6-.3-.6-1.4zm31.1-23.2c.3-1 1.3-1.7 2.9-1.6 1.3 0 3-.6 3.6-1.5.7-1 1.3-1.1 1.3-.4 0 1.5-4.8 5.3-6.7 5.3-.8 0-1.3-.7-1-1.8zm-30.1-.5c0-1.7 3.8-8.5 3.9-6.9 0 .7-.5 2.3-1 3.4-.9 1.5-.9 1.9 0 1.3a7 7 0 0 0 2-2.9c.7-1.7 1-1.8 1-.3 0 2.4-2.9 6.7-4.6 6.7-.8 0-1.4-.6-1.3-1.3zm40-9.3c0-1.2.3-1.4.6-.6.3.7.3 1.6 0 2-.4.3-.6-.3-.6-1.4zm-63.3-14c.8-.4 1.6-.3 2 0 .3.3-.3.6-1.4.5-1.1 0-1.4-.3-.6-.6zm74.2-10.4c0-1 .9-2.4 2-3 2.7-1.4 2.7-1.4 2.2 2-.5 3.5-4.2 4.4-4.2 1zm-67.5 81c.4-.6.2-1-.4-1-.6 0-1 .4-1 1 0 .5.1 1 .4 1 .2 0 .7-.5 1-1zm81-2.6c1-1.4 1.4-3.3 1-4.2-.5-1.5-1-1.3-3 1.1-1.4 1.5-2.5 3.5-2.5 4.3 0 2.3 2.7 1.6 4.5-1.2zm-11-.3c-.3-.6.3-1.5 1.3-2.1 1.6-1 1.6-1.1-.1-.6l-2.3.6c-.2 0-.4.7-.4 1.5s.5 1.5 1 1.5c.7 0 .9-.4.6-1zm-33-1.7c1.2-.5 1.3-1 .5-2-1-1-1.4-1-2.5-.1-.7.7-1 1.5-.8 2 .5.9.7.9 2.8 0zm36.5-5c-.7-.8-1.9-1.4-2.7-1.4-.8 0-1-.5-.7-1.2.5-.7.3-.8-.5-.4-.9.6-.6 1.4 1 3.2 2.3 2.4 5 2.3 2.9-.2zm-59-2c0-.8-3.8 1.6-4.5 2.7-.4.6.5.3 1.9-.6 1.4-1 2.6-2 2.6-2.2zm69.8-4.7c-5.7-5.5-15.1-12.3-14.6-10.5.3.7 3 3.2 5.9 5.5l8.4 6.7c5 4.1 5.1 3 .3-1.7zm-16.9 0l-3.7-3a13.6 13.6 0 0 0-4.4-2.7c-.6 0 .3 1 1.8 2.2l4.3 3.6c.7.7 1.6 1 2 .7.2-.3.3-.6 0-.8zm55.8-9.2l2.8-2.5-3.8-3.4c-4.8-4.3-10.9-5.6-13.7-3-2.6 2.3-2.5 4.6.3 7 5.5 5 10.2 5.7 14.4 1.9zm-67.2.5c-.3-.6-1.1-1-1.8-1s-.6.4.3 1c2 1.2 2.3 1.2 1.5 0zm-65-20.9c1-1.6-3.9-2.1-5.4-.6-1.3 1.3-1.1 1.5 1.7 1.5 1.7 0 3.4-.4 3.7-.9zm-7-1.5c1.1-.8 1.7-1.8 1.3-2.2-.9-.8-6.8 1.5-6.8 2.7 0 1.4 3.4 1 5.6-.5zm-7.4-1.6c2.6-1.4 2.4-3.7-.4-4.4-3.3-.8-6.9.4-6.2 2.1.3.8.5 1.9.5 2.4 0 1.2 3.7 1.1 6-.1zm5.9-2c.8-.5 1.1-1.2.7-1.6-.4-.4-1.5 0-2.4 1-1.8 1.7-.7 2.2 1.7.6zm-9-4.8c2.2-1.4 2.3-1.7.8-2a43.6 43.6 0 0 0-13.1 3.6c-.5.2-.3.8.3 1.2 1.6 1 8.9-.7 12-2.8zm8.7-5.7c.2-.6-1.8-.9-5.2-.7-3 .2-5.5.8-5.5 1.3 0 1.3 10.3.7 10.7-.6zm-17.8-.1c3.7-.8 3.6-3 0-2.7-8 .7-13.9 1.7-13.9 2.4 0 1 9.3 1.2 14 .3zm-5.3-3.5c3.3-.6 6.4-1.5 7-2.1.6-.8.2-.9-1.6-.4-1.4.4-5.7 1-9.7 1.3-4 .3-7.3 1-7.3 1.4 0 1.2 4.4 1.1 11.6-.2zm34.4-1.3c3-1 3.4-1.4 1.5-1.1a58.3 58.3 0 0 1-20.4.6c-5.5-1.2-8-.4-6.5 2 1 1.6 19.3.5 25.4-1.5zm33.6-2.1c1.4-1.4 2.9-2.5 3.4-2.5.4 0 .6-1 .3-2.3-.5-2.2-.5-2.2 1.1-.2 1.4 1.8 1.8 1.8 2.9.5.7-.8 1.9-1.5 2.7-1.5 1.1 0 1.5-1 1.3-3.5-.2-3.5-.1-3.5.9-.8 1.2 3.4 2.8 3.6 2.8.5 0-1.8.2-2 1-.7 1.4 2.2.2-10.7-2.1-23-2.9-15.1-6.4-22.4-9.6-19.8-2 1.7-1.5 7.3 1.7 15.3 4.2 10.6 6.6 21.4 5 22.8-1 1-1 .7-.5-1 .4-1.4.2-2.3-.4-2.3a111.7 111.7 0 0 0-9-26.7c-2.5-5-3.9-6-4.7-3.7-1 2.5 1.1 9.6 6.2 20.7a52 52 0 0 1 4.2 10.9c-.2.6-2.4-3.5-4.8-9a108 108 0 0 0-6.2-12.4c-1.6-2.1-1.8-2.2-3.3-.7-1.5 1.5-1.2 2.5 4.1 12.7a66.4 66.4 0 0 1 5.3 11.6c-.2.3-2.9-4.2-6-10-3-5.8-5.7-10.8-6-11-.5-.3-1.3.5-1.9 1.6-.9 1.7-.3 3.3 3.6 9.6a63.6 63.6 0 0 1 8.4 17.7c0 .7-1.9-2.4-4-6.7-5.8-11.2-8.7-15.4-9.5-13.4-.7 1.8 2.5 8.7 5 10.8 1.6 1.3 8 13 7.1 13-.2 0-1.5-1.7-2.7-3.8-3.2-5.1-9.8-12.2-11.5-12.2-2.8 0-1.5 5.8 2.3 10.2 6.1 7 7.2 8.6 3.9 5.8-1.6-1.4-4.2-4-5.9-5.8-3-3.3-5.7-4.2-5.6-2 0 1.2 15.6 13.6 17.2 13.7.5 0 2-1 3.3-2.4zm14.5-14c0-1.3.3-1.5.6-.7.3.7.3 1.6 0 2-.4.3-.6-.3-.6-1.4zM243 142.6a18 18 0 0 0 5.8-1.8c0-.3-5.4-.6-12-.7-8.7-.1-12 .2-11.7 1 .9 2.6 9.1 3.3 18 1.5zm4.7-5.7c1.9-1.8 1.9-1.9-.5-3-1.4-.6-4-1.1-6-1.1a72 72 0 0 1-21.6-9.5c-4.9-3.4-5.3 0-.5 4 6 5 12.5 7.5 20.7 7.6 6.5 0 7 .2 4 1-3.2.8-13.4.4-18.8-.7-1.6-.3-2.2 0-2 .8.6 1.7 5.3 2.5 15 2.7 6.5 0 8.2-.2 9.7-1.8zm-3.9-7.2c0-1.1-1.4-3.2-3-4.6l-3.2-2.6 2.3-1.7c2.1-1.7 2.1-1.8.3-2.8-1.3-.7-1.8-2.2-1.8-5 0-3.5-.4-4.2-3.7-6a57 57 0 0 1-17.4-20.8c-4.5-8.8-6.5-10.3-6.5-5.1 0 6.6 5.3 14.8 16.6 25.7 6 5.7 9.3 9.5 7.6 8.6A105.3 105.3 0 0 1 213 93c-2.3-4.6-4-5.3-4-1.8 0 5.1 10 16.8 21.7 25.1 2.9 2 5.2 4 5.2 4.2 0 2-15-9.3-20-15a6975 6975 0 0 1-5-5.7l-2.1-2.4.5 3.5c.5 2.7 2.4 5.2 8.7 11.3a78.2 78.2 0 0 0 12.8 10.2c5.7 3 5 3.2-1.3.4a52 52 0 0 1-11-8c-3.5-3.2-6.6-5.9-7-5.9-1.2 0-.5 4.2 1 7 2 3.3 16 11.5 26.4 15.3 3.3 1.2 5 .7 5-1.4zm41.4-2.1c-1.6-2-1.6-2-.1-.9 3.6 2.8 2.4.5-2.4-4.8-3.5-3.7-5.3-5-6-4.3-1.7 1.6-.1 4.7 4.2 8.6 4.3 4 7.3 4.9 4.3 1.4zm4.5-4.5c-1-1.2-1-1.5-.1-1 3 2 5.7-5.4 3-8.2-.7-.7-.8-1.2-.3-1 3.1.5 2.4-.7-3.9-6.7-6.5-6.2-9.6-7.5-9.6-3.9 0 3 2.8 8 7 12.3 2.2 2.4 4 4.7 4 5 0 .4-2.5-1.9-5.5-5-5.8-6.2-6.5-6.7-6.5-4.3 0 4.5 12.1 19.5 12.9 16 .1-.9-.3-2.3-1-3.2zm44.5-9a854 854 0 0 0 10.2-65c.6-3 .5-3.3-2-3.3-3.3 0-5.1 3-6.5 10.4-1.1 6.2-1.5 19.3-.5 18.4.3-.3 1.1-3.9 1.9-8 1.5-8.5 2-6.2.5 2.7-.6 4.1-.6 7 .1 9.2.8 2.6.6 5-1 11.5-1 4.6-2.4 12.3-3 17.3-.6 5-1.4 10-1.7 11.2-.3 1.3-.4 2.3-.1 2.3.3 0 1.2-3 2-6.8zm-6.9-.6c-1.9-15-5.9-32.7-7.3-32.7-1.3 0-3.2 2.3-3.2 3.8a89.6 89.6 0 0 1 9.5 29c.4 2.8 1 5.2 1.2 5.2.3 0 .2-2.4-.2-5.3zm6.5-22c1.1-11.4 1-13-.4-15.2-2.9-4.4-6.2-2.7-5.8 3 .2 2.5 0 2.7-.7 1-1.4-3-1.3 8 0 16.6 1.3 7.6 2.6 9 3.2 3.1.2-2 .5.6.7 5.8.3 9.1.3 9.3 1 4 .5-3 1.4-11.3 2-18.3zm-89.3 17A125 125 0 0 1 229 86c-2.5-4.7-5.8-10.5-7.4-12.8a55.7 55.7 0 0 1-3.8-6.5c-.8-1.8-.9-1-.5 3.2a50.5 50.5 0 0 0 14.8 27.8c.4.2 1.2 1.3 1.8 2.5.6 1.2-1.7-.6-5-4.1a51 51 0 0 1-13.3-25.8c-1-6.5-2.8-8.7-2.8-3.6 0 7.9 9 25.8 16.4 32.5 5.4 5 17 13.7 17.5 13.2.2-.3-.8-2-2.2-3.7zm51.5-1.5l.1-2.8c0-.6.8-1 1.9-.7 3.2.9 2-1.2-4-6.9-6.5-6.3-9.4-8-11.6-7.2-3.2 1.2-.9 6.5 6.2 13.6 6 6.2 7.1 6.8 7.4 4zm-51.2-3.2c0-.6-2-3.5-4.4-6.5a66.7 66.7 0 0 1-11.6-20c0-2-7.2-19.6-7.8-19a87 87 0 0 0 7.6 23.3c3.7 7.6 10 18 13 21.4 1.7 2 3.2 2.3 3.2.8zm56.5-5.3l-.7-2.2 2.3 2c2.5 2.2 2 .8-1.8-4.3a58.2 58.2 0 0 1-5-9c-2.4-5.7-4.9-9.2-6.4-9.2-.4 0-1.4.7-2.3 1.6-1.4 1.3-1.4 2-.1 4.9a94.5 94.5 0 0 0 11.4 16.7c2.3 2.4 3.4 2.2 2.6-.5zm7.1-8.2c3.6 2.3 3.2.1-2-9.6a68.8 68.8 0 0 1-5-11.6c-1-4.3-2.8-5.8-5.5-4.3a6 6 0 0 0-2.6 3.3c-1 4 4.7 18.5 9.4 24 1.5 1.8 1.6 1.7 2.4-.8.9-2.5 1-2.5 3.3-1zm6.5-5.6l2-4-2-4.4c-2.2-4.6-5.6-15-6.6-20.3-.8-4.2-3.1-4-5.8.6-1.7 2.9-1.7 3.8-.7 8.5 1 4.1 9.8 23.7 10.8 23.7l2.3-4.1zm-3.3-2c-1-1.7-1.8-3.6-1.8-4.2 0-.7 1 .6 2 2.7 2.5 4.5 2.3 5.8-.2 1.5zm10-21.5L319 47.1c0-.2-.5 0-1 .3-.7.4-.8 1.1-.4 1.7.4.7.2.8-.5.4-2.2-1.4-3.4 4.5-2.8 13.5.6 9 3.3 18 4.5 14.6.6-1.5 1-1.2 2.6 1.5l2 3.3.6-3.6c.3-2.2-.5-9-2.2-17.5zm15 17.4c-.4-.8-.6-.6-.7.6 0 1 .2 1.7.5 1.3.4-.3.4-1.2.1-1.9zm-9-11c.2 3.8.4 4.2 2.9 4.2h2.6l-.5-11.8c-.5-11.7-1.6-16.2-4.2-16.2-3.2 0-5.4 19.2-3.1 26.5.9 3 1 2.9 1.6-2l.6-5zM163.6 333.3c-.4-1-.6-4-.5-6.8.1-4.6.2-4.7.5-1.2.7 7.4 1.2 8.7 3.6 8.3 2-.3 2.3-1 2.8-6.3.4-5.1.6-5.6 1.3-3.3.5 1.5.4 4.5 0 6.5-.8 3.3-1.4 3.8-4 4.1-2.2.2-3.3-.2-3.7-1.3zm11.5-4.5l-.1-6.5 3.9 4.2c2.1 2.4 4.1 4.3 4.4 4.3.3 0 .7-2.1.9-4.8.3-3.7.4-3.2.5 2.3l.2 7-4.4-5-4.4-5-.4 5c-.4 4.6-.4 4.5-.6-1.5zm13.2-.5c0-3.9.1-5.3.4-3.2.2 2 .2 5.2 0 7-.3 1.7-.5 0-.4-3.8zm5.8 1.8c-.1-3.1-.8-5.8-1.7-6.7-1.5-1.5-1.3-1.6 1.7-1.6 1.9 0 2.8.4 2.1.8-.6.4-1.3 3.4-1.5 6.7l-.4 6zm5.8-1.8v-6.5l3.8.2c3.7.1 3.7.1.5.5-2.7.3-3.3.9-3.3 2.8 0 2 .6 2.4 3.3 2.8l3.2.4-3.2.1c-2.8.2-3.3.6-3.3 2.6s.6 2.5 3.3 2.9c3.2.4 3.2.4-.5.5l-3.8.2zm9.4.2l.1-6.2 3.8.1c5 .2 6.7 1.8 6.7 6.5 0 4.4-1.8 5.9-7.3 5.9H209zm8.4 4.1c3-3 .6-8.2-4-9.4l-2.8-.6v5.6c0 5.5 0 5.6 2.8 5.6 1.6 0 3.4-.5 4-1.2zm10.4-3.8l-.2-6.5 4.3 4.5 4.2 4.5.6-5c.6-4.8.6-4.7.7 2l.2 7-4.4-5-4.4-5-.4 5c-.4 4.7-.4 4.6-.6-1.5zm12.8 5c0-1.2 4.8-11 5.5-11 .6 0 5.6 11.3 5.1 11.7-.2.3-1-.5-1.5-1.6-1.4-2.5-7-3-7-.7 0 .8-.5 1.8-1 2.1-.6.3-1 .1-1-.5zm7-4.8c0-.4-.4-1.3-.9-2-.7-1.2-1-1-2 .7-1 1.8-.9 2.1.9 2.1 1.1 0 2-.3 2-.8zm8.2.1c-.1-3.8-.6-6.3-1.4-6.6-.7-.3.3-.5 2.2-.5 2 0 2.8.2 1.8.5-1.3.3-1.8 1.8-2 6.6l-.4 6.2zm5.8-1c0-3.6.4-6.3.8-5.9 1 1 1.2 11.5.1 12.1-.5.4-.9-2.3-.9-6.1zm5.7 4.9c-3.8-4.3-.6-10.5 5.5-10.5 6 0 8.8 7.5 4 11-2.3 1.9-7.6 1.6-9.5-.5zm9.1-.4c2-2 1.5-6.6-1.1-8.3-5.2-3.4-11.2 3-7.1 7.5 2 2.2 6.4 2.6 8.2.8zm5.4-3.8l-.2-6.4 4.5 4.4 4.5 4.4.2-5 .1-4.9.6 4.5c.4 2.5.5 5.6.2 6.9-.3 2.3-.5 2.2-3.8-1.8a16.3 16.3 0 0 0-4.3-4.1c-.5 0-1 2-1.2 4.2-.3 3.3-.5 2.7-.6-2.2zm13.3 5c-.4-.7-.4-1.4 0-1.7.3-.4.5-.1.5.5 0 .7 1 1.2 2 1.2 2.8 0 2.5-2.8-.5-5.2-1.4-1-2.5-2.8-2.5-3.8 0-2.3 2.7-3.3 4.9-2 1.4 1 1.3 1-.5.5-3.2-.8-3.9 2.1-1 4 2.8 1.9 3.8 3.9 3 6-.7 1.7-5 2-6 .4zm15.2-.8c-3.2-3.6-1.6-9.2 3.2-10.7 2-.6 7.8 1.2 6.9 2-.3.3-1.7 0-3.1-.6-5.5-2.5-10.3 4.4-5.8 8.4 2 2 6.2 2.2 8 .5 1.7-1.8 1.4-2.6-1.1-3.1-2-.4-1.9-.5.5-.6 2 0 2.7.4 2.7 1.7 0 1-.5 2.3-1.2 3-1.8 1.9-8.2 1.5-10.1-.6zm14.3-4.7v-6.5l3.8.2c3.7.1 3.7.1.5.5-2.7.3-3.3.9-3.3 2.8 0 2 .6 2.4 3.3 2.8l3.2.4-3.2.1c-2.8.2-3.3.6-3.3 2.6s.6 2.5 3.3 2.9c3.2.4 3.2.4-.5.5l-3.8.2zm10.2.5v-6.5l3.9 4.5c3.2 3.6 4 4.1 4 2.5.4-9 2-9.7 1.9-1v7l-4.4-4.6-4.5-4.7-.3 4.7c-.3 3.7-.4 3.4-.6-1.9zm12.8-.5v-6.5l3.8.2c3.7.1 3.7.1.5.5-2.7.3-3.3.9-3.3 2.8 0 2 .6 2.4 3.3 2.8l3.2.4-3.2.1c-2.8.2-3.3.6-3.3 2.6s.6 2.5 3.3 2.9c3.2.4 3.2.4-.5.5l-3.8.2zm10 3.7c-.2-3.4-.3-7.6-.1-9.2.2-1.3 3.7-1.3 6.2 0 2.5 1.4 2.5 3.5 0 5.3-1.9 1.2-1.9 1.5-.4 3.6.8 1.2 1.3 2.4 1 2.7-.2.3-1.5-1-2.8-2.8l-2.4-3.3-.6 3.5-.6 3.5zm5.8-5.4c1.5-1.5-.2-3.8-2.9-3.8-1.3 0-1.9.7-1.9 2.5 0 2.7 2.7 3.5 4.8 1.3zm4.3 7.7c0-.6 1.3-3.5 2.8-6.5l2.9-5.4 2.6 5.1c1.4 2.9 2.6 5.8 2.6 6.5 0 .7-.6.3-1.2-1-.7-1.5-2-2.2-3.8-2.2-1.7 0-3.3.8-4.3 2.2-.9 1.3-1.6 1.8-1.6 1.3zm6.9-6.6c-1-1.7-1.4-1.9-2-.8-1.4 2.2-1.1 2.9 1 2.9 1.8 0 2-.3 1-2.1zm7.2.3l.2-6.7.4 6.2c.3 5.8.5 6.2 3 6.6 2.5.4 2.4.4-.5.5l-3.3.2zm13 5.8c0-.8 1.2-3.9 2.7-6.8l2.7-5.4 2.7 6.3c2.6 6 3.1 9.3.8 5-1.5-2.8-5.4-2.7-7.4.1-1 1.6-1.6 1.8-1.6.8zm6.8-4.4c0-1.5-1.3-3.5-2-3-1.5.9-1.1 3.4.5 3.4.8 0 1.5-.2 1.5-.4zm6.5 4.4c-.4-.6-.4-1.4 0-1.7.3-.4.5-.1.5.5 0 .7 1 1.2 2 1.2 2.8 0 2.5-2.8-.6-5.7-2.7-2.5-2.7-4 0-5.7 1.1-.8 2-.7 2.8.3 1.1 1.2 1 1.3-.5.8-3-1.1-3.2 2.1-.2 4.4 3.4 2.8 3.1 6.3-.6 6.7-1.5.2-3-.2-3.4-.8zm9.1.1c-.3-.4.6-.6 2-.3 3.2.6 3.2-1.7 0-4.8-2.9-2.7-3.2-4.2-1.2-5.9 1.5-1.2 4.6-.5 4.6 1.1 0 .6-.6.5-1.5-.2-1.2-1-1.8-1-2.7-.1-1 .9-.5 1.9 2 4.2 2 1.9 3.1 3.7 2.8 4.6l-.6 1.9c0 .8-4.9.4-5.4-.5zm9.4-5.6v-6.5l3.8.2c3.7.1 3.7.1.5.5-2.7.3-3.3.9-3.3 2.8 0 2 .6 2.4 3.3 2.8l3.2.4-3.2.1c-2.8.2-3.3.6-3.3 2.6s.6 2.5 3.3 2.9c3.2.4 3.2.4-.5.5l-3.8.2zm9.7.5c.3-3.6.7-6.6.8-6.8.1 0 1.2 2 2.5 4.8 1.3 2.7 2.7 5 3 5 .4 0 1.5-2 2.5-4.5s2-4.5 2.5-4.5c.8 0 2.4 11 1.6 11.7-.2.3-.8-1.5-1.3-3.9l-.9-4.3-1.9 4.2c-1 2.4-2.2 4.3-2.5 4.3-.4 0-1.5-1.9-2.5-4.2l-2-4.1-1.1 4.4c-1.3 4.4-1.3 4.4-.7-2.1zm16.3-.5c0-5.8.2-6.5 2-6.5 2.5 0 5.3 2.9 4.6 4.7-.3.7 0 2.2.6 3.3 1.6 2.5-.5 5-4.3 5-2.9 0-2.9 0-2.9-6.5zm5.8 3.2a2.8 2.8 0 0 0-2.5-2.5c-1.9-.3-2.3.1-2.3 2.2s.5 2.6 2.6 2.6c2 0 2.5-.4 2.2-2.3zm-1.3-6.2c0-1-.8-2.1-1.7-2.3-1.3-.3-1.8.3-1.8 2.3 0 2 .5 2.6 1.8 2.3 1-.2 1.7-1.2 1.7-2.3zm5.7 2.7l.2-6.7.4 6.2c.3 5.8.5 6.2 3 6.6 2.5.4 2.4.4-.5.5l-3.3.2zm12 4.5c-.1-1.5-1-4.7-2.2-7l-2-4.2 2.4 2.9 2.4 2.9 1.8-2.7c1-1.5 2-2.4 2.2-2.2.3.3-.3 1.8-1.3 3.3-1 1.5-2.2 4.4-2.6 6.3-.6 3.1-.7 3.2-.8.7zm-425-3.3a214 214 0 0 0-20.4-27.2c-18.5-22-24-34.4-28.2-62.6-2.9-19-1.2-40 4.4-55.7l1.9-5.4V189c.1 13.7 2.1 21.3 10.7 41 13.2 30.4 12.9 29.4 20 59.4 1.4 6.1 3 11.7 3.6 12.5.7 1.1.8.9.4-1a253 253 0 0 1-2.1-10.5c-3.7-20 3.7-43.7 23-73.9a86.6 86.6 0 0 0 7.2-14.6c1.5-4.3 3.2-7.6 3.7-7.3 2.3 1.5-3.6 43.5-8.8 62.3l-8.2 28.5-4.8 16v15.2c0 8.4-.2 15.3-.6 15.3-.4 0-1.2-1.2-1.8-2.6zm539.3-17.9c0-16.5 0-17.3-3.1-26-12.5-36-20.4-73-19.5-92 .2-4 .2-3.9 3.5 4.2 3.3 8.2 5.6 12.4 18 32.8 13.5 22.2 17.2 39 13 59-1.8 8.6-1.3 11.5.6 3.3 8.4-36.4 9.4-39.7 16.8-55.8 10.4-22.4 13.4-33 14.1-49.5l.7-14 2.6 8.5c4.4 14 5.2 19.7 5.2 35.5 0 17.1-1.8 29-6.6 43-4.4 13-7 17.5-17.6 31.5l-18.6 24.5-9.1 12zM164.8 305c0-1.2 3-2.3 4.1-1.5.5.3.7 1 .4 1.5-.8 1.2-4.5 1.2-4.5 0zm-130-62.3c-.6-4-3.7-14-6.7-22.3-12.5-34.4-12.5-34.4-13-51.3a91 91 0 0 1 10.5-51.7c3.5-6.9 14.6-23.5 15.8-23.5.2 0-1 3-2.6 6.5a67.2 67.2 0 0 0-4.1 13.3c-1.4 8-.7 25.7 1.8 42.7 1.8 12.7 2 30.4.6 46.8-.5 5.4-.5 10-.2 10.3.4.2 1.2-3 1.8-7 2.8-19 10.8-30.6 40.6-58.6 4.3-4.1 9.2-9.5 10.8-12l2.9-4.5-.7 4c-1.2 7.7-5.7 22-9 29.4-3.7 7.8-9.7 17.4-23 36.1-13.4 18.8-18.8 29.1-22.4 42.8l-1.7 6.3zm568.6-4.6c-3.1-12.7-9.9-24.2-30.3-51.6-6-8-12.8-18.5-15.2-23.3-4.6-9.2-11.1-28-11-31.7v-2.1l1.7 2 4.7 5.9c1.7 2 6.6 7 11 10.8 28.8 25.4 34.2 33 38.2 53.8.6 3 .8-3.1.5-17.1-.3-13.9 0-27 1-36.5 2.5-27.5 1.2-42.2-4.7-53.7-3.5-7-1.4-5.5 5.5 3.8 15.2 20.1 22 43.2 20.7 70-.6 13.5-3 23.8-9.5 40.1-3.8 10-9.2 29.2-9.2 33.2 0 4.7-1.8 2.7-3.4-3.6zm1.1-30.4c-.3-.8-.5-.6-.6.6 0 1 .2 1.7.5 1.3.4-.3.4-1.2.1-1.9zm-161.7 13.7c0-1.6.6-2.5 1.5-2.5.8 0 1.5.7 1.5 1.6 0 .8-.4 1.2-1 .9-.5-.3-.7 0-.4 1 .4.8.1 1.5-.5 1.5s-1-1.1-1-2.5zM418 213c-2.2-1.4.4-2.4 4.1-1.5 2.8.6 3 .8 1.2 1.5-2.6 1-3.7 1-5.3 0zM306.8 201c-.8-.5-1-1-.5-1a6 6 0 0 1 2.5 1c.8.5 1 1 .5 1a6 6 0 0 1-2.5-1zm6-3.5a6 6 0 0 1 1-2.5c.6-.8 1-1 1-.5a6 6 0 0 1-1 2.5c-.5.8-1 1-1 .5zm-102.6-3.3a11 11 0 0 1-3.4-6.7c0-1.2.8-1.6 2.8-1.3 2.4.3 2.8.7 3 4.5.3 4.2-.2 5-2.4 3.5zm100.4-1.9c.7-.2 1.8-.2 2.5 0 .7.3.1.5-1.3.5-1.4 0-2-.2-1.2-.5zm-265.2-30c.4-4.9.2-16-.4-24.8-2.4-35.4 2.8-53.6 20-70a63.3 63.3 0 0 1 21.8-14c2-.6 1.4.4-3.4 5.6a60.2 60.2 0 0 0-8.7 12.4C73 74.8 69.7 87 66.8 99c-2.7 11.8-6.6 26.1-8.6 31.8-2 5.6-3.4 10.5-3.2 10.8.3.2 1.1-1 1.9-2.8a81 81 0 0 1 13.7-19.2 218 218 0 0 1 19.7-16c15.5-11.6 24.1-20 27.6-26.8 1.2-2.2 2.3-3.8 2.6-3.5 1 1-2.7 15.7-5.5 21.9-6.6 14.3-18.9 28.2-37.2 42.1-10.3 8-22.4 20-27.3 27.4a27.2 27.2 0 0 1-4.9 6.3c-.4 0-.5-4-.2-8.8zm545.8 0a146.8 146.8 0 0 0-27.8-27.8c-18.7-14.3-27.1-22.3-33.8-32A91 91 0 0 1 518.4 74l-.6-4.5 2.1 4c3.6 6.6 15.6 17.6 29 26.5a99.4 99.4 0 0 1 36.5 39 310.6 310.6 0 0 1-13.6-44.5c-6-23.6-9-30.3-17.2-39-3.4-3.7-5.4-6.5-4.5-6.5.8 0 4.7 1.6 8.7 3.6a69.7 69.7 0 0 1 34.6 45.6c1.2 5.8 1.4 13.4 1.2 38-.1 17-.3 30.8-.4 30.8l-3-4.8zm-233.4-17.7c0-.4 1.4-.6 3-.4 1.6.2 3.2 0 3.4-.6.3-.6.5-.3.5.6.1 1.3-.7 1.6-3.4 1.5-1.9-.1-3.5-.6-3.5-1zm-284-39.2a931.6 931.6 0 0 0 7.4-24.4c3-9.9 9.8-21.8 17-29.7a96.3 96.3 0 0 1 24.3-17.6c7-3.6 25.4-10.9 26.4-10.5.5.2-2 3.2-5.4 6.8a165.2 165.2 0 0 0-14 16.5l-10.3 14.2c-5.2 7.3-12 15.8-15.2 19a325 325 0 0 1-30.2 25.7zm483.5-8.6c-11.4-8.5-34-32-43.5-45.3A230.6 230.6 0 0 0 496 29.7c-5.2-5.4-9.2-10-9-10.2.7-.7 20.2 6.8 29 11 22.2 10.8 35.9 28 44.5 56 4.7 15.4 4.7 15.4 4.3 15.4-.2 0-3.5-2.4-7.4-5.2z"/>
</symbol>
</svg>
