<svg xmlns="http://www.w3.org/2000/svg" width="589.8" height="487.8">
  <path d="M227.9 486.2c-1.5-.9-2.8-1.9-2.8-2.3 0-1.2 13.9-14.3 20.7-19.4a213 213 0 0 1 29.2-18l6.6-3.3-6-.3c-8.3-.4-24.8 3.1-44.3 9.5a196.4 196.4 0 0 1-43.1 10.9 150.4 150.4 0 0 1-55.4-3.1c-6.3-1.6-12.7-5.4-12.7-7.6 0-.5 4-.9 8.8-.9 12.2 0 18.4-1.2 35.7-6.9 24.3-8 38.6-10.6 71-13.1 13.9-1 17.8-1 29.5.4 7.5 1 17.5 2.6 22.3 3.8 8.3 2 9 2 15 .5 18.5-4.8 35-6.2 54.1-4.7a245 245 0 0 1 67.6 12.4c19.6 6.5 21.3 6.9 35 7.5l12.5.6-3 3c-3.7 3.5-12.2 6-27.8 8.1-24.4 3.3-47 .6-74.8-8.9-24.7-8.3-40.8-12-50.5-11.5l-5.9.3 9.5 4.9a184 184 0 0 1 29.5 19c6.6 5.2 17.5 15.9 17.5 17 0 .4-1.6 1.4-3.6 2.2l-3.5 1.5-10.2-10a134.5 134.5 0 0 0-35.2-26.5c-13.7-6.8-17-7.4-25.2-4.8-14.4 4.7-30.6 15.8-48.2 33a88.5 88.5 0 0 1-9 8.2c-.3 0-1.8-.7-3.3-1.5zm-101.3-55C109.6 427 92.3 418 81 408c-5-4.5-12.6-14.8-11.6-15.7.3-.3 3.6 1 7.4 2.8 8 4 17.1 7 26.3 8.7 19.3 3.6 36 7.5 51.2 12 22.1 6.7 24 6.4 11.6-1.8-5.2-3.4-12.8-9.5-16.7-13.4-9.8-9.7-11.6-13.4-20-41.4-1.7-5.5-4-11.3-5.2-12.8-1.1-1.4-1.8-3-1.5-3.3 2.2-2.2 15.8 9.2 30.4 25.7 14.1 15.9 13.8 15.5 19 25 5.5 10.3 7.7 13.7 14.3 22 6.3 7.8 6.3 7.8-9.2 11.5-23 5.5-39.4 6.8-50.4 4zm306.5.3c-8-1.3-31.2-6.9-33.2-8-2.1-1-1.5-2.4 3.7-8.3 4.8-5.3 9.5-12.4 14.8-22.4a180 180 0 0 1 31.4-38c8.7-8.1 15.7-13 16.9-11.8.3.3-.8 3.1-2.5 6.4-1.6 3.2-4.6 11.5-6.6 18.3-2 7-5 15.5-6.8 19a77.1 77.1 0 0 1-26.4 26.6c-5 3.3-9.2 6.3-9.2 6.7 0 1.4 3.9.7 13.2-2.1 25.1-7.8 30.6-9.2 52.7-13.2 13.8-2.5 21.3-4.7 31-9.4 4-2 7.6-3.3 7.8-3.1 1 1-5.3 9.7-10.5 14.7a105 105 0 0 1-47 24.4 92 92 0 0 1-29.3.2zm-208.3-13.4c-.4-.4-.7-3.5-.7-7v-6.4h5c3.7 0 5 .4 5 1.5 0 .8-1.1 1.5-2.5 1.7-3.3.4-3.3 2.2 0 2.7 3.3.4 2.8 2.6-.6 2.6-1.8 0-2.4.7-2.7 2.8-.3 2.6-2 3.6-3.5 2zm13.6-1c-3-2-3.1-8.3-.4-10.7 4.4-4 11.2-.7 11.1 5.3 0 3-.8 4.4-3.7 5.9-2.9 1.5-4.4 1.4-7-.4zm6.5-4.9c.3-2.8-1.3-4.9-3.2-4.1-1 .3-1.6 1.8-1.6 3.7 0 2.6.4 3 2.3 2.8 1.3-.2 2.3-1.2 2.5-2.4zm7 5.9a22 22 0 0 1-.8-7v-6.4h4c6.7 0 7.7 1 7.6 7.7-.1 4.4-.5 5.8-1.6 5.8-.8 0-2-1-2.5-2.2-1.2-2.9-3.2-3-3.7 0-.3 2.2-1.9 3.3-3 2zm6-10c-1-.9-2.9.6-2.2 1.8.4.7 1 .7 1.7 0 .6-.6.8-1.4.5-1.7zm12 10a22 22 0 0 1-.8-7v-6.4h4.4c2.4 0 4.8.6 5.4 1.3 1.6 2 1 12.2-.7 12.2-.8 0-1.7-1-2-2.3-.7-3-2.4-3-3.1 0-.6 2.3-2.1 3.4-3.3 2.2zm5.4-8.9c0-.5-.5-1-1.1-1.3-.6-.2-1 .4-1 1.3 0 1 .4 1.5 1 1.3.6-.2 1-.7 1-1.3zm7.6 9a21 21 0 0 1-.8-7.1v-6.4h5c3.8 0 5 .4 5 1.5 0 1-1 1.5-2.4 1.5s-2.7.5-3 1c-.4.6.6 1 2.4 1 2 0 3 .5 3 1.5s-1 1.5-2.4 1.5-2.7.5-3 1c-.4.6.6 1 2.3 1 2.9 0 5 1.5 3.8 2.7-1 1-9.1 1.6-10 .8zm12.1-.1l-.4-7.1-.3-6.3h5.4c4.2 0 5.4.4 5.4 1.5 0 1-1 1.5-3 1.5-3.6 0-3.7 2.3 0 2.9 2.6.3 2.2 2.6-.5 2.6-1.2 0-2.1 1-2.5 2.5-.5 2.3-3.8 4.2-4.1 2.4zm13.1-1.4c-1.4-1.4-2-3.3-2-7 0-4.6.2-5 2.5-5 2.4 0 2.5.4 2.5 5 0 3.8.4 5 1.5 5 1.2 0 1.5-1.2 1.5-5 0-4.3.3-5 2-5 1.8 0 2 .7 2 5.4 0 3.9-.5 5.8-1.8 7-2.5 2.2-5.7 2-8.2-.4zm14.6.5c-1.4-1-2-2.7-2-5.5 0-2.7.6-4.4 2-5.4 2.3-1.8 7.6-2 9.2-.4 2.1 2.1 1.3 3-2.5 2.6-3.6-.3-3.8-.1-4 3-.4 2.8 0 3.2 1.9 3.2 1.7 0 2-.2 1-1.2-2-2-1.4-2.8 1.8-2.8 2.8 0 3 .3 3 3.4 0 3-.3 3.5-3.1 4-4.3.9-5 .8-7.3-1zm13.3.8l-.3-7-.2-6.3h5.3c4 0 5.3.4 5.3 1.5 0 1-1 1.5-3 1.5-1.6 0-3 .5-3 1 0 .6 1.2 1 2.5 1 1.6 0 2.5.6 2.5 1.5 0 1-1 1.5-2.4 1.5s-2.7.5-3 1c-.4.6.8 1 2.9 1 4 0 5 2.4 1.3 3.4-3.2.8-7.7.8-8-.1zm12.8 0c-.4-.3-.7-3.4-.7-7v-6.3h5c3.8 0 5 .4 5 1.5 0 1-1 1.5-2.4 1.5s-2.7.5-3 1c-.4.6.6 1 2.4 1 2 0 3 .5 3 1.5s-1 1.5-3 1.5c-1.6 0-3 .5-3 1 0 .6 1.4 1 3 1 3.3 0 4.2 2.4 1.4 3.4-2 .8-6.9.8-7.7 0zm13-.3c-.9-.6-1.7-1.8-1.7-2.6 0-1.5.7-1.5 4.7-.2.6.2 1.2-.1 1.3-.7 0-.5-.8-1.2-2-1.5-3.2-.7-4.8-3.5-3.4-5.7 1.4-2.1 7-2.9 9-1.2 2.5 2 1.6 3.2-2 2.5-2-.4-3.6-.4-3.6-.1 0 .3 1.6 1.2 3.5 2 2.7 1 3.5 2 3.5 4 0 3.9-5.2 5.8-9.2 3.5zm-172.1-26.5c-1-5.2.2-9.5 2.5-9.5 1.4 0 2 .7 2 2.5 0 3.2 2.7 3.4 3.1.3a2.8 2.8 0 0 1 2.6-2.6c2.1-.3 2.2 0 2.2 6.3s0 6.7-2.2 6.4c-1.5-.3-2.3-1-2.3-2.4 0-1-.8-2-1.7-2.3-1.3-.2-1.8.4-1.8 2.3 0 1.8-.5 2.5-1.9 2.5-1.3 0-2-1-2.5-3.5zm14.4-3c0-6.3.1-6.5 2.6-6.5s2.5.2 2.3 6.5c-.2 6.1-.3 6.5-2.5 6.5s-2.4-.3-2.4-6.5zm7.6 4.3c-4.5-6.3 2.7-14.5 9-10.3 3.8 2.4 3 3.8-1.6 3l-4-.6v3.5c0 3 .4 3.6 2 3.6 1.1 0 2-.4 2-1 0-.5-.4-1-1-1-.5 0-1-.6-1-1.5 0-1 1-1.5 3-1.5 2.9 0 3 .3 3 4v4h-5c-3.9 0-5.2-.4-6.4-2.2zm13.8-4c.1-5.7.3-6.3 2.4-6.6 1.8-.2 2.2.2 2.2 2.3 0 1.6.6 2.5 1.5 2.5 1 0 1.5-1 1.5-2.5 0-2.1.4-2.5 2.3-2.3 2 .3 2.3 1 2.5 6.6.3 6 .3 6.2-2.2 6.2-2 0-2.6-.5-2.6-2.5 0-1.5-.5-2.5-1.5-2.5-.9 0-1.5 1-1.5 2.5 0 2-.5 2.5-2.3 2.5-2.2 0-2.4-.3-2.3-6.2zm20.3 4.4c-1.7-1.9-2.2-6.8-1-8.8a7 7 0 0 1 8.4-2.3c4.3 1.8 3.8 4-.8 3.7-3.6-.3-3.8-.1-3.8 2.7 0 2.9.2 3 3.8 2.7 3.8-.3 4.6.5 2.5 2.6-1.8 1.9-7.2 1.5-9.1-.6zm13.9-.4c-4.6-6.5 3.4-14.9 9.4-10 2.7 2.2 3.2 8 1 10.8-2 2.3-8.6 1.9-10.4-.8zm7.2-4.5c.3-2.7 0-3.3-1.6-3.3-2.3 0-3.3 2-2.5 5 .9 3.3 3.8 2.1 4.1-1.7zm7.4 0c.3-5.1.7-6.6 2-6.8 2.3-.4 3.4.6 4.6 4 .9 2.5 1 2.6 1.1.9.2-3 2.7-5.3 5.1-4.7 1.8.5 2 1.4 2 7 0 5.7-.2 6.3-2 6.3-1.6 0-2-.7-2-4.2l-.2-4.3-1 4.3c-.8 3-1.6 4.2-3 4.2-1.2 0-1.8-.7-1.8-2.2 0-1.8-.2-2-1-.8-.4.8-.6 1.8-.3 2.2.2.5-.5.8-1.7.8-2 0-2-.4-1.8-6.6zm16.8.3c0-6.8.8-8 4.8-6.5 1.3.5 2.2 1.7 2.2 2.9 0 1.1.5 2 1 2 .6 0 1-.8 1-1.8 0-2.4 2.6-4.6 4.5-3.8 1.2.4 1.5 2.2 1.5 7.1 0 5.8-.2 6.5-1.9 6.5-1.3 0-2-.8-2.4-2.7l-.4-2.8-.1 2.8c-.2 4.1-3.8 3.7-5-.5l-1-3.3v3.3c-.2 2.5-.6 3.2-2.2 3.2-1.8 0-2-.6-2-6.4zm18 0c0-5.9.2-6.6 2-6.6s2 .7 2 6.5c0 5.9-.2 6.5-2 6.5s-2-.6-2-6.5zm7.2 5.2c-2.1-2.1-1.2-3 2.3-2.3 4.4.8 4.5-.5.3-2.5-4-1.8-4.6-4.4-1.5-6.4 2-1.3 3-1.4 5.6-.5 1.7.6 3.1 1.8 3.1 2.5 0 1.6-2.5 2-3.5.4-.7-1.2-2.5-1.3-2.5 0 0 .4 1.4 1.3 3 2 3.4 1.4 4.8 4.4 3 6.6-1.5 1.7-8.1 2-9.8.2zm13 0c-2.1-2.1-1.2-3 2.6-2.4 3.5.6 3.6.6 1.8-.8a7 7 0 0 0-3.2-1.6c-1.1 0-2.4-2.1-2.4-4 0-.5 1.2-1.7 2.5-2.6 2.1-1.3 3-1.4 5.5-.4 1.7.7 3 1.6 3 2.1 0 1.5-2.1 2.2-3.3 1-1.4-1.3-2.7-1.4-2.7 0 0 .5 1.3 1.5 2.8 2 4.3 1.7 5.2 3.8 2.7 6.4-1.9 1.8-7.6 2-9.3.3zm12-5.1c0-6.5 1-8.4 3.7-6.7.8.5 1.1 2.8 1 6.6-.3 5.3-.6 6-2.6 6.3-2.1.3-2.2 0-2.2-6.2zm8.7 5.3c-4-2.3-2.9-10.3 1.7-12 7-2.6 12.2 4.6 7.9 10.8-1.7 2.4-6.6 3-9.6 1.2zm6.7-3c1.2-2-.5-6-2.6-6-1.5 0-2 .7-2 2.9 0 1.5.3 3.1.7 3.5 1 1 3.1.8 3.9-.4zm6.4-2.3c0-3.5.3-6.6.6-6.9 1.2-1.2 4.6.6 5.9 3.1l1.4 2.6.7-2.7c.3-1.5 1.3-2.8 2-2.8 1 0 1.4 1.6 1.4 6.5 0 6.2 0 6.5-2.3 6.5-1.8 0-2.8-.9-4-3.7l-1.5-3.8v3.8c-.2 3-.5 3.7-2.2 3.7-1.8 0-2-.6-2-6.3zm15-.2v-6.5h5c3.8 0 5 .4 5 1.5 0 1-1 1.5-3 1.5-1.6 0-3 .5-3 1 0 .6 1.4 1 3.1 1 3.8 0 3.5 2.4-.4 2.9-3.7.4-3.4 2.1.3 2.1 2 0 3 .5 3 1.5 0 1.2-1.2 1.5-5 1.5h-5zm12 0v-6.5h5c5.8 0 6.2.6 6.4 7.9 0 4-.2 4.7-2.1 5-1.9.2-2.3-.2-2.3-2.4 0-3.2-2.3-2.9-2.8.4-.2 1.3-1 2.1-2.2 2.1-1.7 0-2-.7-2-6.5zm7-2.5c0-.5-.4-1-1-1a1 1 0 0 0-1 1c0 .6.5 1 1 1 .6 0 1-.4 1-1zm-278.6 6c-1.2-.4-8.7-2.2-16.5-3.8-23.5-4.7-37.2-11.5-50.6-24.8-14.3-14.3-25.2-34.5-25.3-46.8v-3.9l12.3 12c7 6.8 15.6 14.2 20.2 17.1a160.7 160.7 0 0 1 28.9 22.9c12 11.3 20.6 16 20.6 11 0-.6-2.6-6.7-6-13.6-3.3-7.2-7-16.8-8.4-22.6-2.8-10.8-5.4-37-4.2-41.8l.7-2.8 3.3 4.3a139 139 0 0 1 23.7 47.3c1 5.6 6 42.4 6 45 0 1.7-1.4 1.9-4.7.5zm348-2c.3-1.6 1.5-10.7 2.6-20.2 3.2-26 5.8-36.2 12.2-47 1.5-2.7 2.8-5 2.8-5.3 0-.5 7.5-12.6 9.2-15l3.9-4.5 3-3.5-.5 15.5c-.7 22.3-3.2 32.7-12.8 53-3.2 6.8-5.6 13-5.3 13.8.6 1.7 5 .7 9.1-2.2 1.7-1.1 7.8-6.5 13.5-12 6.3-6 15.6-13.2 23.4-18.4 9.3-6.2 16-11.8 24.3-20 6.3-6.2 11.7-11 12-10.7.3.3 0 3.2-.5 6.4a91.7 91.7 0 0 1-75.3 68.2 213 213 0 0 0-15.6 3.4c-6.8 2-6.7 2-6-1.5zm-242.1-19.1c-1.5-1.5-1.7-11.9-.3-11.9.5 0 1 2.4 1.2 5.3.3 4.8.5 5.2 2.8 5.2s2.6-.4 3-5.5c.5-4.8.7-5.1 1.4-2.7.5 1.5.4 4.4 0 6.5-.8 3.2-1.4 3.8-4 4-1.5.2-3.4-.2-4.1-1zm11.7-5.4c0-3.5.2-6.5.5-6.5.2 0 2.3 2 4.5 4.3l4 4.2V363c0-2.4.5-4.3 1-4.3.6 0 1 2.7 1 6s-.4 6-1 6a15 15 0 0 1-4.4-3.7l-3.5-3.8v4.3c0 2.3-.5 4.2-1 4.2-.6 0-1-2.8-1-6.5zm14 6.2l-.2-3.2c0-7 .3-9.5 1.1-9.5 1.1 0 1 11.6-.2 12.7-.4.3-.7.4-.8 0zm7.1.3c-.1-.2-.4-2.9-.5-5.8-.2-3.2-.9-5.7-1.7-6.3-1-.5 0-.8 2.6-.8 3.3 0 3.7.1 2.3 1.2-1.1.8-1.8 3.1-2 6.7a17 17 0 0 1-.7 5zm6-6.5v-6.5l4.2.2c3.7.1 3.8.2 1 .6-2.4.3-3.3.9-3.3 2.3 0 1.5.7 2 3 2 1.7 0 3 .4 3 1 0 .5-1.4 1-3 1-2.6 0-3 .3-2.8 2.2.2 1.5 1.2 2.4 3.3 2.9 2.7.5 2.6.6-1.2.7l-4.3.1zm10 0v-6.5h4.4c3.4 0 4.8.5 6 2.3 3.6 5.2.3 10.7-6.5 10.7h-4zm9.4 1c.8-2.3.6-3-1.4-4.6a8.5 8.5 0 0 0-4.2-1.9c-1.6 0-1.9.8-1.9 5 0 3 .5 5 1.3 5.3 2.3.8 5.2-1 6.2-3.7zm10.5-1c0-3.5.4-6.4.8-6.4s2 1.8 3.7 4c1.7 2 3.4 3.9 3.8 3.9.4 0 .7-1.8.7-4s.5-4 1-4c.6 0 1 2.7 1 6s-.4 6-1 6a15 15 0 0 1-4.4-3.7l-3.5-3.8v4.3c0 2.3-.5 4.2-1 4.2-.6 0-1-2.8-1-6.5zm14 5.8c0-1.5 5.2-12.3 6-12.3a26 26 0 0 1 3.3 6.2c2.8 6.3 2.8 9.2 0 5-.8-1.2-2.4-2.2-3.5-2.2-1 0-2.8 1-3.8 2.3-1 1.2-2 1.7-2 1zm7-6.3c0-.5-.4-1-1-1a1 1 0 0 0-1 1c0 .6.5 1 1 1 .6 0 1-.4 1-1zm9.8 6.5c-.4-.5-.8-3.2-.8-6 0-4.2-.3-5.4-1.7-5.8-1-.2.3-.4 2.7-.4 2.5 0 3.8.2 2.8.4-1.3.4-1.7 1.8-2 6.5-.1 3.3-.6 5.7-1 5.3zm6.2-6c0-4.2.4-6.4 1-6 1.2.7 1 11.5-.2 12.2-.4.2-.8-2.5-.8-6.2zm5.6 4.3c-3.5-5-.7-10.8 5.3-10.8 6.3 0 9.2 5.6 5.6 10.8-1.2 1.7-2.6 2.2-5.5 2.2s-4.3-.5-5.4-2.2zm9.7-1.9c1.5-2.4 0-6.5-2.5-7.2-4.8-1.3-8.9 4.8-5.5 8.2 1.6 1.6 6.8 1 8-1zm5.7-2.6v-6.7l4.5 4.4 4.5 4.5v-4.3c0-2.3.5-4.2 1-4.2.6 0 1 2.9 1 6.5s-.2 6.5-.4 6.5-2.2-1.9-4.5-4.2l-4-4.3v4.3c0 2.3-.5 4.2-1 4.2-.6 0-1-2.9-1-6.7zm14 5.2c-1.3-1.6-1.1-1.7 1.8-1 4 .9 4.3-.8.7-3.7-3.2-2.5-3-6.1.4-6.6 2.5-.4 5 1.3 3.8 2.5-.4.4-1.2.2-1.9-.5-.6-.6-1.5-1.2-2-1.2-1.6 0-.7 2.8 1.8 5 3.2 3.1 2.9 6.4-.7 6.8-1.5.2-3.1-.4-4-1.3zm-197-25c-4.6-.6-10-1.7-12-2.2l-3.5-.9-1.1-16.4c-.7-9-2.4-27-3.8-40-3.7-34.7-5.9-75.9-6-115v-34.5l2.7-5.5c7.1-14.6 33.8-41.7 75.2-76.5 8.9-7.4 6.7-5.4 24.7-23 16.8-16.3 18.7-18 26.8-24.1 13.3-10 19.3-9 19.3 3.1 0 13.2-10.5 29.5-29.3 45.6a321.7 321.7 0 0 1-22 17.5 35153 35153 0 0 0-22.7 17.1l-3.5 3a91 91 0 0 0-20.8 32.3c-4.6 13.5-3.2 32.2 2.5 33.6 7.2 1.8 12.3-6 20.6-31.6 9.7-29.9 15.3-39.2 25.3-42.2 3.6-1 4-1 5.7 1.3 7 9 5.1 23-7.5 58-3 8-6.7 20-8.4 27-12.7 51.6-13.8 55.3-20.7 69-8 15.7-7.8 14.6-8.2 58.4-.1 21.5-.5 40-.8 41.2-1.1 5-16.6 7.4-32.5 4.9zm107.5.2c-1.8-1.4-2-3-2.5-24.8l-.5-23.4-6.5-.5c-7.9-.7-9.4-1.4-10.8-4.6-.8-1.7-1.2-20.9-1.2-66.7 0-71.4 0-71.3 6.5-78.5 2-2.1 7-5.8 11.5-8.2 13.3-7.1 15-12.4 7.6-24.3-2.4-4-5-9.3-5.6-12-2.5-10 1.2-25.5 7.2-29.8 4.4-3.1 13.2-4.4 20.3-2.9 10.8 2.3 15.5 10 15.5 25.6 0 7.4-1.8 12.9-6.7 19.8a25.9 25.9 0 0 0-4 8.2c-.8 4.9 2.9 10.7 8.6 13.6a46 46 0 0 1 16.1 11.5c5 7.3 5 6.5 5 77 0 64.7 0 66.4-2 68.3-2.2 2.3-4.4 3-11.5 3.3l-5 .2-.5 23.7c-.2 13-.8 24-1.3 24.5s-9.2 1-19.5 1.1c-15.2.3-19 0-20.7-1.1zm124.8.3c-5.7-1.2-8.2-2.6-9.3-5.7-.6-1.5-1-16.7-.7-38.7.3-39-.4-45.6-5.4-55-7.6-14-11-23.8-17.5-50.6-8-33.2-9.4-38-15-52.8-10.3-27.5-13-45-8.4-54.2 2.3-4.4 3.8-4.8 9.2-2.5 7.8 3.3 13.2 12.4 21 35.8 7.4 22 10.8 30.1 14.3 33.9 3 3.2 7.1 4.6 9.4 3.2 4.6-3 5.8-20.5 2-31.4-7-20.8-15.2-31-38.4-48-33-24-49-39.2-56-53-4.8-9.4-5.8-20.4-2.1-24.6 3-3.5 5.1-3 14.8 3.6 9.2 6.2 10.2 7 28.3 24.9 8.3 8 22.9 21.4 32.5 29.6 38 32.5 60 55 67.5 68.7 2.6 4.7 3 6.4 3.5 18.8 1.4 29-1.8 97-6.5 140a650.6 650.6 0 0 0-3 36.5c-.8 18.5-.7 18.1-5.2 19-18.5 3.3-27.4 4-35 2.5zm-331.2-19a83.8 83.8 0 0 1-30.6-21.4 108.6 108.6 0 0 1-29-50.4c-3.7-14.7-3-16.5 2.4-7.2 3.4 5.7 8.5 11.5 20.6 23.5a298 298 0 0 1 21.3 23 499 499 0 0 0 6 8l2.7 4.2c1 1.8 2.3 3 2.7 2.7 1.4-.9 1-4-1.7-9.8-4.8-10.8-4.3-35.5 1-54 1.3-4.4 2.6-9.9 3-12 1.4-9 1.5-9 3-7 3.2 4.8 6.8 20.4 8.6 38a176 176 0 0 1-2.5 48.4L74 327.5c0 .5-2.6 0-4.9-.8zm443.4-16.2c-2.5-14.3-3-19.8-2.9-32.3.2-22.1 5.2-48.5 10-52.5 1.2-1 1.4-.7 1.4 2.2 0 1.8 1.2 7.4 2.5 12.3 3.7 13.1 5.5 25.7 5.5 37 0 11-.7 15.2-3.9 23.8-1.3 3.7-1.8 6.4-1.3 7.3.7 1.2 2-.1 5.6-5.5 2.5-3.9 5.7-8.3 6.9-9.7 6.7-8 11.5-13.1 23.9-25.4 9.3-9.2 15-15.6 17.7-20.4 3.7-6.2 4.1-6.6 4.1-4 0 10-5.7 26.2-14.5 40.9-9 15-22 28.8-33.7 35.7-5.3 3-15.6 7.8-17 7.8-1 0-2.2-5.2-4.3-17.2zm-472-53.9a95.6 95.6 0 0 1-15.8-17 151 151 0 0 1-19.1-36.9 89.2 89.2 0 0 1-5-40.8c.9-4.1 1.7-4 3.3.6 1.8 5.2 6.5 14.3 11.5 22.1 7.1 11.2 13 25.2 19.1 46.3 1.5 4.8 3.5 9.8 4.5 11l2 2.3v-5.6c0-11 6-33.9 10.5-40.9l6.9-12c5-9.6 8.1-13.8 9.1-12.8.4.4 1.2 4.2 1.8 8.4 2.2 16-1.8 30.2-15.3 53.4-4 7-5.2 10.2-7 19.3-.6 3.1-1.5 5.7-1.9 5.7-.4 0-2.5-1.4-4.7-3zm502.6.9c-.4-1.3-1.2-4.3-1.6-6.8a62 62 0 0 0-8.8-20.9c-10.5-17.3-14.2-31.6-12.4-48.2.5-4.6 1-8.5 1.3-8.8 1.3-1.3 9.2 11.4 18 29a96 96 0 0 1 8.2 31.7c.3 5 .9 9.2 1.3 9.2 1.6 0 3.8-4.5 5.9-12.2 3.5-13.3 13-35.8 19.5-46.8a91.7 91.7 0 0 0 11.5-23.3c0-3.8 2-1.2 3 4 2.4 11.2-2 33.5-9.7 50.3-3.9 8.4-12 21.8-17.6 28.9a87.3 87.3 0 0 1-17.2 16.1c-.3 0-.9-1-1.4-2.2zm7.9-56.5a98 98 0 0 0-20.4-32 153 153 0 0 1-16.5-23.3c-1-1.9-3-7.3-4.6-12-1.5-4.6-3.8-10.6-5.1-13.2-1.3-2.6-2-4.8-1.6-4.8 2.3 0 14 9.7 24.8 20.5a88 88 0 0 1 20.4 29c2.9 7.4 4.4 9.3 3.6 4.5-1.5-9.3-3.6-31.3-3.6-38.5 0-4.4.7-11.8 1.5-16.5.9-4.6 1.5-13.6 1.6-20V83.2l3.4 3.9c4.4 5 8.8 16.3 12 30.6a123 123 0 0 1-5.7 70.5c-7.8 18.1-8 18.4-9.8 12.8zm-518.8-4.1a116.5 116.5 0 0 1-11.6-54.7c0-14.3.2-17.1 2.7-27A75 75 0 0 1 32.8 90c5.1-8.1 5.8-7.2 5.9 7.5 0 7 .6 15.4 1.2 18.7a159 159 0 0 1-.3 40c-.8 6-1.4 12.2-1.4 13.5 0 2.3.2 2.2 1.7-1a95.5 95.5 0 0 1 21-31.9c8.8-9 24.9-21.8 26-20.7a269.9 269.9 0 0 0-7 17.8c-5.1 13.5-11.1 24-18.3 31.8-11 12-18.2 22.8-22.9 34.3-.8 2-1.9 3.7-2.4 3.7s-2.3-3-4-6.8zM50 129.5a111.9 111.9 0 0 1 .1-48.6c2.3-9 10.7-26.2 15.2-31.4 3.8-4.3 9.6-8.8 11.3-8.8 1 0 .9 1.2-.2 4.8a153.8 153.8 0 0 0-6.3 28C69.5 79 67.4 88 65 95a95 95 0 0 0-3.7 13c.1.5 2.7-2.4 5.7-6.4s8.6-10.3 12.3-14c5.8-5.8 9-8 21.8-14.4 8.2-4.1 15-7.2 15-6.8 0 1.3-6.3 11.8-10.3 17.2A144.5 144.5 0 0 1 81 109.7a180.7 180.7 0 0 0-29.1 25c-.4 0-1.2-2.3-1.9-5.2zm479.5-2.1c-3.8-4-11.2-10.4-16.5-14.3a128.9 128.9 0 0 1-29.4-29.9c-5.9-8-10.8-16.5-9.6-16.5 1.7 0 22 10 27.3 13.4 4.9 3 16 14.7 21.2 22 2.5 3.5 5.7 6.8 6.3 6.2.2-.2-.3-1.7-1-3.2-3-5.7-6.9-19.9-8.3-30.4-.8-6-2.7-15-4-20.1-3.7-13.4-3.8-13.9-2.7-13.9a38 38 0 0 1 10.8 8.1c10.6 12 18.5 36.2 18.4 56.3 0 11.2-3 29.8-4.9 29.5-.3 0-3.7-3.3-7.6-7.2zm-452-48.9c-1.5-4 3.8-16.3 10.9-24.9 7-8.6 34-28 36.7-26.3 2 1.2.3 8.4-3.4 13.8a98 98 0 0 1-19.3 20.6c-6 3-15 9.5-19.6 13.8-3.7 3.6-4.8 4.3-5.3 3zm429.9-2a65 65 0 0 0-16.8-12.8C476 55.4 458.2 31 464.2 27.2c1.5-1 16.7 8.5 25.7 15.8C502 53 510.5 64.8 511.8 74c.7 5.7-.7 6.5-4.3 2.3z"/>
</svg>
