<svg xmlns="http://www.w3.org/2000/svg" width="619.9" height="516">
  <path fill="#333" d="M239.2 515.7c-.8-.3-2.4-1.3-3.5-2.3-1-1-2.2-1.9-2.6-1.9-.4 0-1.1-1-1.8-2.4-1-2.2-.6-2.9 5.2-8.3a138.5 138.5 0 0 1 15.2-13.3c.5 0 8-5.7 9.4-7a92.8 92.8 0 0 1 15-9.7c0-.4 1-1.3 2.3-1.9 6.7-3.3 16.4-8.7 17.7-10 1.2-1.1 1-1.5-1.4-2.3-5.2-2-13.7-1.3-22 2l-3.6 1.3c-2.8 1-8 4.5-28.5 19.2-2.7 2-6.7 4.3-8.7 5.2-2 1-3.8 2-3.8 2.4 0 .5-.4.8-1 .8-.5 0-3.7 1.3-7.2 2.9a74.8 74.8 0 0 1-38.9 6.9 57 57 0 0 1-22.9-3.7 88.8 88.8 0 0 1-17.5-8c-1.1 0-12-8-14.3-10.3l-2.3-2.5 2.8.5c1.6.3 3.3.8 3.9 1.3a97.2 97.2 0 0 0 71-3 355.5 355.5 0 0 1 26-11c.5-.4 2.7-1.4 5-2.1 2.1-.7 4.4-1.6 5-2 .5-.4 3.2-1.2 6-1.9l8.4-2.1c10.1-2.5 14-3 25.7-3a73 73 0 0 1 24.8 3.1c2.3 1.4 8.3 1.8 11.5.9 12.2-3.7 15-4.1 29.5-4.1a114.4 114.4 0 0 1 34.2 4.1c5.2 1.1 12 4 34.8 14l7 3c6.5 3 18.8 6.2 26.3 7.2 9 1 28.5.4 32.5-1.1 1.2-.5 4.3-1.5 6.7-2.2 2.5-.7 5-1.6 5.5-2 .6-.3 2.1-.9 3.4-1.2 2.4-.6 2.4-.5-.4 2.4a108.3 108.3 0 0 1-21.9 14.7 75 75 0 0 1-16.6 5.8c-7.4 2-30.6 2-38 0l-8-2.1a146.2 146.2 0 0 1-36.7-19.4c-.6-.6-1.6-1-2.1-1-.6 0-1.2-.4-1.3-.8-.5-1-8.6-7.3-9.5-7.3-.4 0-1.6-.7-2.6-1.7-3-2.7-8.6-4.3-17.4-5-8.2-.6-15.4.1-15.4 1.6 0 .4 4.6 3.2 10.3 6a263.1 263.1 0 0 1 39.4 26.2 98.6 98.6 0 0 1 17.3 15.8 28 28 0 0 1-10 9.1c-.9 0-4.3-2.8-7.6-6.2a290 290 0 0 0-42.6-36.7c-1.5-.8-2.8-1.8-2.8-2.3 0-.4-.5-.8-1-.8a23 23 0 0 1-5.8-3.2c-4-2.8-5.5-3.3-10.7-3.2-5.5 0-6.7.5-14.7 5.5-4.8 3-10 6.5-11.5 7.7a56 56 0 0 1-5.5 4c-1.5.9-2.8 2-2.8 2.4 0 .5-.4.8-1 .8-1.8 0-23.7 21-30 28.9-2.7 3.4-3.8 4-6 3.3zm-101.6-51.9c-4.9-.5-16.5-3.8-22.2-6.4-2.4-1-5-1.9-5.8-1.9-.8 0-1.5-.4-1.5-1 0-.5-.6-1-1.5-1-.8 0-1.5-.4-1.5-1 0-.5-.6-1-1.4-1-4.3 0-31.6-24.9-31.6-28.8 0-1.2.5-1 2.3.5 7.5 6.7 19.3 12 33 14.7 6.7 1.4 12.7 2 45.7 4.7 15.2 1.2 27.6 2.8 31 4 3.8 1.3 12 1.6 12.1.4.1-.5-2-1.7-4.9-2.5-2.8-.9-5.4-1.9-5.8-2.3a34.5 34.5 0 0 1-15.7-7.7 82.7 82.7 0 0 1-22.8-31l-7.5-14.2c-2.9-5.4-3.7-7.8-2.8-7.8.8 0 1.4.5 1.4 1 0 .6.5 1 1 1 1.1 0 1.8.6 15.5 12.6 7.8 6.8 21 19.3 32 30 4 4 13.4 10.2 20 13.5a46 46 0 0 1 5.5 3c.5.5 12.4 4 18.5 5.6l3 .7-3 .4c-3 .4-5.2 1-20.5 5.1-7.5 2-15.3 4-26.5 6.6-12.9 3-31.5 4.2-46 2.8zm317.5-1.8a273.3 273.3 0 0 1-25.5-4.5c-3.5-.7-6.7-1.5-20.5-5l-9.5-2c-12.8-2.4-12.7-2.3-3.9-4.9a98.4 98.4 0 0 0 43.8-26.8 1279 1279 0 0 1 33.7-32.8c1.4-1.4 3-2.5 3.4-2.5.4 0 2.1-1.1 3.8-2.5 1.6-1.4 3.1-2.4 3.3-2.3.1.2-4.2 9.4-9.8 20.6-8.1 16.4-11.1 21.4-16 26.6-3.2 3.6-7 7.1-8.6 7.9l-6.5 3.5c-2 1.2-4.4 2.2-5.2 2.2-.8 0-1.5.5-1.5 1 0 .6-1.3 1-2.8 1-3.2 0-9.2 2.7-9.2 4 0 1.3 2.5 1.3 9.1 0a308 308 0 0 1 28.4-4 834.4 834.4 0 0 0 50.3-5.7c2.3-.3 4.2-.9 4.2-1.4 0-.5 1-.9 2.3-.9 3.5 0 19.2-6.5 21.7-9 1.1-1 7-5 7.5-5 2 0-12.7 17-17.7 20.5a164.6 164.6 0 0 1-20.5 12.7c-1.8.7-3.3 1.6-3.3 2 0 .5-.7.8-1.5.8s-2.3.4-3.2 1a43 43 0 0 1-6.3 2l-7 2c-3.1 1.1-17.2 3-20.8 2.9-1.5 0-7-.7-12.2-1.4zm-309-30.6c-1.9-.6-8.4-1.8-14.5-2.9-6-1-11.6-2-12.5-2.3-.8-.3-5.4-1-10.2-1.7-4.8-.7-8.8-1.7-8.8-2.1 0-.5-1-.9-2.4-.9s-4.1-.9-6-2c-2-1-4.5-2-5.6-2-1 0-2-.4-2-1 0-.5-.8-1-1.7-1-1 0-2.9-1-4.3-2-1.3-1-3-2-3.6-2-.7 0-1.4-.4-1.5-.8-.2-.4-2.6-2.3-5.4-4.2a79.6 79.6 0 0 1-10.5-8c-3.1-2.4-7.3-6.6-13.6-13.8l-5.1-5.7a10.5 10.5 0 0 1-2.3-3c0-.3-1.2-2.5-2.8-4.8a79.7 79.7 0 0 1-9.6-19.4l-1.4-4.8 3.6 4.5c5.5 6.6 15.3 16 16.8 16 .6 0 1.5.6 1.7 1.4.3.8 1.9 2 3.4 2.8l6.8 3.8c2.2 1.3 13.6 7.1 25.2 13 20.1 10.2 29.5 16 37.3 22.9 2 1.7 3.8 3 4.2 3.1.4 0 1.3.6 2 1.3 2.1 2 6.7 3.7 7 2.6.2-.5-3-4.4-7.2-8.7a126.6 126.6 0 0 1-12-14.6 74.4 74.4 0 0 1-8.3-18.6 250 250 0 0 1-5.7-30.5c-1-7.1-2.4-14.6-3-16.5-2.4-7.6-2.8-10-1.5-10 .7 0 1.7 1 2.3 2.4.6 1.3 2 3.5 3.3 4.8a160.4 160.4 0 0 1 15.7 25c.8.3 8 19 12.2 31.8 6.8 20.6 13.8 34.3 22.4 43.5 4.8 5.2 4.3 6.2-2.4 4.4zm322-1.7c0-.5 1.3-2.2 2.8-3.8 1.5-1.6 4-5 5.6-7.4l4.6-7c1-1.4 2-3.6 2.5-5 .4-1.4 1.3-3.2 2-4 .7-.8 4.5-11 8.4-22.6 11-32.6 12.7-36.2 25.3-54 7.2-10 7.8-10.8 8.2-10.3.2.2-.7 5-2 10.4-1.2 5.5-3.4 17.7-4.8 27-1.4 9.4-3.2 18.8-4 21a104 104 0 0 1-10.1 21c-4.4 7-4.2 6.6-11.7 14.7a35.4 35.4 0 0 0-5.4 6.5c1 1 5.8-1.1 6.7-2.8.5-1 1.4-1.9 2-1.9.5 0 2.2-1.2 3.7-2.8 3-3 9.6-8 12.7-9.8l14.3-8.2c3-1.8 5.6-3.2 6-3.2a358.2 358.2 0 0 0 32.5-17c1.5-.7 2.7-1.7 2.7-2.2 0-.4.5-.8 1-.8 3.1 0 18.2-14.4 22.8-21.7 2.7-4.3 5-5.9 3.7-2.5l-1.5 4.2c-3.6 11.8-14 27.8-25.6 39.5a94.2 94.2 0 0 1-22.1 18.3c-12.1 8-25.4 14.2-30.5 14.2-1 0-1.8.5-1.8 1 0 .6-1 1-2.3 1a22 22 0 0 0-5.3.9c-1.6.5-6 1.4-9.9 2-13.8 2.3-19 3.3-21.5 4.1-4.6 1.6-9 2.2-9 1.2zm-303.4-32c-.3-.3-.6-5-.6-10.4 0-9.8 0-9.8 2.5-9.8s2.5 0 2.5 9.9c0 9-.2 10-2 10.4-1 .3-2.1.2-2.4 0zm10.6-.4c-.7-.8-1.2-4.5-1.2-10.5 0-9.2 0-9.3 2.5-9.3 1.8 0 3 1 4.6 4 2.6 4.6 4 5.1 4 1.6 0-3.8 1-5.6 3.2-5.6 1.9 0 2 .5 1.5 9.4-.2 5.1-.8 9.8-1.2 10.5-1.4 2.3-3.5 1-6.3-4l-2.8-5.3-.5 4.9c-.5 5-1.7 6.4-3.8 4.3zm48.4.4c-.3-.3-.6-5-.6-10.4v-9.8h4c7.6 0 10 2.8 7.5 8.6-1.3 3.1-1.3 4 0 7.1 2 4.5 2 4.3-.9 4.3-1.8 0-2.7-.8-3.6-3.2l-1.3-3.3-.6 3.4c-.5 3.2-3 5-4.5 3.3zm7-14.2a2 2 0 0 0-1.3-1.7c-.8-.3-1.3.4-1.3 1.7 0 1.3.5 2 1.3 1.8a2 2 0 0 0 1.2-1.8zm20.2 13.6a17 17 0 0 1-2.7-4.5c-1.8-4.2-3-3.9-3 1 0 3.5-.3 4-2.6 4h-2.5l.2-10c.1-9.9.2-10 2.5-10 1.6 0 2.7.7 3.4 2.5 1 2.5 3.3 5.4 4.4 5.4.3 0 .5-1.8.5-4 0-3.3.4-4 2-4s2 1 2.5 6.3c.7 6.7-.4 13.8-2.1 14.4-.6.2-1.8-.3-2.6-1zm20-.6c-1.5-2.3-5.6-2.6-6.4-.5-.8 2.2-4.4 2-4.4-.3 0-1 1-4.5 2-7.8 1.2-3.2 2-6.1 2-6.4 0-2.2 1.5-4 3.5-4s2.6.9 4 5.8l2.6 8.6c1.3 4 1.2 5.3-.6 6-.9.3-2-.3-2.7-1.4zm-2.8-8.7c-.1-2.5-.2-2.6-1-.8-1.1 2.7-1.1 3.5 0 3.5.6 0 1-1.2 1-2.7zm37.3 9.2c-2.6-1.8-4.5-7.7-3.7-11.4 1-4.6 2.6-8 3.8-8.1.6 0 2.1-.3 3.3-.6 1.6-.4 3 .2 4.8 2 2.2 2.1 2.5 3.4 2.5 8.6 0 5.1-.4 6.5-2.4 8.6-2.9 2.8-5.2 3-8.3.9zm5.7-5.5c2.5-4.6-1.4-13-4-9-1 1.7-1.3 7-.4 9.4.9 2.2 3.1 2 4.4-.4zm19 2.5c-1.3-2.5-2.8-4.5-3.2-4.5-.4 0-.8 1.8-.8 4 0 3.6-.2 4-2.4 4-2.4 0-2.4 0-2.4-10 0-9.7 0-10 2.2-10 1.5 0 2.8 1 3.7 2.8.8 1.5 2.2 3.6 3.2 4.7 1.7 1.8 1.7 1.7 1.7-2.8 0-4 .3-4.7 2-4.7 1.2 0 2 .7 2.1 1.8l.4 8.7c.4 11.2-2.2 13.7-6.5 6zm11.4 3.1c-.5-1.4.6-6.5 3.3-14.8 1.2-3.9 2-4.8 3.8-4.8 2 0 2.6 1 4.4 7 3.4 11 3.7 13 1.7 13-1 0-2.9-.9-4.3-2l-2.5-2-2.4 2.5c-2.6 2.9-3.2 3-4 1.1zm8.2-8.2a10 10 0 0 1-.6-2.7c0-1.6-2 1.4-2 3 0 .8.8 1.3 1.6 1.3 1 0 1.4-.5 1-1.6zm11.6 8.8c-.8-.2-1.2-3.6-1.2-10.3 0-9.9 0-9.9 2.5-9.9s2.5.2 2.5 7.9c0 7 .2 8 2 8.4 2.9.7 1.6 3.4-1.9 4h-4zm22.1 0c-1.2-.8-1.7-5.7-1.4-14.9.1-5.6.8-6.1 6.8-5.5 6.3.8 6.6 10.8.3 12.2-2 .5-2.5 1.3-2.8 4-.4 4-1.2 5.2-2.9 4.2zm5.6-14.5c.1-1-.4-1.7-1.3-1.7-1 0-1.6.9-1.6 2.1 0 2.4 2.4 2 2.9-.4zm42.4 14.7c-.7-.3-1.3-1.4-1.3-2.5 0-1.6.6-2 2.7-1.7 3.7.4 3.9-1.3.4-5-3-3.1-4-7.3-2.3-9.9.5-.7 2.4-1.3 4.3-1.5 2.9-.2 3.5 0 3.7 2 .3 1.8-.1 2.2-2.2 2.2-3.1 0-3.3 1.4-.5 3.8 3.4 2.8 5.2 7 4 9.2a7 7 0 0 1-8.8 3.4zm15-.6c-2.2-2.1-1.5-4 1.3-3.5 3.7.7 4-1 .6-4.6-4.3-4.6-4.6-8.7-.7-11.2 3-2 6.5-1.1 6.5 1.6 0 1.4-.7 2-2.5 2-3.2 0-3.1.6 1 5.4 4.1 4.7 4.2 5.4 1.5 8.9-2.2 2.8-5.8 3.4-7.8 1.4zm-249.1-1.5l-.3-7c0-3-.6-5.9-1.3-6.5-1.7-1.8-2.6-4.6-1.5-5 1.8-.6 11 .4 11 1.2 0 .5-.8 1.6-1.7 2.5-1.2 1.2-1.6 3.5-1.6 9 0 7.1 0 7.5-2.2 7.5-1.4 0-2.3-.6-2.4-1.7zm11.8-8.3v-10h4.5c3.5 0 4.5.4 4.5 1.6 0 .9-.8 1.8-1.9 2.1-2.8.7-3.5 3.4-1 4 2.6.7 2.5 4-.2 4.6-2.6.7-2 3.1 1 3.5 1.3.2 2.1 1 2.1 2.3 0 1.6-.7 2-4.5 2h-4.5zm71 2.4c0-6.7-.2-7.6-2-8.1-1-.3-2-1.4-2-2.4 0-1.6.8-1.9 6-1.9 4.6 0 6 .4 6 1.5 0 .8-.7 1.8-1.7 2.4-1.2.7-1.7 2.4-1.8 6.8-.2 8.9-.3 9.3-2.5 9.3-1.8 0-2-.7-2-7.6zm12-2.5c0-9.8 0-10 2.3-9.7 2 .3 2.3.9 2.5 7.8.4 9.4-.2 12-2.8 12-1.8 0-2-.7-2-10zm107 5.4c-.2-5.8-.2-13.5 0-14.5 0-.4 2-.8 4.5-.8 3.5 0 4.8.5 6.4 2.6 1.2 1.5 2 3 1.8 3.3l-1.6 3.3c-1.1 2.3-1.1 3.3.3 6.7l1.6 4.1h-2.4c-1.7 0-2.7-.9-3.7-3.2l-1.3-3.2-.8 3.2c-.6 2.3-1.4 3.2-2.8 3.2-1.7 0-2-.7-2-4.7zm7.3-7.9c1-1-.4-3.4-1.9-3.4-1.6 0-1.6.2-.8 2.4.7 1.7 1.7 2 2.7 1zm9.7 2.6v-10h4.5c3.9 0 4.5.3 4.5 2 0 1.3-.6 2-2 2-1.3 0-2 .7-2 2s.7 2 2 2c1.4 0 2 .7 2 2s-.6 2-2 2c-1.3 0-2 .7-2 2s.7 2 2 2c1.4 0 2 .7 2 2 0 1.7-.6 2-4.5 2h-4.5zM93 383c-.4-.6-4.6-3.5-9.5-6.4a116 116 0 0 1-13.4-9c-1 0-20.2-13-27.2-18.5A154.3 154.3 0 0 1 20 326.8c0-.6-.4-1.3-.8-1.5A85.5 85.5 0 0 1 0 274.6c-.1-7.6.6-10 1.7-5.7.3 1.4 1 2.6 1.5 2.6s1 .8 1 1.8c0 1.8 4.7 9.9 9.2 15.7 2.3 3 14.6 16 27.2 28.9a147 147 0 0 1 16.5 20c0 1.3 12.4 17.5 13.7 18 2 .8 1.6-.8-2.2-8.5a83 83 0 0 1-8-28.5c-.7-7.5.9-20.4 5-41.9 1.3-7.1 2.5-15 2.5-17.3 0-4.7 1.5-5 2.3-.4l3 12.1c3 11 4 18.6 6.7 48.6 3.1 34.3 5 43.7 11.5 56.4 1.4 2.9 2.5 5.8 2.3 6.4-.3.7-.6.8-1 0zm434.7-8.3c3.7-7.3 8.1-23.4 9.4-34a916 916 0 0 0 2.6-29.6c2-25.7 6.3-50.4 10.1-57.5 1.3-2.4 1.4-2.3 1.4 2.5 0 2.8 1.2 11.3 2.6 19l3.6 20.5c.6 3.7.9 12.1.6 19.5-.5 14-1.6 18.2-8.2 31.8-1.8 3.7-2.8 6.7-2.3 6.7 1 0 6.7-6 6.7-7.2 0-.3.6-1.2 1.3-2 .7-.7 3.2-4.2 5.7-7.8 2.4-3.6 4.7-6.7 5-7l3.4-4.7c1.5-2.3 8.4-10 15.3-17 21-21.7 26.9-29.7 33-45.8l1.8-5 .3 7.8c.3 8-3.4 26.8-6.4 32.6-.7 1.4-1.4 3.4-1.4 4.4 0 1-.4 1.7-.8 1.7-.5 0-1.7 1.9-2.7 4.2-1.7 3.6-7 12-10.7 16.4a302.7 302.7 0 0 1-23.3 23 159 159 0 0 1-11.5 8.2c-3.5 2.3-7.7 5-9.1 6.2-1.5 1-3.1 2-3.6 2s-1.8 1-2.8 2c-1 1.1-2.2 2-2.7 2s-2.9 1.4-5.3 3c-2.4 1.7-4.8 3-5.4 3-.6 0-1 .4-1 1 0 .8-6.2 5-7.5 5-.3 0 .5-2.2 1.9-4.9zm-382.5-17c-6.7-.8-8.2-1.7-7.4-4.2.3-1 0-1.9-.5-1.9a1 1 0 0 1-1-1c0-.7-1-2.4-2-3.8-5.7-8.3-7.9-23.4-4.2-30.2 2.1-4 5.5-6 13.1-8 13-3.2 20.5-11.3 21.7-23.5.5-4.7.3-5.5-1.5-6.6-4.2-2.6-2-6.9 3.5-6.9 3.8 0 4.3-.6 4.7-6 .3-3.5 0-4.2-2.8-6-2.8-2-2.8-2-.6-1.5 2.1.5 2.3.4.8-.5-1.7-1-1.7-1.3-.1-4.2 1.5-3 1.5-3.5-.2-8.2-1.5-4.2-1.9-8.3-2-23.6 0-17.7.9-28 2.3-28 .4 0 1.3 1.4 2 3 2.3 5 2.4 2.9.6-6.1-1.7-8.4-1.7-8.5 1-24.4 4.2-24.6 3.5-23 6.3-15.4 2.2 6 6.3 11.9 6.3 9.2 0-.7-1.1-4.2-2.5-7.9-3.2-8.5-3.4-17.2-.5-19.9 1.2-1 2-3 2-5 0-4.5 2.7-13 6.2-20l5.1-10c1-2.2 5-8.2 8.6-13.4l14.3-20.5c3.3-4.6 4-5 5.3-2 1.3 3.2 2 2.6 2.9-2.6.6-3.1 4.1-9.3 10-17 1.3-2 1.9-2.2 2.5-1.2.7 1.1 1 1 1.5-.3.4-1 .5-2 .4-2-1.2-1.3-21 6.5-28.8 11.1-1.3.9-3.3 1.8-4.2 2-1 .4-1.8 1-1.8 1.5s-.4 1-1 1A181.4 181.4 0 0 0 175.8 74a228.2 228.2 0 0 0-28.8 30 181.3 181.3 0 0 0-15.6 23.7c-1.2.5-7.3 12.4-7.3 14.2 0 .9-.4 1.6-1 1.6-.5 0-1 .6-1 1.3a50 50 0 0 1-3 8.2c-6 14.3-13 40.5-13 49 0 1.7-.5 3.7-1 4.5-2.8 3.9 4-36.2 7-41.8.6-1.3 2-5.3 3-9a147.9 147.9 0 0 1 15.5-34.2c2.4-4.7 6.7-11.2 15.3-23.3a225 225 0 0 1 20-22 151 151 0 0 1 25.2-20.6c19-13 35-21.1 51-26 9.5-2.9 17.7-6.7 18.4-8.6.3-.8 1.2-1.5 2-1.5.7 0 2.1-.9 3.1-2 1-1 2.3-2 2.8-2s2.1-.8 3.6-1.9a153 153 0 0 1 24-13c5.2-1.7 5.7 0 1.4 5.5-4 5-8.7 12.3-8.1 12.5l19.8.4c18.6.3 40.4 2.8 48 5.5l13 4.1a113 113 0 0 1 16.4 5.9c2 .7 7.7 3.3 12.5 5.8l12.3 6.5c2 1 4.2 2.5 4.9 3.3.6.8 1.8 1.4 2.6 1.4.7 0 1.3.5 1.3 1 0 .6.6 1 1.3 1 1.3 0 2.2.7 13 9.5a208.3 208.3 0 0 1 51.5 60c5.5 9.5 13.3 27.4 16.6 38.1 3.3 10.4 7.7 32 7.5 37 0 2.5-.9-.3-2.4-8a93.2 93.2 0 0 0-3.5-13.9c-.5-1-1.3-3.8-1.6-6.2-.4-2.5-1-4.8-1.5-5-.5-.4-.9-1.7-.9-3 0-1.4-.4-2.5-1-2.5-.5 0-1-.9-1-2s-.4-2.8-.9-3.8l-6.3-13.2c-4.5-9.6-9-17-22.3-36.7a211.1 211.1 0 0 0-87-64.5 212.3 212.3 0 0 0-26-8l-10.5-2a178 178 0 0 0-43.5-3.6l-15.8.5-2.3 3c-3 3.7-5.1 6.3-9.4 10.8l-3.5 3.8 3.8-2.2 3.7-2.2-1.4 4.3-2.9 8.8-4.7 15c-1.7 5.8-4.5 13.3-6 16.8a47.3 47.3 0 0 0-3 7.2c0 .6-1.7 4.7-3.9 9.2a2336 2336 0 0 0-8 17.3 53.8 53.8 0 0 1-8.4 13.3c-2.2 2.3-3.5 4.2-2.8 4.2.8 0 3.1-1.7 5.2-3.9 2.2-2.1 4-3.3 3.9-2.7 0 2.7-3 12.9-6.4 22.1-2 5.5-4 12-4.5 14.5-2.2 11-8.2 31.2-11.6 38.5a77 77 0 0 1-12.9 19.7c-.5.4-.7 1-.4 1.4.4.3 1.7-.3 3-1.5 1.2-1.1 2.7-2 3.3-2 .6 0 3-1 5.3-2 3.3-1.7 6.2-2 13.8-2 8.7 0 10.3.2 16.3 3 6.4 3.1 17.1 12.5 17.1 15.1 0 .6.7 2 1.6 2.9 2.2 2.4 4.4 11.4 4.4 18a39.8 39.8 0 0 1-43.5 39.2c-5.3-.5-6.4-.8-13.6-4.3a37.4 37.4 0 0 1-18.4-19.1c-.4-1.3-1.4-3.7-2.3-5.4-2-3.7-1.7-17.6.4-21.7.8-1.5 1.4-3.3 1.4-4 0-.7 1.8-3.9 4-7 2.2-3.2 4-6 4-6.3 0-.6-10.4 5.9-10.8 6.8-.2.4-.8.7-1.4.7-.6 0-2 1.1-3.4 2.5-1.2 1.4-2 2.5-1.7 2.5.3 0-.8 1.7-2.4 3.8-3.6 4.4-3.8 7.2-.8 7.2 2.3 0 6.5 3.4 6.5 5.1 0 .6-.7.3-1.6-.5-.8-.9-2-1.3-2.6-1-.6.4-.8.3-.4-.4 1.1-1.8-4.3-2.7-5.8-1a51.1 51.1 0 0 0-4.6 15.7c0 1.7.8 2 4.8 2.3 5.5.4 6.8 2.7 3.2 6-2 1.8-2.1 2.8-1.7 7.3.3 3 1.5 7 2.6 9.3 2.2 4.2 6.5 9.2 8 9.2a39 39 0 0 0 14 6c1.1 0 3.8 1 6 2.2 3.3 1.8 4.4 3 5.3 6.3 2.1 8-.4 20-6.4 29.4-1.7 2.9-2.5 5.2-2.2 6.6.5 1.8 0 2.4-2.2 3-4 .9-57.7 1.5-64.4.7zm97-71c2.5-3.6 2.6-8.1.1-11.2-1.5-1.9-2.9-2.4-6.4-2.4-6 0-8.2 2.1-8.2 8 0 6 2.5 8.5 8.1 8.5 3.6 0 4.6-.5 6.4-2.9zm-21.5-12c2.3-2.5 2.7-3.6 2.2-6.5-.6-3.8-1.8-5.5-5.4-7.5-4.9-2.6-11.7 2.3-11.7 8.4 0 8 9.2 11.5 14.9 5.6zm41.9.8c2.1-1.6 2.6-2.9 2.6-6.2 0-5-.8-6.3-4.3-8.2-2-1-3.5-1-6.1-.4-6.7 1.9-8.6 8.4-4 13.8 3.2 3.8 7.8 4.2 11.8 1zm-1.4-23.7c3.2-1.5 3.6-2.1 3.8-6.4.5-6.7-1.9-9.7-7.4-9.8-9.6 0-12.8 12.7-4.1 16.5 4 1.8 3.5 1.8 7.7-.3zM220 251c4.2-3 3.8-10.8-.7-14.2-2.5-2-8.4-1.5-10.9.8-3 2.8-3 10.4 0 13 2.6 2.3 8.6 2.5 11.6.4zm-36.6-20c2.6-10.5 4.8-20 4.8-21.2 0-1.3.5-2.3 1-2.3.6 0 1-1.3 1-2.9 0-1.5.7-4.8 1.5-7.1a605.8 605.8 0 0 1 24-73.5l5-11 6.6-14.3c6-12.7 4.9-12.8-1.9-.2-6.7 12.5-23.3 54-28.2 70-.7 2.5-1.7 5-2.1 5.5a5 5 0 0 0-.9 2.8c0 1-1.6 7.3-3.6 14a389 389 0 0 0-8.3 31.7 773 773 0 0 1-4 16.7c-2.4 9.3-2.6 11.6-.9 11 .7-.1 3.3-8.8 6-19.2zm59 6.4c2.5-3 2.4-8.7-.3-11.6-1.6-1.7-3.3-2.3-6.4-2.3-6.1 0-9.4 4.6-8 11.1 1.3 5.8 10.6 7.5 14.7 2.8zm38 115c-1.7-1.2-3.5-3.2-3.8-4.5-.6-2.4-.6-2.4-15.5-2.4h-14.8l-3.3-2.9-3.3-3v-15.3c0-13.6.2-15.3 1.7-15.3 1 0 2-.3 2.4-.7.4-.5 1.8-.8 3-.8a49.8 49.8 0 0 0 31.2-19.4 91 91 0 0 0 9.2-20c0-6.2 2.8-8.5 5.3-4.6.6 1.1 1.8 2 2.6 2 .7 0 2.5.8 4 1.8a82 82 0 0 0 22 8.8c7.2 2 28.3 1.9 35.8 0a94.5 94.5 0 0 0 24.7-10.6c1 0 4.3-2.9 12-10.2l7.1-6.7H411c11.4 0 16 1.2 18 5 .6 1.3 1.3 7 1.4 12.4l.3 10 3.2.3c2.8.3 3.2 0 3.5-2.5.3-2.6.6-2.8 4.8-2.8s4.6.2 4.9 2.9c.3 2.8.4 2.8 4.8 2.1a28 28 0 0 0 8-2.6c1.8-1 4-1.9 4.9-1.9.8 0 2.2-.4 3.2-.9 7-3.5 23.6-10 24.5-9.4.9.5 1 70.7.1 71.6-.6.6-2.2 0-10.1-3.4-2.3-1-4.8-1.9-5.6-1.9-.7 0-1.7-.4-2.2-.9-.5-.4-3.7-1.9-7-3l-11-4.2c-7.1-2.7-9.3-2.5-9.7.9-.2 2.5-.7 2.7-5 3-4.7.3-4.8.3-4.8-2.7 0-2.7-.3-3-2.9-3-3.6 0-4 1.1-4 11.4 0 15.4-1.6 16.5-22 16.5-12.6 0-14.2.2-14.7 1.8-.4 1-1.8 3-3.2 4.5l-2.5 2.7h-52.1c-51 0-52.1 0-55.3-2.1zM268 325.8l.3-7.3H262a25 25 0 0 0-7.4.8c-.9.6-1 6.9-.4 13.5 0 .4 3 .7 6.8.5l6.7-.3.3-7.2zm24.8 5.4c.3-1.3.4-4.5.2-7.3l-.3-4.9h-14l-.3 5.9c-.4 8.4-.3 8.6 7.3 8.6 6 0 6.5-.2 7-2.3zm24.5 2l.6-6.9c.5-6.4.4-6.7-1.9-7.3-1.3-.3-4.6-.5-7.3-.3l-5 .3-.3 5.9c-.4 8.4-.3 8.6 7.3 8.6 3.6 0 6.5-.1 6.6-.2zm24.4-7.2v-7l-6.6-.3c-6.6-.3-6.7-.2-7.2 2.5-.4 2.4-.4 6.7.2 11.1 0 1 2 1.2 6.9 1l6.7-.3zm24.7 5.3c.2-1.3.2-4.7 0-7.6l-.4-5.3-6.6.3-6.7.3-.3 5.9c-.4 8.4-.3 8.6 7.2 8.6 5.8 0 6.4-.2 6.8-2.2zm24.6.2c.4-1.1.5-4.4.3-7.2l-.6-5.3-6.7-.3-6.8-.3v6.9c0 3.8.3 7.2.7 7.5.4.4 3.3.7 6.5.7 5 0 6-.3 6.6-2zm24.7-5.5v-7h-14l-.3 5c-.2 2.7 0 6 .3 7.2.6 2.3 1 2.4 7.3 2.1l6.7-.3zM47.1 308.6c0-.5-.6-1.5-1.3-2.3-.7-.7-2.7-3.3-4.4-5.8-1.7-2.5-4-5.6-5.3-7l-4.5-5.5a219.6 219.6 0 0 1-16.8-22.2c-.5-1.3-1.4-2.3-1.8-2.3-.5 0-.9-.5-.9-1.2 0-.6-.8-3-2-5.2-2.8-6-5-12.5-6-17.6a149 149 0 0 1-4-33.4c0-11.3 2.3-28.1 4-30 .4-.4 1.1 2 1.5 5.6 1.1 10.7 5.3 23.5 13 40.3a168.2 168.2 0 0 1 15 43 64 64 0 0 0 4.4 17.3c2.1 4 2.4 1.8 1-7.7-3-22 3-43.2 18.6-67 2.4-3.7 6.2-10.2 8.4-14.6l4.2-8-.6 8.5c-1.3 18.6-4.8 35.3-14.5 69L50.7 278a64 64 0 0 0-2.3 22.3c.3 5.2.2 9.2-.4 9.2a1 1 0 0 1-.9-1zm523.5-10.8c.6-11-1-22.6-4.6-33a218.6 218.6 0 0 1-7.7-25.8 244 244 0 0 1-10-53.5V181l4.9 9.9a106 106 0 0 0 6.3 11.5c.7.9 3.5 5.4 6.2 10.1 2.6 4.7 5.3 9.2 6 10 1 1.5 2.6 5 6.6 15.5 2.5 6.7 3.4 22 1.9 32.5-1.1 7.5-1 10.2.5 8.8.7-.8 3-9.5 5-18.8 2.9-14.4 6.2-24 15.5-45a107 107 0 0 0 11-39c0-2.5.4-5.4.9-6.5l.7-2 .6 2a90.2 90.2 0 0 1 4.1 34c0 16.4-.3 18.9-2.7 27.5l-3.3 12a116 116 0 0 1-20.5 35c-.8.8-3.3 4-5.5 7l-7.7 9.8c-2 2.3-3.8 5-4.1 6-.3 1-1.4 2.3-2.5 3-2 1.2-2 1-1.6-6.5zm-250.2-33.6c-2.4-.6-4.3-1.4-4.3-1.9 0-.4-.7-.8-1.5-.8-2.1 0-13.3-6-16.9-9a69.2 69.2 0 0 1-23.2-34.5 87.4 87.4 0 0 1 0-37c2.9-9 9-19.8 14.9-26 5-5.4 18.5-15.5 20.7-15.5.6 0 3-.8 5.3-1.9a45 45 0 0 1 20.7-3.8c9.7-.4 18.2.6 23.5 2.7 8.1 3.3 12.5 5.5 12.5 6.2 0 .4.6.8 1.4.8 2.2 0 14 10.2 17.2 14.8 11.4 16.8 14 24.3 13.8 41.7 0 11.3-.4 14-2.6 20.3-2.8 8-9 19-13.5 23.7-8.2 9-21.5 17.1-32.8 20.1a132 132 0 0 1-35.2 0zm25-9.8c5.3-2.9 8.1-8.5 7.5-15.1-.4-4-1.2-5.7-4.2-8.6-3.4-3.5-4-3.7-10.2-3.7-6.4 0-6.6.1-10.4 4.2-3.6 3.9-4 4.7-4 9.8 0 6.1 2.4 10.5 7 13 3.1 1.8 11.4 2 14.3.4zm-37-20c5.5-3 8.7-8 8.7-13.9a14 14 0 0 0-18.4-14c-11 3-14.3 15.9-6.4 24.4 3.8 4.1 11.7 5.8 16 3.5zm71.4-.1c12.5-5.5 12-23.6-.7-27.8-8-2.6-17.5 2.7-19 10.9-2 11.7 9.3 21.5 19.7 16.9zm-71.7-41.5c0-.5 1-1.3 2.3-1.8 3.1-1.4 6.7-7.2 6.7-10.9 0-5.3-2-10-5.2-12.6-2.7-2-4.3-2.5-9.8-2.5-5.8 0-6.9.3-9.3 2.7a15 15 0 0 0-4.7 12c0 4.7 3.7 10.6 7.7 12.4 3.1 1.4 12.3 1.9 12.3.7zm72.3-.5c6.8-3.8 9.4-9 8.3-16.4-1.2-8-9.2-13.3-17.2-11.3-11 2.8-15.3 14.8-8.4 23.6 3.7 4.7 12.5 6.8 17.3 4zm-35.6-20.9c5.3-2.9 7.6-6.3 8-12.3 1.3-16.3-22-21.9-27.8-6.8-1.3 3.5-1 10 .5 13 2.5 4.7 6.1 6.7 14.8 8.1.3 0 2.4-.8 4.5-2zM32.2 219.7c-1.3-4.2-3-9-3.6-10.7-.7-1.6-1.8-4.8-2.5-7a79 79 0 0 0-3-8c-5.8-12.6-9-27.9-9-43.5 0-17.7 3.4-31.5 11.1-45.9 4.3-8 9.7-15.2 8.6-11.6-3.3 11.6-3.3 24-.2 54 1.3 11.8 1.5 19.3 1 28.5-1.1 18.2-1 22.3 0 22.7.6.2 2.2-4.5 3.6-10.4 2.7-11 5.7-17.2 12.9-26.3 3.7-4.7 22.4-24 23.3-24 .9 0 7.1-6.1 9.5-9.3 2.2-3 2.2-3 2.2-.6 0 6.1-7.1 24.7-13 34.2a172.2 172.2 0 0 1-15 20.8c0 .5-3 5.3-6.6 10.7-7.2 10.4-15.4 26.3-15.4 29.6 0 5.3-1.7 3.9-3.9-3.2zm478.5-5.5c-.4-5.4-.5-10-.3-10.3.7-.7 2 13.5 1.5 17.1-.2 1.7-.7-1.4-1.2-6.8zm71 1.6A70 70 0 0 0 573 198c-1.1-2.2-7.4-11-13.8-19.5-16.8-22.3-23.7-34.7-27.7-49.6-2-7.7-1.7-8.3 2.6-3.4l4.8 5.4c.5.6 4.2 4 8.3 7.5a185 185 0 0 1 25.1 25.6 82.5 82.5 0 0 1 9.8 28.4c0 1.1.4 2 .8 2s.8-12.2.8-27.2.5-35 1.3-44.3c1.3-16.3 1.3-17.4-.8-26.4-1.1-5.2-1.9-9.6-1.7-9.8.2-.2 1.6 1.6 3.1 4l4.6 6.7a44 44 0 0 1 6 12.4c0 .8.3 1.6.8 1.8 1.2.5 5 15.8 6.3 25.8 2.4 18.6 0 33-10.7 60-2.1 5.4-5.4 17-6 21.8-.4 2.3-1 4.2-1.5 4.2s-2-3.5-3.5-7.7zM43.5 135.3c-1.3-25.1-1-34.9 1-44.8a66.9 66.9 0 0 1 12.2-26.7A76.8 76.8 0 0 1 77.5 47c2.5-.6 2.7-.5 1.5.7-.8.8-2 2.5-2.9 3.7l-3.7 5.3a12 12 0 0 0-2.3 4.4 157.9 157.9 0 0 0-8.4 30.3c-2 8.6-5.1 20.4-7 26.3-4 11.9-4 11.7-2.7 11.7a29 29 0 0 0 5.2-7.2c4.7-8 15.1-18.8 24.9-25.8 17.3-12.3 22.7-17 28.4-24.5 3.8-5 3.8-5 3.3-1.7-1.3 8.3-9 23.6-15.6 31.2-6 6.8-13.2 13.7-18.6 17.9-3.3 2.5-6.6 5.1-7.3 5.8a108.5 108.5 0 0 0-23 22.5 78.7 78.7 0 0 1-4.6 5.8c-.2 0-.7-8.2-1.1-18.2zm528 13a57 57 0 0 1-2.9-4.2c-3.4-5.4-27-26.6-29.5-26.6-.5 0-1-.3-1.2-.7-.2-.4-3.3-3.2-6.9-6.2a81.7 81.7 0 0 1-20-22c-2.2-3.8-4-7.4-4-8 0-.6-.3-1-.8-1-.7 0-3.2-8.7-3.2-11.3 0-.6 2.6 1.7 5.8 5A90 90 0 0 0 521 83.6c3.6 2.4 7.1 5 7.9 5.6.7.7 1.6 1.3 2 1.3.5 0 2.1 1.1 3.7 2.5a13 13 0 0 0 3.7 2.5c.4 0 4.9 4.2 10 9.3a71.6 71.6 0 0 1 12.8 15.6c1.8 3.5 3.5 5.9 3.7 5.2.2-.6-1.5-7-3.8-14.3a289 289 0 0 1-8-29.3c-4.2-17.9-8.6-28.5-14.9-35.4-2.9-3.2-4.5-7-1.9-4.3.7.7 1.8 1.2 2.6 1.2 3.3 0 15.8 10.6 21.8 18.5 3 3.8 10.8 18.5 10 18.5-.3 0 .3 2 1.2 4.3 1.3 3.6 1.6 8.9 1.7 34.5 0 16.6-.2 30.2-.5 30.2-.2 0-1-.6-1.5-1.3zm-498-59.6c.2-.5 1.2-4.3 2-8.6A79.4 79.4 0 0 1 104 33.8c1.7-1.3 3.4-2.3 3.6-2.3.3 0 2.2-1.1 4.2-2.5 2-1.3 6-3.5 8.8-4.8 8.7-4 20-8.7 20.2-8.4.2.1-1.8 2.5-4.4 5.3a172.1 172.1 0 0 0-24.1 31.3A194 194 0 0 1 81.8 84c-6.2 5-9.7 7-8.3 4.8zm463-5.4c-2.8-2.4-7.7-7-11.1-10.3a242 242 0 0 1-25.9-27.7A184.2 184.2 0 0 0 481 21c-6.3-6.6-7.4-9-2.9-6.6 1.1.6 3 1.1 4 1.1 1.2 0 2.1.5 2.1 1 0 .6.7 1 1.5 1s3 1 5 2c2 1.1 4.4 2 5.4 2a52 52 0 0 1 15 9.1c.1.5.8 1 1.3 1a78 78 0 0 1 15.7 17 115 115 0 0 1 12.5 28c.8 3 2 6.7 2.5 8.2 1.6 4-.6 3.5-6.5-1.5z"/>
</svg>
