<svg xmlns="http://www.w3.org/2000/svg"><symbol id="logo" viewBox="0 0 707.2 598.8"><path d="M272.8 573c-3.7-3-6.7-6-6.7-6.2 0-.4 5-5.2 11.1-10.7a243 243 0 0 1 53.8-37.8c8.5-4.3 9.2-4.9 7-5.5-4.2-1.2-13.2-1-18.7.5a83.8 83.8 0 0 0-24.4 13.2c-30.2 22.3-50.1 30.4-74.9 30.7a78 78 0 0 1-42.5-10.5c-10-5.1-18.5-11.2-25-17.8l-5-5.2 8 4.1a73 73 0 0 0 38.5 8.3c18.6 0 26-1.7 48.5-11.5 9.4-4.1 21.4-9.1 26.9-11.1 30.8-11.5 55.4-13.4 80.7-6 5.3 1.5 6 1.5 9 0 6-3 22-5 36.9-4.3 16.8.7 30.2 3.5 44 9l27 11.1c19 7.7 27.5 10.2 39.2 11.1 15.7 1.3 39-3.6 49.1-10.2 6.3-4 5.5-1.9-1.8 4.9-33.5 31.2-76.3 34.9-118.9 10.1-4.3-2.5-13.1-8.3-19.5-12.8-17.1-12.3-18.6-12.9-31.3-13.4-13.6-.5-15.7.2-9.7 3 8.5 4.1 33.2 19.4 42.5 26.4 10.2 7.6 26.4 22 26.4 23.4 0 .5-2.9 3.4-6.4 6.5L430 578 416 563.9a274.5 274.5 0 0 0-44.2-36.8c-15-9.7-16.3-10-25-5.6a230 230 0 0 0-59.7 49.2c-3.6 4.4-6.7 8-7 8-.3 0-3.5-2.5-7.2-5.6zm-102.4-52.2A111.6 111.6 0 0 1 98 476.9c-6-9-6-10.1.4-4.3a87 87 0 0 0 44.6 19.7c5.2.8 19.4 2.2 31.5 3 24.3 1.7 33.5 2.8 47.4 5.6 15.5 3.2 16.4 2 1.6-2a55.9 55.9 0 0 1-26-14.6c-8-7.8-10.9-12.2-19.6-29.5-4-8-9-17.3-11.1-20.8a23.2 23.2 0 0 1-3.4-6.9c.6-.6 14 9.6 22.6 17.2 3.6 3.2 13.9 12.8 22.9 21.4 19.7 18.8 23.8 22 35.5 27.7 9.1 4.4 24.8 9.4 29.2 9.4 1.3 0 2.4.4 2.4 1 0 1-3.5 2-7.5 2-1.7 0-10 1.9-18.5 4-38 10-61.6 13.2-79.6 11zm336.3-2.5a231.2 231.2 0 0 1-35.7-7.2c-8-1.9-19.9-4.5-26.5-5.7-6.6-1.3-11.3-2.6-10.5-2.9l11-3.2c11-3.1 21.8-7.9 28.7-12.6a408 408 0 0 0 25.3-23.2c22.4-21.8 38.1-35.5 45.9-40.1 1.6-1 1.3-.4-2.9 6-1.5 2.1-7 12.9-12.3 23.7-9.2 18.8-10.1 20.2-17.5 27.6a61 61 0 0 1-28.2 16.8c-8.5 3-9 3.2-4.5 2.7a572.9 572.9 0 0 1 67-8.4c30.3-2.8 49.4-9.5 62.4-22 3-2.7 5.5-4.8 5.8-4.6.8.8-8.1 13.9-13.7 20a124 124 0 0 1-46.8 29.6c-7.6 2.5-23.6 5-31.2 5-3-.1-10.4-.8-16.3-1.5zm-223.8-27.7c-.3-1-1-5.6-1-7.2 0-5.6-8.9-11.9-24.9-17.8-8.9-3.2-15-10.1-15-17 0-1.8-.3-4.2-.6-5.5-.6-2-.7-2.1-3.1-.5-1.8 1.2-5 1.6-11.3 1.7-8.2 0-9-.1-14-3.4-12.6-7.9-14.2-8.5-22-9l-7.5-.6v-5.5c-.2-7.1-2.2-11-10.5-19-3.8-3.7-7.5-8-8.4-9.7-1.7-3.4-2-16-.5-20.1 1.2-3 .1-4.2-6.1-6.6-8.5-3.2-14.1-7.6-16.3-12.5-1-2.5-3-5.9-4-7.5a75.4 75.4 0 0 1-4.9-8.8c-2.8-5.9-6.5-9-12-10.3-2.8-.6-3.7-2.8-1.8-4 2.1-1.3 5-8.6 5-12.7 0-2.3-.7-7.4-1.5-11.3-3-13.9-1-26.5 4.6-29.5 1-.5 2.3-1.9 3-3 .9-1.8.6-2.2-2.3-3.4-4.8-2-8.7-6.6-10.4-12.2-1.2-3.9-1.4-7.8-.9-19.6.5-9.2.4-14.8-.2-14.8-.6 0-1.5-1.8-2.2-4-.6-2.2-1.6-4-2-4-.5 0-.6-1.1-.3-2.5.3-1.7 1.7-3.2 4.2-4.5 2.1-1 4.8-3.2 5.9-4.8 3-4.2 9.1-17.3 9.1-19.4 0-1 2.4-4.2 5.4-7.2 4.9-4.8 5.8-5.4 11.2-6 5.3-.7 7.3-1.7 7.4-3.7 0-.3-1.3-.9-2.9-1.2-4.7-1-7.6-6-7.6-13.2 0-5.5.5-6.8 5.9-15.6 6.9-11.6 8.9-17.5 8-24l-.6-4.7 4 .5c4.4.6 10.8-2 13.9-5.9 1-1.3 5.4-4.7 9.8-7.7 10-6.8 15-7.6 22-3.7 2.7 1.5 5 2.4 5.4 2.1.3-.3.4-3.2.3-6.4-.4-10.9 3.7-16.3 19.6-25.3 6.2-3.5 8-5.9 9-11.9 1-5.3 2.7-6 7.9-2.4 4.9 3.3 10.3 3.3 21.3 0 10.3-3 17.7-3.2 22.2-.5 4.5 2.8 5.5 2.6 7.4-1.2 3.4-6.7 7.8-9.2 21.4-12a39 39 0 0 0 17-8c4.8-4.4 7.1-4.7 9-1.2 2.4 4.4 7 6.4 19.1 8 6.3.8 13.3 2.2 15.6 3 4.6 1.7 9.3 6.5 9.3 9.5 0 2.5 1.5 2.5 3.3 0 2.7-3.9 6.7-5 17.2-5 7.3 0 11.5.5 15.5 2 6.2 2.1 15 2.5 17.9.8 2.7-1.7 4.8-.5 6.6 3.7 1.8 4.3 2.3 4.8 13.1 11.4 4.5 2.8 10 6.8 12.2 9 4.9 4.7 9.2 12.7 9.2 17 0 3.5 2.2 5 4.5 3 2.3-1.9 11.8-.5 17 2.4 4 2.5 6.8 5.2 12.8 13 4 5.3 9.3 8.4 16.7 10 5.5 1 6.4 1.6 6.1 3.2-2 11.2-1.2 14.6 6.3 24.4 6 7.9 6.8 10.4 6.7 19.5-.1 6.5-.5 8.3-2.1 10-3.6 3.8-2.6 5.5 3 5.5 8.9 0 12.4 5.1 20.7 30 2.5 7.5 5 14.1 5.6 14.8.5.7 2.5 1.2 4.3 1.2 3 0 3.4.3 3.4 3 0 1.5-.7 3.4-1.6 4.1-4 3.4-4.8 6.8-6.2 29.1-.7 11.1-.8 11.9-3.6 14.8-1.7 1.7-4 3-5.2 3-3.5 0-4.1 3.7-1.1 6.9 5.5 6 6 8.3 5.3 24.6a121 121 0 0 1-2.1 19.9c-1.5 5-.9 8.2 2.1 10 .8.4 1.4 1.8 1.4 3.2 0 2.2-.4 2.4-4.4 2.4-4.4 0-4.5.1-7.5 5.6-1.6 3.1-3.8 7.6-4.7 10.1-3.5 9.1-16.7 20.3-24 20.3-4.2 0-5 2.5-3 8.5.9 2.6 1.6 7.7 1.6 11.4 0 6-.4 7.3-2.8 10.4-1.5 2-4 4.5-5.7 5.6-3.4 2.4-15 13.5-17 16.4-1 1.4-1 2.7-.4 4.4.5 1.4.9 2.9.9 3.4 0 1.3-4 1.2-7.8-.1-3.7-1.3-7.7.3-13.4 5.4-12.2 11-22.5 13.8-31.6 8.5-4.6-2.6-5-2.4-5.8 2.1-.5 2.9-2 5.4-5.3 8.9-3.8 4-6.1 5.4-13.1 8a90.2 90.2 0 0 1-12.7 3.7c-5.5.8-8.8 3.5-12 9.8-3.2 6.5-5.1 8.6-7.5 8.6-1.2 0-1.8-.6-1.6-1.7.2-1.2-1.3-2.6-5.1-4.5a30 30 0 0 0-22.6-1.1c-7.3 2.3-13 1.2-20.6-3.9-3.4-2.3-6.4-5-6.7-6-.7-2.6-1.8-2.2-4 1.7-3.7 6.2-6.2 6.8-27.1 6.5-25.9-.3-24.8-.5-26.6 3-1.9 3.7-4.3 6-6 6-.9 0-1.5 0-1.6-.2zm95.6-31.8a209.8 209.8 0 0 0 148.9-94c37.3-57.5 42-131.1 12.2-193.5A209.4 209.4 0 0 0 434 70.6a190.6 190.6 0 0 0-78-16.5c-37.8-.8-67.2 5.4-99.4 21.2a190.9 190.9 0 0 0-54.9 39.3A199.2 199.2 0 0 0 183.1 379a251.5 251.5 0 0 0 41.9 40.8 206.8 206.8 0 0 0 71.8 34c10.5 2.7 26.8 5.4 37.2 6.3 8 .6 36.3-.2 44.5-1.4zm-54-8.5c-37.8-5.1-72.2-19.7-101.5-43.1a294.1 294.1 0 0 1-30.6-30.4 207 207 0 0 1-34.3-65.7c-8.6-28.6-10-61.7-4-91.7A197.6 197.6 0 0 1 301 68.2c32.4-8 67-7.8 99.3.3a196.5 196.5 0 0 1 148.3 164c11.8 90.3-41.8 176-130 207.6a208.7 208.7 0 0 1-94 10.2zm53.4-9a191 191 0 0 0 108.4-54 180.7 180.7 0 0 0 35.9-208.5 186.5 186.5 0 0 0-86.2-86 194 194 0 0 0-236.1 51.9 181.5 181.5 0 0 0-11.2 211.1c30.4 46.7 77 76.7 133 85.4 12.4 2 43 2 56.2.1zm-27.7-10.5c-2.5-1.5-3.2-2.6-3.2-5 0-2.7-.2-2.8-2.6-2-8.3 3.2-15.4-.5-15.4-7.9 0-7.1 7.4-12.1 15.7-10.6 3 .6 3.4.4 3.1-1.1-.3-1.6-1.6-1.9-10-2.1l-9.6-.3-.6 6.3c-.3 3.4-.8 9.5-1 13.6-.2 4-.6 7.5-1 7.8-.2.3-1.8-.4-3.3-1.6l-2.8-2.2.4-12c.2-8.2 0-11.9-.8-11.9-.6 0-1.1-1.3-1.1-3 0-2 .5-3 1.5-3 .8 0 1.5-.9 1.5-2 0-5.6 5-9 13.5-9 6.8 0 11 2 11.7 5.5.7 3.4.2 3.6-3.9 2a20 20 0 0 0-7.6-1.3c-3.5.3-4.3.7-4.5 2.6-.3 2.2-.3 2.2 13.2 2.2H357v3c0 1.7-.5 3-1 3-.6 0-1 5.3-1 13.8-.1 7.6-.5 14.5-.8 15.5-.7 1.6-1 1.6-4-.3zm-5.4-14.2c1.5-.7 2.8-2 3-3 .3-1.5-.4-1.8-4.3-1.8-2.5 0-5.5.5-6.6 1-2 1.1-2.6 4-1.2 5.5 1 .9 5.5 0 9.1-1.7zm36.2 9.2c-3.7-2.8-7.8-3.4-9.9-1.5-2.3 2-3.3 2-6.5-.5-1.9-1.5-2.6-3-2.6-5.5 0-3.3 0-3.4 4.7-3.7 6.5-.4 7-2.8.6-2.8-5.9 0-7.3-1.2-7.3-6.2 0-2-.5-3.8-1-3.8-.6 0-1-1.3-1-2.9 0-2.9.1-3 6.7-3.5 3.8-.4 12.4-1.3 19.2-2.2 13.8-1.7 14.6-1.4 13.6 4.3-.5 2.6 1.4 13 4.1 22.6.4 1.4-.1 1.7-3 1.7-3 0-3.7-.4-4.2-2.5-.7-3-.5-2.9-4.8-.8-4.6 2.2-8.1 1.2-10.3-3.1l-1.8-3.5-1.1 2.4c-1 2.2-.7 2.6 4.2 5.7 5.5 3.4 6.3 4.8 4.1 6.7-.9.7-2 .5-3.7-.9zm8.8-14.5c4.2-3 1.8-6.4-3-4-3 1.4-3.8 5.5-1.1 5.5 1 0 2.9-.7 4-1.5zm-3.7-9.7c3.6-1.4 4-1.7 1.8-1.7-1.4 0-4.7.2-7.2.6-4 .5-4.5.8-3.7 2.4.6 1 1 3 1 4.6v2.8l1.9-3.5c1.3-2.4 3.1-4 6.2-5.2zm-15.3 3.5c-.2-1.6-1-2.8-1.8-2.8-.9 0-1.6 1.2-1.8 2.8-.3 2.2 0 2.7 1.8 2.7 1.7 0 2-.5 1.8-2.7zm-86.9 7c-4.3-8.3-5-11-3.6-14.7.8-1.9 3.8-2 5.5-.3 1 1 1.5 1 2.2-.3 1.9-2.9 1-4.8-2.6-6.1-2.8-1-3.4-1.7-3-3.3.3-1.1.6-2.6.6-3.4 0-.9.7-1 2.2-.6 2.3.7 15 6.4 15.6 7 .8.7-2.3 5.5-3.3 5-.8-.2-2 1.8-3 5-1.4 3.9-2.4 5.4-3.7 5.4-2.5 0-2.3 3.3.3 8.8 1.8 3.7 2 4.6.8 5.3-2.6 1.7-3.4 1-8-7.8zm134.1 3.7c-3.3-.4-3.8-1-8.5-10.5-3.7-7.3-5.5-9.9-6.7-9.7-1 .2-2.3-.8-3.2-2.6-1.5-2.9-1.5-3 1-3.6 2.1-.5 2.4-.9 1.4-2.1-1.8-2.1-.6-9.2 2-12 3.9-4.1 12.4-6 14.1-3.3 1.6 2.5.9 3.6-2.8 4.3-5.8 1.1-7.3 2.3-7.3 5.6 0 1.6.4 3 .8 3 .5 0 5.2-2.2 10.5-4.9 9-4.4 9.8-4.7 11.2-3.1a6 6 0 0 1 1.5 3.3c0 1 3 6.6 6.5 12.6 3.6 6 6.5 11.1 6.5 11.4 0 .4-2 .6-4.4.6-3 0-4.6-.4-5-1.4-.4-1.3-1-1.2-4 .5-2.4 1.4-4.8 2-7.8 1.8-3.6-.3-4.6-.9-6.5-3.8-3.4-5-1.5-10.4 4.9-14 6.6-3.7 3.5-3.4-4 .4l-7.1 3.5 2.2 4.8 5.6 11c1.7 3.6 3 7 2.9 7.6-.2.7-1.6 1-3.8.6zm11.7-18.5c2.3-2.3 2.4-2.8 1-4.1-1.3-1.4-1.8-1.4-4.5 0-3.6 2-4.6 3.2-3.8 5.2.8 2.3 4.4 1.7 7.3-1.1zM250.3 414a18.5 18.5 0 0 1-6.3-12.5c0-3 .4-3.8 2-3.8 1.4 0 2 1 2.6 3.6.7 4.1 3.9 8.4 6.1 8.4 1.4 0 1.4-.1 0-1.8-3.6-3.9-.7-6.8 4.1-4.3 1.3.8 1.7.5 1.8-1.2 0-1.2.4-3 .8-4 .6-1.2.4-1.7-.8-1.7-1 0-2.8-1-4.1-2.4-3.3-3.2-3.3-8.6-.1-14.2 1.7-3 2-4.5 1.3-5.2-.7-.8-.7-1.8.1-3.6 1.2-2.6 3.6-3.4 4.7-1.6.3.5 3.8 2.8 7.8 5 10.8 6 11.3 6.5 10 9.8-.5 1.5-1.5 2.6-2 2.5-.7-.1-4 4.5-7.5 10.3a35.7 35.7 0 0 1-7.4 10c-.7-.2-1 .6-.6 2 1 5.6-7.4 8.7-12.5 4.7zm18.7-27.5l2-3.2-2.8-1.7-2.6-1.8-2.7 4.2c-1.5 2.3-2.5 4.6-2.2 5 .2.4 1.7.7 3.4.7 2.2 0 3.4-.7 4.9-3.2zm187.2 4c-1.7-1.7-1.5-3.5.5-4.6 3.1-1.7.6-2.4-4.4-1.2-5.6 1.3-9.6.3-11.3-3-1.3-2.3-.4-4.3 3.4-7.9 1.4-1.3 2.6-2.9 2.6-3.4 0-.6-2 .8-4.3 3.1-4.9 4.8-5.7 5-8.2 2.2-1.8-2-1.8-2.1 5-8.2 3.9-3.4 11.4-10.5 16.7-15.7l9.8-9.4 2.5 2.4c1.4 1.3 2.3 2.9 2 3.6-.3 1 4.7 6.3 13.8 14.1 2 1.8 3.6 3.7 3.3 4.1-.3.5-2.5 1.1-4.8 1.5-4.2.5-4.4.4-11.3-6.3-6.5-6.5-7.1-6.8-9-5.5-1.8 1.4-1.5 2 8.3 11.6a96 96 0 0 1 10.2 11c0 .4-1.8.8-4 .8-3.7 0-3.8.2-4.5 4-1 5.4-4.3 8-10.4 8-2.6 0-5.2-.5-5.9-1.2zm4.7-22.4c-4.4-4.4-5.5-5-7.1-4.2-1.8 1-1.8 1.1-.4 2.8 2.5 2.7 2 4.4-2.4 8-2.2 1.7-3.8 3.6-3.4 4.2.3.6 2-.6 3.9-2.6 2.4-2.6 3.8-3.4 5.1-2.9 2.4.9 3.4 2.3 3.4 5 0 1.7.6 2.3 2 2.3s2.4.9 2.8 2.3c.5 1.5.8.2 1-3.7l.3-5.9zm-229.4 18c-.5-2.7-.2-4 1-5.5 1-1 1.6-2 1.4-2.1a214 214 0 0 0-4.4-2.3c-9.9-5-7.2-16.5 3.8-16.5 3.9 0 9.7 3.4 10.4 6.1.3 1 1 2 1.4 2 2 0 .6-2.4-4.1-6.7-2.8-2.6-5-5.2-5-5.7 0-.6 1-2 2.1-3.3l2.2-2.3 6 5.9c3.4 3.2 7.4 6.9 9 8 3.1 2.5 3.3 3.7 1.1 6.9-1.1 1.6-2 2-2.8 1.2-.9-.7-3.8 1.6-10.6 8.5-5.2 5.2-9.8 9.4-10.1 9.4-.4 0-1-1.6-1.4-3.6zm9-15.6c-.8-2-7.9-5-10-4.1-3.1 1.2-1 3.5 5.1 5.7 4.2 1.5 5.8 1 4.9-1.6zm91 10.9c-16-2.4-29-6.4-41.8-12.8a135.1 135.1 0 0 1-57.4-57.4 123.8 123.8 0 0 1 0-108 131 131 0 0 1 97.2-70c70.7-10.6 136.1 34 149.6 102a179 179 0 0 1 0 44c-10 50.8-50 90.1-102.6 101a173.6 173.6 0 0 1-45 1.2zm45-12c24.9-6 42.7-15.8 59.6-32.6a110.7 110.7 0 0 0 30.4-51.6 120 120 0 0 0 1.6-49.2c-6-28.8-22.6-54-47.2-71.5a134.6 134.6 0 0 0-52.2-20.8 155.9 155.9 0 0 0-39 .5c-42 6.8-77.8 35.7-92.4 74.4-6.8 18-8.7 40.7-5 59.6 9.2 46.1 47.3 83 95.2 92 10.8 2 39.2 1.5 49-.9zM299.9 306c-5-2.4-7.2-5.7-7.7-11.6-.4-5-.2-5.8 2.9-9.8a43 43 0 0 1 4.4-5c.5-.4 11-.7 23.4-.7h22.3l3 2.4c2.4 2 4 2.5 8.6 2.5 4.5 0 6.6-.5 9.4-2.5 3.6-2.4 4-2.5 22.5-2.5 17 0 19.1.2 22.1 2 4 2.5 6.2 7.3 6.2 13.4 0 4-.4 4.9-4.1 8a16.2 16.2 0 0 1-8.3 4.1c-2.2.3-26.1.7-53 .8-39 .2-49.5 0-51.7-1zm-6.5-31.2a37.4 37.4 0 0 1-15.2-11c-3.1-4.6-3-11.2.3-14.5 1.3-1.4 3.1-2.5 4-2.5 2.5 0 1.7-2.3-1.9-5.1-8-6.5-8.6-14.2-2-30 4.2-10 6.3-12.9 9.3-12.9 1.3 0 3.3 4.6 7.2 16.5 4.6 14 4 19.6-3 25.8-3.7 3.3-3.3 4.7 1.2 4.7 1.8 0 5 1 7.2 2a54 54 0 0 0 29.7.1c3-1 8.5-2.2 12.2-2.6 8.5-.9 10.2-2.7 6-6.2-5-4.4-6.4-7.2-6.4-14 0-9.6 8.3-30.3 12.1-30.3 1.9 0 3.7 3.4 4.3 8 .4 2.8 2 7.8 3.7 11.1 5.5 10.7 4.9 19.7-1.6 24.8-4.6 3.6-2.2 7.1 4.8 7.1 1.8 0 6 1 9.2 2 6.7 2.3 20.3 2.8 23.8.8 1.2-.6 4.7-1.4 7.7-1.7 7-.7 7.7-2.8 2.7-8-2-2-4-4.8-4.6-6.4-1.8-4.6-1.3-11.5.9-14.4 1.1-1.4 2-3 2-3.7 0-.7 1-4.2 2.1-8 1.8-5.6 2.4-6.6 4.2-6.4 1.3.2 2.3 1.4 2.8 3.2.4 1.6 1.6 3.9 2.7 5 4 4.6 8.2 14.4 8.2 19.4 0 4.6-.8 6.5-7.3 17-.5.7.3 1.7 2.2 2.7 5.4 2.8 6.7 11.7 2.5 18.1-5.2 8-6 8.3-32 9l-23 .7-5-2.6c-5.9-3.2-7.3-3.3-12.5-.6-4.4 2.2-8 2.6-36.9 3.3a145 145 0 0 1-21.6-.4zm-93.8 88.5c-1.2-3.3-.5-5 2.4-6.1 3-1.2 3-1.3 3-8.8 0-8.6 1.4-11 7.4-12 5-1 6.7-.1 10 5 1.5 2.4 3.2 4.4 3.7 4.4 1.5 0 1-1-2.7-6.7-3.5-5.2-3.5-5.5-1.8-7.3 1-1 2.2-2 2.8-2 1 .1 5.5 6 13.5 17.2 1.2 1.7 1.1 2.2-1 4.4-1.7 1.8-2.6 2.1-3.5 1.3-1-.8-2.1-.5-4.4 1.1-3.8 2.7-5.4 2.2-7.9-2.7-2.6-5.2-5.5-7.6-8-6.8-1.5.5-2.1 1.4-2 2.8.3 1.7 1.1 2.2 3.9 2.2 3.2 0 3.5.3 3.8 3.2.4 4.1-2.2 6.7-6 6-2.6-.6-2.8-.4-2.8 2.2 0 2.4-.5 3-3.1 3.5-5 1-6.6.8-7.3-1zm283.9-9c-4.3-2.3-6.2-4.2-7-7-.7-3 1.8-9.2 4-10 .8-.4 1.5-1.5 1.5-2.6 0-1 1-3 2.4-4.4 1.4-1.3 2-2.7 1.5-3-1.5-1-2.5.2-8 9l-5.1 8.5-3-1.5c-1.5-.8-2.8-1.7-2.8-2 0-.5 1.8-3.5 10.4-16.7 6-9.3 6.8-9.7 10.7-5 .9 1 6 4.2 11.2 7.1 5.4 2.9 9.7 5.6 9.7 6 0 .4-1.1 1.4-2.5 2.1-2 1.1-3 1-6.8-.3-6.1-2.4-8.7-2.2-8.7.6 0 1.3.7 3.3 1.6 4.5.8 1.2 1.2 2.7.9 3.2-.8 1.3-6.2 1.3-7 0-.9-1.4-2.5-1.2-2.5.4 0 2 3.3 4.6 5.9 4.6 1.2 0 3.6-.7 5.3-1.5 3.2-1.7 4.2-1.3 5.2 2.2.6 1.8-.1 2.5-4.6 4.7-6 3-8.2 3.2-12.3 1zm-291.3-22c.3-3.7.4-3.8 9.3-7.6l10.6-4.6c1.2-.6 1.5-1.3.9-2.9-.8-2-.9-2-13.6 1.7-7 2.2-13 3.7-13.5 3.4-1-.7-.8-4.6.4-6.2.5-.7 1.9-1.3 3-1.3 2 0 2-.1-.6-2.7a19.7 19.7 0 0 1-3.7-6c-2.1-5.9 2-14.3 7-14.3.7 0 2.6 1.2 4 2.6 2.4 2.2 3.1 2.4 4.9 1.5 1.4-.7 2.1-2.1 2.1-4 0-3.2.3-3.5 4-4.4 2.6-.6 2.7-.3 8.8 18.3 3.4 10.4 6.2 19.4 6.2 20 0 .5-1 1.5-2.1 2.1-1.7.9-2.3.9-3-.2-.6-1-3-.3-11 3-14.8 6.2-14.1 6.1-13.7 1.6zm13-23.4c2.5-.9 2.8-1.4 2.2-3.8-1-3.7-.7-3.7-5.3-1l-4 2.2-2-2.2c-1.2-1.2-2.6-2.3-3.1-2.3-2 0-1 3.5 1.7 6.3 3 3 4.5 3.1 10.6.8zm294.5 11.4c-.4-.4-.7-2-.7-3.4 0-1.5-.6-3.5-1.3-4.5-1.2-1.6-1.4-1.6-2.6-.1-.8.8-2.2 1.5-3.2 1.5s-1.9.5-1.9 1c0 1.3-4 1.3-5.8.2-1.1-.7-.8-3 1.6-11.8l3.6-13.6c.7-2.8 2-3.3 6.3-2.1 1.3.3 2.3 1.3 2.3 2.2 0 1.2 3 2.5 12 5 6.6 2 12 4 12 4.6 0 2-2.7 4.5-4.7 4.5-1.8 0-2 .7-2 5.6 0 7.3-2.8 10.5-10 11.2-2.6.2-5.1 0-5.6-.3zm8.9-8.9c.3-1.3 0-4-.6-6-1-3-1.8-3.7-7-5.4l-5.7-2-1 3.5c-1 3.1-1 3.3 1.1 3.3 4.6 0 8.6 2.2 9.2 4.9 1.2 5 3 5.7 4 1.7zm-313.7-75.3c-2.5-6.6-7-8.3-8.8-3.3-.5 1.7-1.6 3-2.4 3-.8 0-2.8.3-4.5.6l-3 .7 2.9-14c1.6-7.8 4.3-18 6-22.8 2.8-7.7 3.4-8.6 5.3-8 1.1.3 2.4.5 2.8.5.5 0 .8.9.8 1.9 0 1.5 2 2.4 10.5 4.6l10.5 2.8-.6 3.6c-.4 2-.8 3.8-1 4 0 .1-2.8-.6-6-1.6-8.1-2.7-16.3-4.7-16.7-4.2-.3.2-.7 1.6-1 3-.6 2.4-.3 2.7 3 3.7 19.2 5.4 19.3 5.5 19.3 7.8 0 1.2-1 2.9-2.4 3.8-1.8 1.2-2.4 2.7-2.8 6.6-.6 6.1-3.7 10-8 10-2.2 0-3.1-.6-3.9-2.7zm6.1-10.6c0-1.2.5-2.8 1.1-3.4.9-.9.5-1.3-1.7-1.8a206 206 0 0 1-7.9-2c-2.7-.8-5.3-1-5.7-.7-1 1.2-2.2 8.6-1.2 8l4.7-2.3 3.8-2 2.5 3.3c3 3.8 4.4 4.1 4.4 1zm292.6 6.2c-.3-1.8-.2-3.5.3-3.8 2.2-1.4 2-7.4-.4-13.2-.5-1.3.3-2.4 3.2-4.2l3.8-2.5 3.6 3.9 3.5 4 1.8-5c1-2.8 2.2-5 2.7-5s.9-1.2.9-2.6c0-2 .5-2.5 3-2.5 1.6 0 3 .2 3 .4 0 .7 6 29.2 6.6 30.8.7 2.3-4.6 3.6-6.1 1.5-.9-1.2-2.6-1.3-10-.6a240 240 0 0 0-12.1 1.4c-2.9.5-3.2.3-3.8-2.6zm23-7c0-.2-.3-3-1-6.1l-1.1-5.8-2.8 4.5c-3.1 4.9-4.2 5.4-7.3 3-2.9-2.1-3.4-1.8-3.2 2.2l.1 3.6 7.5-.6c4-.3 7.5-.7 7.7-.8zm-31.4 2c-.7-.7-1.2-2.4-1.2-3.9 0-4.8 4.2-6.6 7.3-3.1 3.2 3.4 1.5 8.1-2.8 8.1-1.2 0-2.6-.5-3.3-1.2zm0-24.1c-1.2-4.2-1-4.5 4.7-7 8.5-3.6 10.4-7.3 3.2-6.1-4.7.7-5.7-.5-3.4-4.5 1.7-2.9 1.7-3-.1-5-2.4-2.7-5.2-1.1-3.6 1.9 1.4 2.6 1.2 5.5-.5 7-2.3 1.9-7.5-.6-7.5-3.6 0-3.5 2-7.2 4.7-9 5.6-3.7 16-.8 15 4.1-.2 1.4 0 2.4.4 2.4 1.7 0 3.9 3.3 3.9 5.8s0 2.6 1.7 1c1.8-1.9 2.2-.9-7.5-19.8-.3-.8 4.9-3.2 5.5-2.6a198 198 0 0 1 12.7 27.8c-.4.6-2.1.7-3.9.4-2.7-.5-5 .4-13.6 5-5.6 3-10.4 5.4-10.5 5.4-.2 0-.7-1.4-1.2-3.2zm-280-12c-4.1-1.8-6.8-2.5-7.4-2-1 1.1-6.8-.6-6.8-2 0-1 9.9-20.8 11.2-22.4 1.2-1.6 5.8.3 5.8 2.3 0 .8-1.4 4-3 7.3a63 63 0 0 0-3 6.5c0 .5 5.5 3.5 6.4 3.5.3 0 .6-2.8.6-6.3 0-6.6 1.5-10.2 4-9.2a17 17 0 0 1 4.4 5c3 5 7.7 8 10.7 7.2 1-.2 2.3.1 3 .9.8 1 .5 1.6-1 2.4-2.4 1.3-7.3 1.4-8.7.2a10 10 0 0 0-3.1-1.6l-2.3-.7 1.7 4.4c.9 2.5 1.3 5.2 1 6.1-1 2.4-6 1.8-13.6-1.6zM470 174.3c-1.4-1.5-2-2.8-1.4-3.3l9.1-7.1c4.6-3.5 8.3-6.6 8.3-7 0-.4-.9-1.6-2-2.6-2-1.7-2-1.7-4 0a7 7 0 0 0-2 4.5c0 3.2-4 7.3-9.2 9.5-5 2-5.8 2-5.8-1 0-1.7.7-2.8 2.4-3.4 1.4-.5 3.2-2.6 4.2-4.6 1-2 3.3-5.2 5.2-7 3-3 3.3-3.6 2.1-5.2a48.7 48.7 0 0 0-10.4-10.2c-.5 0-2.5 1.3-4.2 2.8l-3.3 2.9 6 1.3c3.3.7 6.3 1.6 6.6 2.1.3.5.3 2.2 0 3.8-.6 2.4-1.4 3-4.6 3.6-4.4.7-9 5.2-9 8.7 0 2 0 2-2 .2-2.7-2.4-2.5-4.4.6-9l2.5-3.7-2.3.7c-6.3 2-6.7 1.9-7.4-1.1-1.3-4.8-.8-5.8 5.8-12.2 5-4.9 6-6.3 4.8-7-1.2-.9-1.2-1.4 0-3.6.7-1.4 1.9-2.6 2.6-2.6 2 0 26.2 23.9 31 30.6 2.4 3.4 4.4 6.7 4.4 7.3 0 1.4-4.5 2.6-6 1.7-.6-.4-5 2.5-9.8 6.4-4.7 3.9-9 7-9.3 7-.3 0-1.6-1-3-2.5zm-245.3-7.1c-2.6-2-4.7-4-4.7-4.7 0-.6.7-3.6 1.5-6.7a66 66 0 0 0 1.5-6.3c0-.4-2.3 1.8-5 5-2.9 3.2-5.5 6-5.9 6.1-.4.2-1.7-.8-3-2l-2.1-2.4 9.3-9.7c9-9.6 9.2-9.7 11.4-8.2 1.3 1 2.3 2.5 2.3 3.5 0 1.1 3.5 4.9 8.5 9.2 10.3 8.9 10.9 11 2.8 11.9-5.9.6-5.5.3-7.7 4.7-1 1.8-2.2 3.2-2.9 3.2a24 24 0 0 1-6-3.6zm11-8.7c.2-.2-.8-1.4-2.2-2.6-2-2-2.7-2.1-4-1-.8.6-1.5 2.5-1.5 4v3l3.7-1.6 4-1.8zm18.7-5.1c-1.8-2.9-1.4-6.1 1.3-9.5 1.7-2 2.3-2.1 11.5-1.5 7 .5 9.8 1.1 10.2 2.2 1 2.3-.3 3.2-4.4 3.2-3 0-4 .5-4.5 2-1.8 5.8-11.1 8.1-14 3.6zm7.6-4c1-1.3.9-1.6-.9-1.6-1.2 0-2.1.7-2.1 1.5 0 .9.4 1.5.9 1.5s1.4-.6 2.1-1.5zm-14.8-5.6c-1.4-.6-2.3-1.7-2.2-2.7.4-3.3 0-4.3-1.8-4.3-1 0-2.2 1-2.7 2.3-1.2 2.6-4 3.4-6 1.7-3.5-2.9-.3-15 4.6-17.5a23 23 0 0 1 8.4-1.5h5.5l-1.6-2.5c-1.7-2.5-1.6-2.7 1.4-5.7s3.2-3.1 5.2-1.3c1 1 2 3 2 4.3 0 1.3 2.5 6.2 5.5 10.7 3 4.5 5.5 8.5 5.5 8.9 0 .5-5.3 3.6-6.3 3.6-.2 0-2.1-2.4-4.3-5.4a29 29 0 0 0-4.5-5.5c-.6 0-2.5 6-3.4 10.9-.7 3.6-2.6 5-5.3 4zm1.8-13.4l.6-2c.5-1.1 0-1.6-1.8-1.6-2.4 0-4.8 1.7-4.8 3.2 0 .5 1.3.8 3 .8 1.6 0 3-.1 3-.4zm186.5 13c-1.1-.7-2-1.8-2-2.2-.4-3.3-2.9-6.3-6.9-8.2l-4.5-2.1 1.4-4.8c.8-2.6 1.5-5.2 1.5-5.7s3.6-.6 8.3-.3c4.6.4 8.8.3 9.5-.1 1.1-.7-7-6.3-12.8-8.8-2.7-1.1-2.7-1-7.6 8.9a92.5 92.5 0 0 1-5.6 10.4c-1 .5-5.8-1.8-5.8-2.8 0-.5 2.2-5.3 5-10.7 3.6-7.3 4.6-10.2 3.8-11-.9-.8-.8-1.8 0-3.7 1-2 1.8-2.5 3.5-2 1.6.3 2.6-.1 3.5-1.5 1.7-2.8 11.7-2.7 17.2 0 4.9 2.5 9 7.8 6.9 9.1-2 1.3-2.4 1.2-6.5-1.6-2-1.3-4.7-2.5-6-2.6-1.3 0-3-.2-3.6-.3-.6 0-1.3.4-1.5 1-.2.7 4.7 4.2 11 8a579 579 0 0 1 11.5 7c1 1-1.2 4.4-2.9 4.4-1.8 0-4.9 4.3-14.4 19.5-.9 1.5-1.2 1.5-3 .2zm4.5-14.8c0-.4-1.8-.8-4-.8h-4.2l2.4 3 2.3 2.8 1.7-2.1c1-1.2 1.8-2.5 1.8-3zm-157 8.2c-1.8-3.4.4-6.1 4.8-5.8 3 .3 3.8.8 4 2.6.2 1.3-.2 3-.8 3.8-1.8 2.2-6.7 1.8-8-.6zm-9.1-9.8l-4.4-3.9 4-4.8c7.6-9 8.7-10.6 8.2-11-.3-.4-4 1-8.4 2.9l-7.8 3.4-2.2-2c-1.2-1.1-2-2.5-1.6-3 .3-.5 6.2-3.7 13.1-7 11.6-5.4 12.7-5.7 13.9-4.1.7.9 1 2.7.7 4-.4 1.3 1 6.6 3.5 13.4 2.8 7.7 3.8 11.7 3 12.5-.5.7-2.7 1-5.7.7a14 14 0 0 0-8 1.1c-1.7 1-3.3 1.6-3.5 1.6-.3 0-2.4-1.7-4.8-3.8zm13.9-5.6c.4-.4-2-6.6-2.7-6.5-.7 0-5.1 6.2-5.1 7.4 0 .6 7-.1 7.8-.9zm106.2 7a18 18 0 0 0-6.9-4c-3.4-1-4.7-1.9-5.4-4-.5-1.5-.7-3-.4-3.2.3-.3 3.8-1.3 7.8-2.4 7.8-2 8.5-2.6 9.4-8.1.8-4.9-.1-7.9-2.6-7.9-2.3 0-2.4.9-.3 3.9 3.4 4.9-1.2 9.6-5.6 5.7-1.3-1.3-2.2-1.3-4.8-.3-2.7 1-3.4.9-5.2-.7-2.8-2.6-2.5-5.3 1.2-8.7 2.6-2.4 2.9-3.2 1.7-4a6 6 0 0 0-2.2-.8c-.6 0 0-4.9.8-5.8.5-.7 5.5 1.8 7.2 3.7 1.6 1.7 2.4 1.9 5.2 1 4-1 5.5-.5 7.1 2.8l1.3 2.7 1-2.7c1.3-3.2 1.9-3.3 5.8-1 3.4 2 3.7 4.4.8 5.8-1.7.7-3.3 4.3-6.9 15.4-2.6 8-5.1 14.6-5.6 14.8-.6.1-2.1-.9-3.4-2.3zm1-8c0-1-1-1.5-2.8-1.5-2.6 0-2.6 0-.8 1.5 2.5 1.8 3.6 1.8 3.6 0zm-32.2-5.7c-2.3-2-2.6-2.1-8.5-1.9l-4.1.2-1.7-5.7c-.9-3.1-1.3-6-1-6.3.3-.4 3.8-2 7.7-3.7 4-1.6 7.3-3.5 7.5-4 .4-1.2-15.3-2.7-17-1.8-.4.3-.7 5.8-.7 12.4v12h-6.9l-.3-11.8c-.3-11.2-.4-11.8-2.4-12-1.4-.3-2.4-1.3-2.7-2.8-.5-2.9 0-3.5 2.8-3.5 1.5 0 2.6-1 3.6-3.2 2.7-6.3 15-9.4 21.1-5.3 3.2 2 4 6.3 1 5-4-1.8-10.3-1.7-12.4.2l-2 1.8 2.8.7c1.6.3 8 .7 14.1.7l11.3.1v3c0 2-.6 3-2 3.3-1.7.5-2 1.4-2 6.9 0 3.5-.3 8.7-.6 11.5-.6 4.4-1 5.2-3 5.6-1.5.3-3.3-.3-4.6-1.4zm.7-14.6c-.7-.8-7.8 3.3-8.3 4.7-.2.6.5 1 1.5 1 1 .1 3 .7 4.3 1.5 2.5 1.4 2.5 1.3 2.8-2.6.2-2.2 0-4.3-.3-4.6zM186 487.9c-1.6-.9-28.4-6.2-40.5-8-19.6-3-32-7.6-47-17.5A135.1 135.1 0 0 1 49.3 408c-6.1-13.3-10-29.4-4.3-18.3a92.4 92.4 0 0 0 18.2 22.3c8.4 7.1 16.8 12.2 38.3 22.8 24.7 12.2 32.6 16.8 43.8 25.7 4.8 3.8 10.7 8 13 9.3 3.7 2 3 1.2-4.8-6.6a86 86 0 0 1-22-35c-1.4-4.5-4.3-18.5-6.5-31-4-23-6-31.5-8.7-36.8-2.8-5.5-.4-3.7 6.2 4.5 15.9 20 23.6 34.4 32.3 59.8 7 20.4 10.6 29.8 14 36a97.3 97.3 0 0 0 21.2 27.6c0 .7-2.4.5-4-.5zm337.6-7.3c11.6-12.4 17.5-24 28-55.2 4.2-12.1 9.4-26.1 11.8-31 3.8-8.1 13.4-23 23.6-36.8 3.5-4.7 5.9-6.3 4.5-3-4 9.2-6.8 21.4-10 44.2-4.3 30.1-10.5 44-28.6 63.6-7.3 7.9-4.6 6.7 6.5-2.9 9.7-8.3 17.3-13 38.1-23.7 22-11.2 27-14 36-19.7a99.4 99.4 0 0 0 27.4-28.5c4.4-7.8 5-7.1 2.5 2.6-7.3 28.5-35.1 59.9-67.7 76.3a117.1 117.1 0 0 1-34.8 10.9 697.5 697.5 0 0 0-40.9 9c-2 .6-1.3-.5 3.6-5.8zm-409.5-51.1c-46.7-30.7-53.5-35.8-66.2-49.4-13.1-14-23.3-34-26.4-51.6-1.6-9.5-2-32.1-.6-31.2a81.6 81.6 0 0 0 17 35.4c3.3 4 13 14.5 21.7 23.5 8.8 8.9 18 19.3 20.7 23.2 13.3 19.2 18 25.5 18.4 25 .3-.3-.6-2.3-2-4.4a73 73 0 0 1-11-42.2c0-11.6.4-15.8 3.6-31.1a127 127 0 0 0 3.7-27.5c0-5.5.4-9.3.9-8.8 1.3 1.5 6 15.2 7.6 22.4 2.6 11.6 4.4 25 6.5 48.5 3.5 38.8 5.4 48.8 12.5 64.1l4.5 10c0 1-2.1-.2-10.9-5.9zm468.9 2.4a30 30 0 0 1 2.6-6.3c6.9-13.5 10.6-30.5 12.9-58.4 2.4-29.9 4.4-47.2 6.5-55.9a137 137 0 0 1 8.1-25c.5-.4.9 2.8.9 7.6a234 234 0 0 0 5.4 39.4c4.7 24.7 2.3 43.8-7.9 62.2-1.9 3.5-3.3 6.3-3 6.3.2 0 2.4-2.8 4.8-6.2l12.8-18.3c5.5-7.9 13.7-17.4 24-28.1 23-23.7 31.9-37.4 35.4-54.7 1.1-5.5 1.7-1.7 1.7 10.5-.1 17.6-3 29.6-10.7 45-6.3 12.6-12.5 21-24.5 33-10.3 10.3-14.2 13.3-38 29.2l-28.8 19.3c-1.4 1-2.2 1.2-2.2.4zM70.7 353.1c-2-3.2-7.2-10.3-11.7-15.8-25.6-31.6-28.3-36.2-33.4-55.8-4.2-16-6-30.6-5.3-44.2.6-11.7 3.8-29 6.9-36.4 1.3-3.2 1.4-2.7 1.4 8.5a88 88 0 0 0 9.3 39.8c14.6 32.1 16.5 37.7 21.6 61.6a92.4 92.4 0 0 0 4.2 15c1 1.7 1.2 1.9.8.5a77.7 77.7 0 0 1 2.4-51.3c3.2-8.8 11.2-24.5 16.3-32.2a92 92 0 0 0 11.3-22.7c2.8-9.4 3.9-7.9 3.2 4.6-1.3 23-6 45.7-18.2 86.6a72.1 72.1 0 0 0-4.7 27.5c0 6.4.2 13.5.6 15.8 1 5.8-.4 5.4-4.7-1.5zm560.7-.1c.4-1 .7-8.5.7-16.7 0-14.1-.1-15.5-3-25a476 476 0 0 1-18-68c-2.6-15-3.9-33.5-2.4-33.5.6 0 1.4 1.5 1.7 3.4 1 5 7.8 18.5 16.5 32.5 14.9 24 18 32.3 18.8 49.1.4 8.9.1 13.4-1.2 19.3-1 4.3-1.5 8-1.2 8.4.3.3 1.5-4 2.7-9.3a233 233 0 0 1 19.4-60.2c9.3-21 13.5-39.4 12.2-53-.5-6.3-.5-6.5 1-4 2.6 4.9 6.4 21 7.4 32 2.5 26.8-5.2 60.6-18.1 79.5-1.6 2.3-8.3 11-15 19.5-6.7 8.4-14 18.1-16.3 21.6-4 6-6.3 8-5.2 4.4zM57 269.5c0-4.3-4.8-20.9-9.5-33.2-10.8-27.5-12-32.8-12-52.5.1-13.7.5-17.9 2.3-24.9a117.8 117.8 0 0 1 20.4-41.6c5.2-7 7.4-8.3 3.8-2.2C55.6 126 54.4 144 58 173c1.8 13.8 2 19.5 1.5 35.4-.3 10.5-.8 21-1.1 23.5-.8 7 1 2 2.8-7.8 3-15.4 10-26.4 28.8-44.7 19.9-19.2 21.7-21.2 23.9-25.5 1.2-2.3 2.4-3.9 2.7-3.6.7.7-2.4 14.6-5.4 23.6-3.9 11.6-9.1 20.7-25 43.5-15.5 22.4-24 38.2-26.3 48.4-1.4 6.2-3 8.2-3 3.8zm590.5-6c-2-11.5-9.3-25-25.4-46.8-17.1-23.1-24.6-35.6-29-48.6-2.6-7.7-6-20.6-5.7-21a279.3 279.3 0 0 0 33.3 33.7 66.4 66.4 0 0 1 24.9 42.3 32 32 0 0 0 2.1 8.4c.3-.3 0-5.3-.6-11.2-1.3-13-1.3-37 0-52 2.8-32.7 2.2-42-3.6-54-3.4-7-3.7-8.7-1.2-6.6 1.9 1.5 14 19.7 16.6 24.8 6.5 13 10 27.4 10.8 44.3.7 16.3-.6 27.1-4.6 38.4l-7 19.6c-2.2 6.4-5 16.4-6.3 22.3-1.3 5.9-2.6 10.7-3 10.7-.3 0-1-1.9-1.3-4.2zM67.4 182.8c.4-5.1.1-17-.5-27-2.2-30.2 1.4-48.5 12.3-62.9a98.5 98.5 0 0 1 19.9-18.5c5.7-3.5 13.9-6.9 13.9-5.8 0 .3-2 2.3-4.3 4.4-8.9 7.8-14 19.5-18.7 43.1-1.7 8.4-5.4 21.9-8 29.9-5.3 15.3-6.2 19.2-3 12.2 5.6-12.4 14.9-22.1 36.6-38.3 17-12.8 24.9-20.7 27.8-28.2 1.6-4.3 2.8-3.2 2 2a89 89 0 0 1-8 23.9 138.5 138.5 0 0 1-36.4 39 141.5 141.5 0 0 0-33.4 35.3c-.5 0-.6-3.9-.2-9.1zm566.2-1.7c-5-7.5-12.6-15-27-26.6l-15-12.3c-15.2-12.3-20.6-18.6-26.2-30.7-3.1-6.8-7.4-20.3-7.4-23.4 0-.8 2.2 1.7 5 5.6 5 7.2 13 14.2 25 22.3 19.5 13 29.3 22.6 36.6 36.2 1.8 3.4 3.4 6 3.4 5.6a405.3 405.3 0 0 1-13-41.7 475.6 475.6 0 0 0-8-28.4c-2.5-6.8-9.1-16-14.6-20.5-5.4-4.4-2.4-4.1 7.4.7a73.4 73.4 0 0 1 33.5 37c4.3 11.3 5 19 4.3 47-.4 15.2-.3 27.6.3 30.5.5 2.8.8 5.2.6 5.3-.1.2-2.4-2.8-4.9-6.6zM97.3 122.3c3-11 8.8-30 10.5-33.9a83.5 83.5 0 0 1 44.1-42c12-5.4 25.1-10.5 25-9.7a42 42 0 0 1-5.6 6.1c-8 7.8-13.3 14.4-25.8 32a144.8 144.8 0 0 1-31.5 34.6c-5.2 4.3-11.3 9.4-13.4 11.4-3 2.7-3.8 3-3.3 1.5zm503-7.1a275.6 275.6 0 0 1-52.2-55.9c-1.9-2.7-7.9-9.6-13.4-15.2a64.4 64.4 0 0 1-9.5-10.8c.3-.3 2 .1 4 1l14.8 6c19.4 7.5 30 14.6 38.7 25.5l5.4 6.8c3.2 4 10.2 19 12.9 27.7 1.7 5.5 3.8 12 4.7 14.4.8 2.3 1.3 4.5 1 4.7-.2.3-3-1.6-6.3-4.2z"/></symbol></svg>
