<svg xmlns="http://www.w3.org/2000/svg" width="642.4" height="547.9">
  <path d="M244.2 544.7c-5-4-6.5-5.5-6.5-6.1a56 56 0 0 1 10.6-10.3 211.3 211.3 0 0 1 17.8-15c2.1-2 16.5-11.4 17.6-11.4.6 0 1-.4 1-.8 0-.5.8-1.2 1.8-1.5 1.7-.5 7.2-3.7 8.2-4.7 1.2-1.2 5.1-3 6.5-3 .8 0 1.5-.3 1.5-.7 0-.4 1-1.2 2.3-1.8 1.2-.5 2.2-1.4 2.2-2 0-1.4-17.2-1.8-21-.4a64.4 64.4 0 0 0-17 9c-.8 0-1.5.4-1.5 1 0 .5-.6 1-1.5 1-.8 0-1.5.4-1.5 1 0 .5-.6 1-1.4 1-.8 0-1.6.3-1.7.8-.7 1.5-21.3 14.7-29 18.5-15.6 7.6-37.5 11.9-50.2 9.7a85 85 0 0 1-30.7-10l-8.7-4.5c-1.2-.6-2.3-1.4-2.3-1.8 0-.4-.5-.8-1.2-.8-1.4 0-11.8-9.2-11.8-10.4 0-.4.4-.5.8-.3a114 114 0 0 0 14.2 5.5c10.5 3 13.2 3.3 26.5 3 13-.5 16.7-1 26.5-3.5 3.5-1 15.6-6 21.5-9 5.8-3 6.5-3.3 7.5-3.3.6 0 3.2-1 5.8-2 5.9-2.7 7.8-3.5 12.2-5a140.5 140.5 0 0 1 19.5-5.8c18-4.4 36.6-4.3 52.9.4 6.1 1.8 9 1.8 13 0 10.8-4.7 39.7-4.9 58.1-.4a165.3 165.3 0 0 1 36.8 14 8 8 0 0 0 2.7.8c.6 0 3.2 1 5.8 2.1a480 480 0 0 0 6.7 3 192 192 0 0 0 18.8 5.8c5.6 1.3 29.1 1.5 33.3.3a175 175 0 0 1 8.4-2.2 49 49 0 0 0 12.5-4.5l5-2.3c2.8-1.6-4.6 6-8.7 9a20 20 0 0 0-4.7 4c0 .5-.7.8-1.6.8-.8 0-1.5.5-1.5 1 0 .6-.5 1-1.2 1s-2.4 1-3.8 2c-1.3 1.1-3.3 2-4.2 2-1 0-1.8.5-1.8 1 0 .6-.8 1-1.8 1s-2.2.4-2.7.9c-.5.4-3 1.4-5.5 2l-6 2c-.8.5-5.9 1.4-11.2 2.2-12.8 1.7-22.7.4-40.3-5.3a122.7 122.7 0 0 1-24.8-11.8c-.6 0-3.6-1.8-6.7-4a273.4 273.4 0 0 0-26.5-17.5c-6-3-26.5-3.4-26.5-.6a32 32 0 0 0 7.8 4.7c4.2 2.1 9.5 5 11.7 6.4l6.8 4c1.5.7 2.7 1.7 2.7 2.2 0 .5.7.8 1.5.8.9 0 1.5.5 1.5 1 0 .6.6 1 1.4 1 .7 0 2.1 1 3.1 2 1 1.1 2.2 2 2.8 2 .5 0 1.4.6 2.1 1.3.7.7 2.8 2.4 4.6 3.7l5 4 4.6 3.7a70 70 0 0 1 13.4 13c0 1.2-9.9 10.3-11.1 10.3-.5 0-6.8-6-14.2-13.2a395 395 0 0 0-23.7-21.8c-1.3-1.2-3.7-2.9-5.2-3.8-1.5-.9-2.8-2-2.8-2.4 0-.4-.6-.8-1.4-.8-.8 0-1.6-.3-1.7-.8a64.8 64.8 0 0 0-23.9-13.2c-4.1 0-15.2 6.2-27 15l-9.1 7a335.3 335.3 0 0 0-31.9 30.8c-3.1 4-4.5 4-9.5 0zm-96.5-50.4c-7.2-.8-17.2-3-23.5-5.4a115.8 115.8 0 0 1-26-14c-6-4-18-16-22.5-22.5l-3.3-4.8 5 3.4 5.3 3.9c.5.6 13 6.6 16.5 8 7.4 3 31.9 7 41.8 7 15.6 0 47 3.8 57.7 7 1.4.4 3.4.4 4.5 0 2-.7 1.9-.8-.5-1.7-1.3-.6-4.5-1.6-7-2.3-2.4-.7-4.9-1.7-5.4-2.1-.5-.5-2-.9-3.3-.9-1.2 0-2.3-.4-2.3-.8 0-.5-.8-1.2-1.7-1.5a38 38 0 0 1-13.4-10 41 41 0 0 1-7.3-9c-.7-.7-2.4-3.3-3.6-5.7-1.2-2.5-3-5.6-4-7-1-1.3-2.8-5-4-7.9-1.3-3-4.3-8.8-6.7-13-2.3-4-4-7.6-3.8-7.9.5-.4 5 2.3 7.2 4.3a764.3 764.3 0 0 1 42.7 39c4 3.8 8 7.5 8.9 8l7.3 5.1c3.3 2.3 9 5.3 13 6.9a204 204 0 0 0 19.2 6.6c4.8 1.4 4 2.9-1.5 3-3.3 0-11.2 1.6-14.8 3-1 .4-4.4 1.3-7.5 2-3 .6-6.6 1.5-8 2l-8 2-9 2c-11 2.5-33.1 4.3-42 3.3zm327.5-2c-3.3-.2-8.4-.8-11.5-1.4a1201.5 1201.5 0 0 0-20-4l-8-1.8-13-3c-9-2.2-12.2-2.8-18.5-4-4.5-1-4.3-1 6.5-4.3 4.2-1.2 8-2.6 8.5-3 .5-.5 2-.9 3.2-.9 1.3 0 2.3-.4 2.3-1 0-.5.8-1 1.8-1s2.9-.9 4.2-2c1.4-1 2.9-2 3.3-2 1.8 0 10-7.1 25.1-22a428 428 0 0 1 33.6-31c6.7-5.7 8.4-6.9 9.1-7 .4 0-1.9 5.1-5 11.3-3 6.2-6.9 14.2-8.5 17.8-5 11-12.4 21.5-19.7 27.4a88 88 0 0 1-18.5 9.5c-.8 0-2.2.4-3.1 1-1 .5-3.2 1.4-5 2-5.5 2.1-2.8 2.8 5.4 1.4 22.3-3.7 32-4.9 60.3-7.4a124 124 0 0 0 45-10.8c1.4-.5 5.4-3 8.8-5.7 3.5-2.6 6.6-4.5 6.9-4.2.7.8-4.6 8.3-9.4 13.2a92.5 92.5 0 0 1-18.3 15.5c0 .6-.6 1-1.5 1-.8 0-1.5.4-1.5.8s-1.4 1.4-3.2 2.1c-1.8.8-4.4 2.2-5.8 3.2-1.3.9-4.3 2.3-6.5 3A94 94 0 0 1 504 491a154 154 0 0 1-28.7 1.4zm-320.5-31.4c-3.3-1.1-18.8-4-32-6a154.5 154.5 0 0 1-30.2-7.8c-9.5-3.7-25.1-14-35.3-23.4a248 248 0 0 1-8.7-8.3l-4.3-5c-2-2.2-5-6.2-6.7-9a48.4 48.4 0 0 0-3.9-5.5 123 123 0 0 1-9.4-19.5c-2.4-6.9-1.4-7.3 2.8-1.2 5 7.3 16.4 18.7 18.6 18.7.5 0 1.1.4 1.3.8.6 1.4 6.6 5.2 8.2 5.2 1 0 1.6.4 1.6 1 0 .4 6.7 4 14.8 8l16.7 8.3 16.1 8.7a137.7 137.7 0 0 1 22.5 16.8c1.9 1.4 9 4.5 9 3.8 0-.3-3.4-3.9-7.5-8-6.7-6.9-15.6-19-15.6-21.5 0-.6-.3-1-.7-1-.8 0-2-3.2-5-12.6a398 398 0 0 1-5.3-27 402.2 402.2 0 0 0-5.4-27c-2.8-9.2-1.8-9.4 4.3-1.1a172.3 172.3 0 0 1 29.8 58.6c3.7 11.3 7.1 19.7 11.4 28.4a97.8 97.8 0 0 0 17 24.8c1.1 2 .2 2.2-4 .8zm152.5-.6a239.7 239.7 0 0 1-61.5-13.6l-4.5-1.8a256.1 256.1 0 0 1-38-19c-1 0-13-8.2-13.3-9.1-.2-.5-1-.9-1.7-.9s-1.5-.3-1.6-.8c-.2-.4-2.4-2.3-4.8-4.2-17-13.3-35.4-33-49-53-1.2-1.5-2.3-2-4.4-1.7-2.8.4-2.9.4-2.2-3.5.5-3.4 0-5.1-4.5-13.4a231.2 231.2 0 0 1-21.8-56.9 178 178 0 0 1-5.6-54c0-25.7.7-32 5.5-52 3-12.3 10.2-33.1 12.2-35 .7-.7.8-.4.3 1-3.4 9.3-8.5 27.2-9.6 33.5-4 23.4-4.2 26.4-4.3 46.5-.1 40.3 6.5 68.9 24 104.2 8 16 9 17 12.9 13.6 2.6-2.4 10.2-6 14.4-6.8 8-1.6 23.7-.6 36.5 2.3 2.2.5 7.4 2.6 11.6 4.6 4.2 2 8 3.6 8.3 3.6.8 0-.9-3.3-2.7-5.1a110.6 110.6 0 0 1-20.4-51.4c-.9-6-2.3-11.9-3.1-13-.9-1.1-3.8-3.2-6.5-4.5-3.9-2-4.5-2.5-2.8-2.8a11 11 0 0 1 5.3 1.2c3.7 2 4.8 1.4 4.8-2.2a48.8 48.8 0 0 0-9.9-22.2c-2.7-4.1-12.7-12-15.3-12-.9 0-2-.4-2.3-1-.8-1.4-9.6-1.2-12.7.3-3.6 1.7-7.8 8.4-7.8 12.5 0 3.4 1.4 6.8 3.4 8.7 2.1 2 8.5 3.6 11.3 3 2.7-.7 2.8-.6.8.9-2.8 2.2-6.1 2-11.6-.6-5.4-2.6-7.9-6.6-7.9-12.8 0-12.4 13-20.2 26-15.8a42 42 0 0 1 16 11c3 4 8 14.3 8 16.3 0 .9.5 1.5 1 1.5.6 0 1-2.1 1-4.7 0-4.7 4.3-23.9 5.6-25.1a198 198 0 0 0-2 15.8c-2.7 22-1.8 25.3 3.9 14.3a46 46 0 0 1 24-22.3 41 41 0 0 1 21.3-1l4.7 2.2a41.4 41.4 0 0 1 12.5 11.8c0 2 4 1 6.5-1.5 2.1-2.2 2.5-3.2 2-6-.7-3.3-.6-3.5 2.3-3.5 4.2 0 7.5-4.2 10.1-12.7 2.5-8 3.6-13.3 2.8-13.3-.3 0-2.6 1-5.2 2-4.8 2.1-12.4 2.7-14 1.1-3.5-3.3-9.4-5.2-18.4-6a47.4 47.4 0 0 1-12.1-2.2 29 29 0 0 1-12.8-19.4c-3.3-15-3.9-21.8-2-25.9.6-1.3.8-3.2.4-4.2-.6-1.5-.8-1.5-2.4.6-5.8 7.8-8.4 8.8-19.2 8-6.9-.4-14-6.2-14-11.3 0-3-5-8.7-7.6-8.7-1.8 0-10.4-5.7-10.4-7 0-.4-.7-1.6-1.6-2.5-2-2-4.3-11.3-4.4-17.2 0-2.7 1-6.3 2.6-9.4 2.9-5.7 2.8-7.3-.5-15.9a33 33 0 0 1-2-7.3c0-3 3.4-9 7.3-12.5l3.2-3c3-2.9 12.9-8.1 18.3-9.7 3-1 7-2 8.5-2.6 7-2.1 16.6 0 19.9 4.5 3.4 4.7 6.4 3.6 14.6-5.4 4-4.4 7.7-8 8.2-8 1.7 0 7.9-5.5 15-13.5A39 39 0 0 1 266 23.9a56.7 56.7 0 0 0 21.4-8.7l6.2-3.3h17c9.5 0 18 .4 18.9 1 2.3 1.1 8.6 3 10 3 1.5 0 .9-4.5-1-6.6-1-1.3-2.8-1.4-10.8-.9-9.2.7-9.8.6-12.4-1.7-2.6-2.2-2.7-2.6-1.5-4.6a4.5 4.5 0 0 1 4-2.1h2.4L318 1.3c-2.6 1.2-3 3-.9 4.6 1 1 3.7 1 10.3.1 10.4-1.2 13.5-.5 15.8 4 .8 1.6 1.5 5.2 1.5 8 0 4.9 1.5 8 3.8 8 1.4 0 9 7.9 9.7 10 .4 1.1 1 2 1.6 2 .5 0 1 .6 1 1.4 0 2.7 10.9 23.3 14.8 28 3 3.5 4.2 5.9 4.3 8.5a128.5 128.5 0 0 0 .7 9c0 .8.8 1 2.1.6 2.3-.7 2.5.3 1 3.9-2.2 4.6 6.8 14.9 18.7 21.6 1.6.8 3 1.8 3.3 2 .3.4 2.2 1.4 4.3 2.4 2.5 1.1 3.7 2.4 3.7 3.7a20 20 0 0 1-4.6 9.7c-3.5 3.5-2.2 10.4 2.6 13.9 1.1.9 1.6 3.2 1.7 9.3 0 4.4-.3 8-.8 8-1.5 0-1 4.7 1.1 10 1.1 2.8 2 6 2 7.1 0 2.2-2.5 7.6-4.4 9.5a46 46 0 0 1-15.9 5.4c-1.5 0-2.7.5-2.7 1 0 .6-1.4 1-3.2 1-5 0-14.8 3.6-18.4 6.7-4.7 4.1-9.9 18.4-13.8 38.2-2.3 11.6-2.4 16-.6 23.1 2.8 10.6 16.6 35.9 19.8 36 .7 0 1.2.3 1.2.6 0 2-9 17.9-19.2 33.7-6.7 10.3-7.2 10.6-13.7 8.6l-7-2c-7.4-2.3-21-9.7-22-12 0-.5-.7-.9-1.2-.9a13 13 0 0 1-4.2-3c-1.7-1.6-3.5-3-4-3a93.7 93.7 0 0 0-25.5-13c-1.7-.8-5.6-2-14-4-4.7-1.2-5.4-3.2-2.4-7.7 2-3.3 6.3-7.2 7.8-7.2 2.3-.1 5.5-5.2 14.2-22.6 10.1-20.2 12.2-27 12.2-39.1 0-8.6-1.5-17.4-3-17.4-1.7 0-4 4.6-4 8.1 0 3.4-.3 3.7-4 4.8-2.3.7-4.3 2-4.6 3-1.6 5-2.3 5.5-2 1.2.1-4 .4-4.5 3.5-5.5 3.8-1.3 5-3.3 5-8.8.1-3.5 0-3.8-2.6-3.7-1.5 0-3.5.5-4.3 1.2a21.5 21.5 0 0 0-6.5 10.8c-1 6-6.6 15.1-10.2 16.9-1.7.8-3.7 2.8-4.4 4.4-.6 1.5-2.9 4.1-5 5.8-3.6 3-3.7 3.1-3.7 10.2 0 4.2-.7 8.7-1.6 11-1.8 4-6.6 9.6-8.4 9.6-.7 0-1.2.5-1.2 1 0 .6-.8 1-2 1-1 0-2.1.5-2.5 1-1.4 2.3-17.5.3-17.5-2.2 0-.4-.5-.8-1.2-.8-1.5 0-5.2-5.1-6.7-9.3-2.1-5.6-.6-11.2 4.4-16.3 3-2.9 11.1-5.2 12.8-3.5.6.6 1.8 1.1 2.7 1.1.9 0 2.2 1 3 2.2.9 1.1 2 2.7 2.8 3.4 2.8 3 .3 12.4-3.3 12.4-.8 0-1.5.5-1.5 1 0 .6-.6 1-1.5 1-.8 0-1.5-.4-1.5-1 0-.5.7-1 1.5-1s2.1-1 3-2.2c4.1-6-.5-13.8-8.2-13.8-3.2 0-4.7.7-7 3.1-5.2 5.3-5 12 .6 18.3 3.3 3.7 14 6.2 15.6 3.6.4-.5 1.4-1 2.3-1 2.6 0 6.7-4 9-8.7 2.6-5 3-14 .8-14.9-.8-.3-1.3-1.4-1-2.4.4-2.5-8.6-12-11.4-12-1.1 0-2.2-.5-2.4-1.2-.6-1.6-15.6-1.7-18.9 0L208 239c-1.8.7-3.3 1.7-3.3 2 0 .5-.6.8-1.4.8-1.7 0-13 12-15.2 16.3a33.3 33.3 0 0 0-3.7 15.8c.6 4.8 2.4 16.1 3 18.2.5 2 3.3 2.4 3.3.5 0-.7 1.2-2.6 2.5-4.3 1.8-2 2.3-2.4 1.9-1a38 38 0 0 0-3.3 10.2c-1.3 5.9-1.2 6.5 1.5 13.5 3.1 8.3 6.2 13.8 7.5 13.8.5 0 1-2.9 1-6.4 0-8.7 1.4-9 1.7-.4.5 11.5 3.2 18.4 10 25.2a107.5 107.5 0 0 0 16.1 13.5l5.8 3.2c6.2 3.5 7.1 2.3 2.2-2.8a58.8 58.8 0 0 1-13.8-22.2 42.5 42.5 0 0 1-1.3-29.6c3-9 4.4-11.6 6.2-11.2 2.4.4 12 19.9 12.7 25.7 1.2 9.7-2.6 20.2-8 22.6-3.9 1.7-3.1 4.2 3.5 11 3.5 3.6 6.5 7 6.7 7.5.1.5.9 1 1.6 1 .7 0 1.8.6 2.5 1.4 1.9 2.2 7 4.5 10.1 4.5 1.6 0 3 .4 3.3.9 1.5 2.4 29.8 3.3 39.1 1.3 8.2-1.7 13-2.9 15-3.6 2.8-1 11-5 11.5-5.6.3-.2 2.3-1.3 4.5-2.2l4-1.8-3.5 3a23 23 0 0 1-5.5 3.6 113 113 0 0 1-35 11.2c-8 1-25.8-.4-35-2.6-6.7-1.6-16.5-5-21-7.5-13.5-7.1-16.4-8.2-25-9.3l-6-.7 4.9-.8c2.6-.4 5.1-1 5.5-1.4 2-2-20.6-13.4-29.8-15-5.6-.9-13.2 2.8-20.9 10.2-6.6 6.4-10.6 8.3-17.3 8.3-6 0-6.3 1.4-1.6 7.4a241.3 241.3 0 0 0 53.6 50.6c.4 0 1.7 1 2.9 2 4.7 4.4 42.5 24 46.3 24 .5 0 1.8.5 3 1l4 2c1 .6 2.8 1 3.9 1 1 0 2.2.4 2.5 1 .3.4 1.7 1 3.3 1.3 1.5.3 4.5 1 6.7 1.7a198.7 198.7 0 0 0 59.5 7.7c24.7.5 29 .2 45-2.8 11.4-2.2 15.6-3.1 17.6-4 1.2-.6 3-.9 4-.7 1.2.3-.5 1.1-4 2.2l-8.4 2.7c-1.2.5-3.3 1-4.7 1-1.3 0-2.6.3-2.9.8-.3.5-2.4 1.2-4.8 1.5-2.3.4-7.2 1-10.8 1.7a259.1 259.1 0 0 1-54.5 2.3zm175.5-1c0-.6 1-2 2.1-3 8.2-7.3 17.4-23.8 23.6-42.4 11.5-34 15.9-44 25.8-59 7.3-10.9 7.3-11 10.5-14.9 1.1-1.3 2-2.8 2-3.2 0-.5.4-.9 1-.9.4 0 .2 2.2-.7 4.8a169 169 0 0 0-6.3 30.2c-5.2 36.5-9.8 47.1-29.2 67.8-6.9 7.4-2.3 6.8 5.9-.8a143 143 0 0 1 23.8-17l21-11c21.2-10.9 23.8-12.2 26-14.2 1-1 2.5-1.8 3.2-1.8.7 0 1.3-.3 1.3-.8 0-.4 1.3-1.5 2.8-2.4 1.5-1 5.7-4.6 9.2-8.1a52 52 0 0 0 11-13.2c2.5-3.9 2.5-3.9 2.8-1.4.7 5.6-10.5 27-20 38.3a130 130 0 0 1-17.7 17.4c-2.6 3-15.2 12-20 14.4a19.6 19.6 0 0 0-5 3c0 .5-.8.8-1.5.8s-2.6.7-4.2 1.4c-8.8 4.3-15.7 6.2-33.9 9.7l-10.5 2c-5.5 1-17.7 3.7-20.7 4.5-1.3.4-2.3.2-2.3-.3zM245 432.5c-4.6-2.3-5.3-10-1.3-14.6 2.4-2.8 9-2.9 10.8 0 1 1.6 1 2-.2 2-.8 0-1.7-.5-2-1-1-1.6-5.2-1.3-6.6.4-1.5 2-1.5 9.2 0 11.1 1.6 1.9 5.5 1.8 7 0 1.5-1.9 3-2 3-.3 0 1.4-4.6 3.8-7 3.6-.8 0-2.5-.6-3.7-1.2zm19 0c-2.7-1.3-4.7-6.8-3.9-10.2 2.4-9.3 16.6-8 16.6 1.5 0 7.8-6 12-12.7 8.7zm8.2-2.9c3.2-4.6.7-11.8-4-11.8-3.3 0-6 4.1-5 7.8 1.5 6 6.1 8 9 4zm45.1 2.7c-.3-1-.6-5-.6-9v-7.5h6c3.4 0 6 .5 6 1 0 .6-1.7 1-3.9 1-4 0-5.6 1.6-4.5 4.5.4 1 1.8 1.3 4.5 1 3-.2 4 0 4 1.1 0 1-1.3 1.4-4.6 1.4-4.6 0-5.3.8-3.9 4.5.4 1 2 1.5 4.5 1.5 2.2 0 4 .5 4 1 0 .6-2.5 1-5.5 1-4 0-5.5-.4-6-1.5zm34 .9c-.3-.4-.6-4.4-.6-9v-8.4h6c3.4 0 6 .5 6 1 0 .6-2 1-4.5 1-4.4 0-4.6.1-4.3 2.8.3 2.4.8 2.8 4.1 3 4.7.4 4 2.2-.9 2.2-3.2 0-3.5.2-3.2 2.8.3 2.8.3 2.8 7.1 3.1 1 0 1.6.6 1.2 1.1-.7 1.1-9.8 1.4-10.8.4zm26.8-.2a4.4 4.4 0 0 1-1.5-1.7c-.2-.5-1.5-2.9-2.9-5.2-3.5-6-5.2-5.6-4.8.9.2 3.5 0 5.3-1 5.6-.9.3-1.2-1.8-1.2-8.2 0-7.8.2-8.6 2-8.6 1.7 0 8 8.6 8 11 0 .6.5 1 1 1 .6 0 1-2.6 1-6 0-4.6.4-6 1.5-6 1.2 0 1.5 1.5 1.4 8-.2 7.8-1.3 10.7-3.5 9.2zm11.4-.5c-4-3-4.3-9.5-.9-14.4 2-2.7 9.1-3.2 11.1-.7 1.8 2 .4 3.1-2 1.6-3-1.9-5.8-1.4-7.6 1.4-1.6 2.4-1.6 3-.3 6.8 1.1 3.2 2 4.2 4 4.4 1.5.2 3.2-.4 3.9-1.2 1.5-1.9 3-2 3-.3 0 1.5-4.5 3.7-7.4 3.7-1.1 0-2.8-.6-3.8-1.3zm16.4.1c-1.2-1.2-1.6-12.4-.6-15.2.5-1.2 2-1.6 6-1.6 3 0 5.4.5 5.4 1 0 .6-1.8 1-4 1-3.5 0-4 .3-4 2.4 0 2.6 1.7 3.6 5.7 3.6 1.4 0 2.2.5 1.8 1-.3.6-2.2 1-4.1 1-3.2 0-3.5.2-3.2 2.8.3 2.4.8 2.8 4.8 3.2 3.3.4 4 .7 2.7 1.3-2.8 1.1-9.1.9-10.5-.5zm-125.2-8.2c0-8.2.1-8.6 2.3-8.6 2.2 0 3.6 1.8 7.5 9.4 1.3 2.6 1.6 2.7 2.5 1.1.5-1 .7-3.7.5-6-.4-3.4-.2-4.5.9-4.5 1 0 1.3 2 1.3 8.5 0 7.8-.1 8.5-2 8.5-1.4 0-2.8-1.7-5-6-1.8-3.5-3.5-5.8-4-5.3-.5.4-1 3-1.2 5.8-.1 2.8-.8 5-1.5 5.3-1 .3-1.3-1.8-1.3-8.2zm20.8 7.7c-.7-1.2-.8-12.5-.2-14.5.4-1.4 1.7-1.8 6-1.8 3 0 5.4.5 5.4 1 0 .6-1.7 1-3.9 1-2.5 0-4 .6-4.4 1.5-1.2 3 .4 4.5 4.4 4.5 2.2 0 4 .5 4 1 0 .6-1.8 1-4 1-3.7 0-4 .2-4.3 3.2-.3 3-2 4.9-3 3.1zm31.9 0c-.4-.3-.7-4.1-.7-8.4v-7.9h6c6.8 0 6.8 0 7 10.4 0 4.9-.4 6.7-1.3 6.4-.6-.2-1.4-1.7-1.7-3.3-.3-2.2-1.1-3-2.9-3.3-2.6-.4-4 1.2-4 4.6 0 2.2-1 2.9-2.4 1.6zm9.1-11c-.2-2-1-2.9-2.6-3.1-3-.4-4.5 1-3.7 3.7.5 1.6 1.5 2.1 3.7 2.1 2.6 0 3-.3 2.6-2.7zM89.2 404.9c-3.8-2.7-7.5-4.9-8-5-.7 0-2-.9-3-2-1-1-2.2-2-2.7-2-.8 0-20.1-12.6-23.6-15.5l-7.7-6.1a52.4 52.4 0 0 1-6.3-5.6c-.2-.4-1-.8-1.7-.8s-1.5-.4-1.6-.9c-.2-.5-3.4-4.1-7.2-8a90.8 90.8 0 0 1-16.1-22.8c-.4-1.3-1.1-2.3-1.6-2.3-.6 0-1-.6-1-1.3 0-.8-.9-3.4-2-5.9-4.1-9.4-7.9-31.3-6.4-37.4.7-2.5 2.4-2.3 2.4.3 0 2.6 6.9 15.3 11.8 21.7 5.3 7 4.3 5.9 21.2 23.3A175.9 175.9 0 0 1 63.8 368c.4.3 1.3 1.9 2.2 3.5 2.2 4.4 8.4 11.2 9.3 10.3.4-.4 0-1.6-1-2.6-.8-1-1.6-2.6-1.6-3.5 0-1-.3-1.7-.8-1.7s-1.3-1.4-2-3.2a86.5 86.5 0 0 1-4.2-56.3c3.6-16.3 5-24.9 5-30.7 0-3.2.5-5.8 1-5.8 1.3 0 4.5 10.9 7 23.7 1.2 5.9 3.2 21.8 4.6 35.3 4.5 44 6.1 53 12.1 65.3a85 85 0 0 1 3.3 7.3c0 1.4-3.2-.2-9.5-4.6zm455 .4c.4-1.5 1-3 1.4-3.4.5-.2 1-1.4 1.4-2.5l2.7-7.5c3-8.2 5.7-23.3 7.5-43l2.6-29.5c1.2-14 4.1-28.8 7.8-40l2.6-8 1.1 11c1.2 11.4 3.2 24.4 4 25.5.2.4 1 5.6 2 11.6a81 81 0 0 1-6.6 50c-1 2-2 4-2 4.5 0 .6-.6 1.8-1.5 2.6-1.7 1.7-2 3.3-.4 3.3.6 0 1.3-.9 1.6-2 .3-1 1-2 1.4-2 .4 0 3.1-3.5 6-7.7a193.4 193.4 0 0 1 31.8-39.2c16.5-16.7 29.1-33.8 29.1-39.5 0-.9.5-1.6 1-1.6.6 0 1-.5 1-1.2s.5-3 1.1-5.2c1.8-6.3 3-2.3 2.4 7.4-.8 11-2 18.6-4.5 26.1-2 6.2-10.2 23.2-12.3 25.5a166 166 0 0 1-32.3 34.2c-.7.7-1.7 1.2-2.2 1.2-.6 0-1.2.4-1.3.8-.4 1-9.4 7.2-10.3 7.2a9 9 0 0 0-2.8 2 21.5 21.5 0 0 1-5 3.3c-1.5.7-2.8 1.6-2.8 2 0 .4-.5.7-1 .7a40 40 0 0 0-10.8 7.2c-.2.5-1 .8-1.7.8s-1.5.4-1.6.8c-.2.5-2.6 2.4-5.3 4.2l-4.9 3.3zm-307.7-4.8c-2.3-1.7-2.2-2.6.2-2.6 1.1 0 2 .5 2 1 0 .6 1.4 1 3.1 1 2.6 0 3-.3 2.7-2.1-.1-1.2-1-2.5-1.8-2.9l-4.2-2c-3.5-1.7-4.5-4.6-2.2-7 2.1-2.4 7.7-2.6 9.4-.4 1.6 1.8.5 3.3-1.2 1.6a5.8 5.8 0 0 0-3.5-1.2c-3.9 0-2.6 4.3 1.6 5.6 3.2 1 6.1 3.7 6.1 5.6 0 .4-1 1.7-2.2 2.8-2.5 2.3-7.4 2.6-10 .6zm16 .2c-.2-.7-.3-2.8-.2-4.8l.3-7.7.1-4.3h5.5c3 0 5.5.5 5.5 1 0 .6-2 1-4.5 1-4.4 0-4.6.1-4.3 2.8.3 2.4.8 2.8 4.6 3 5.7.5 5.4 2.2-.3 2.2-4.4 0-4.6.1-4.3 2.8.3 2.5.7 2.8 5 3 2.7.2 4.8.8 4.8 1.3 0 1.5-11.7 1.2-12.2-.3zm15.8-2.4c-.4-2-.4-6 0-9 .9-7.2 3-7.2 7 .3 4.1 7.9 5.4 8 5.4.4 0-3.4.5-6 1-6 .6 0 1 3.6 1 9 0 8-.2 9-1.8 9-1.2 0-2.5-1.5-3.7-4.1-1.8-4.1-4.7-8-5.8-8-.4 0-.7 2.7-.7 6 0 6.7-1.4 8-2.4 2.4zm20.4-5.4v-9h6c6.9 0 8.2 1.8 1.8 2.2-3.8.3-4.3.6-4.3 2.8 0 2.2.5 2.6 3.8 2.8 5 .5 4.8 2.2-.2 2.2-2.8 0-4 .5-4.3 1.8-.8 3.3.3 4.2 4.9 4.2 2.7 0 4.2.4 3.8 1-.3.6-3 1-6 1h-5.5zm18.8 7.7c-4.1-3.2-4.4-10.1-.5-14.4 2.8-3 8.7-3.1 10.6-.2 1.7 2.8.7 3.7-1.7 1.6-4.2-3.8-8.4-1.2-8.4 5.3 0 2.2.5 4.7 1.2 5.5 1.6 2 5.4 2 7 0 1.5-1.7 3-2 3-.3 0 3.3-7.8 5-11.2 2.5zm15.6-1.8c1.5-7.3 4.9-14.9 6.7-14.9 1.7 0 4.3 5.5 7 14.3 1 3.6-.3 4.2-3 1.2-1-1.4-3-2.5-4-2.5-2 0-5 2.5-5 4.1 0 .5-.6 1-1.2 1-.7 0-.9-1.2-.5-3.2zm8.9-4.5c.7-.7-1.2-6.4-2.3-6.4-1 0-3 5.7-2.2 6.4.3.4 1.3.6 2.2.6 1 0 2-.2 2.3-.6zm16.4 7c-.4-.4-.7-4.4-.7-9v-8.4h6c3.4 0 6 .5 6 1 0 .6-2 1-4.5 1-4.3 0-4.5.1-4.5 3s.2 3 4 3c2.2 0 4 .5 4 1 0 .6-1.8 1-4 1h-4v4c0 3.8-.8 5-2.3 3.4zm12.3.4l2.6-7.3a243 243 0 0 0 3.1-8.7c.3-1 1.4-1.8 2.4-1.8 1.3 0 2.6 2.1 4.9 8 1.6 4.4 3 8.4 3 9 0 1.7-1.5 1.2-3.8-1.5-1.2-1.3-3-2.5-4-2.5-2.1 0-5.2 2.5-5.2 4.1 0 .5-.6 1-1.5 1-.8 0-1.5-.2-1.5-.3zm10-9c0-1.3-.4-3-1-3.8-.9-1.3-1-1.3-2 0-1.7 2.7-1.2 6 1 6 1.4 0 2-.6 2-2.2zm10 .2c0-5 .4-9 1-9 1.4 0 2 2.9 2 9.6v6.4h4.5c2.5 0 4.5.5 4.5 1 0 .6-2.6 1-6 1h-6zm15 0c0-7.3.3-9 1.5-9s1.5 1.6 1.5 8v8h4.5c2.5 0 4.5.5 4.5 1 0 .6-2.6 1-6 1h-6zm16.6 7.5c-2.4-1.8-1.2-3.3 1.5-1.7a10 10 0 0 0 4.5 1.2c2 0 2.5-.4 2.2-2.1-.1-1.2-1-2.5-1.8-2.9-6.4-2.9-7.5-3.8-7.8-5.8-.4-3 2.3-5 6.4-5.1 2.9 0 5.4 1.4 5.4 3.1 0 .5-.6.8-1.5.8-.8 0-1.5-.4-1.5-1s-1.2-1-2.7-.8c-4.2.5-3.4 3 2 5.7 3.7 2 4.7 3 4.7 5 0 1.3-.8 3-1.7 3.7-2.3 1.8-7.3 1.7-9.7 0zm-113-49.1c-4.9-1.1-13.2-3.8-14-4.5-.5-.5-1.7-.9-2.7-.9-1 0-1.9-.3-2-.8-.2-.4-2.4-2.2-5-3.9a54.4 54.4 0 0 1-17.3-24.1c-.8-2.3-.6-2.4 3.6-1.7A177 177 0 0 1 286 321c8.4 4.4 11 6.6 15.5 12.8a18 18 0 0 1 2.9 9.8l.5 6.5 12.6-.6c7-.3 14-.8 15.6-1.2 1.7-.4 2.7-.4 2.3 0-2.3 2.5-28.7 4.5-36.3 2.9zM47 329.7a141 141 0 0 0-11-14.5c-1.1-1.5-3-3.9-4.3-5.3a132.2 132.2 0 0 1-7.5-9.3C7.7 281.6-1.4 248.9.8 217.1c1.1-15.4 6-32.8 6-21.4 0 5 2.4 19 4.3 24.6 1.6 4.6 3 7.9 9.6 22.6 7.5 16.8 8.2 18.4 9.7 22.7.8 2.5 3 11.3 5 19.6 1.8 8.4 4 16.8 4.6 18.7 1.6 5 3.1 6.3 2.3 2a77.8 77.8 0 0 1 4.7-52.3 108 108 0 0 1 9.7-19.3c0-.2 2.4-4.1 5.2-8.6 2.9-4.6 6.7-11.9 8.6-16.3l3.3-8-.6 11.5c-1 19.5-4.5 36.7-14.6 71l-6.3 21.5v15.3c0 8.4-.3 15.2-.6 15.2a42 42 0 0 1-4.7-6.2zm543.2-6.3a88 88 0 0 0-4.5-34.6 425.7 425.7 0 0 1-18-73.4c-1.2-10.5-1-18.7.4-15 2.2 5.9 9.3 19.6 12.8 24.9 2.2 3.3 4.9 7.8 6 10 1.2 2.3 2.4 4.4 2.7 4.6 1.1 1 6 10.4 7.6 15a67.6 67.6 0 0 1 4.6 25c0 8.6-.4 11.8-2.6 21.3-.4 1.5-.3 2.7.3 2.7 1 0 3.2-4.3 3.2-6.5 0-2.1 6.6-29 8.5-35 1-2.7 2.5-6.9 3.6-9.2 1-2.3 2-4.7 2-5.2a70 70 0 0 1 3.9-9.3c8.5-18 11.5-28.3 12.5-44.2l.8-10.9 1.9 5c5.2 13.7 6.6 40.7 2.9 59.2a111.4 111.4 0 0 1-15.4 40.7 33 33 0 0 0-2.7 3.4c-.8 1.2-2.1 3-3 4l-3 4a64 64 0 0 1-3.3 4.4 147.4 147.4 0 0 0-7.2 9l-6.2 8.1c-9.4 12.5-8.6 12.3-7.8 2zm-429.7.9c.8-.3 1.6-.3 2 0 .3.4-.3.6-1.4.6-1.1 0-1.4-.3-.6-.6zm-12.4-4.2A22.9 22.9 0 0 1 138 303c-.7-9.5 2.3-15.4 10.7-21.1 5-3.4 14.3-3.4 19.1 0 7.3 5.1 9.5 9.2 8.8 16.4-.4 4.3-1 5.6-4.2 8.3-4.8 4.1-10 5-15.4 2.7-8.7-3.8-8.4-15.2.5-18.2 1.7-.5 3.4-.7 3.8-.4.3.3-.9 1-2.7 1.7-4.8 1.6-6.2 7.4-2.8 12.5 1.3 2.1 11.1 2 13.2 0 4-4 4.7-8 2.3-13.2-3.5-7.1-14.7-10.3-20.5-5.8-1.3 1.1-3 2-3.6 2-1.6 0-6.4 10.5-6.4 14 0 5 5.5 14.6 10.2 18 2.3 1.7 3.5 3 2.6 3-.8 0-3.2-1.2-5.4-2.8zM382.7 289c0-.5.4-1 .8-1s1.6-2.2 2.5-5c1-2.7 2.3-5 2.8-5 .6 0 .8.5.4 1-1.2 2 1.5 1 7.4-3 3.3-2.2 7-4 8-4 1.2 0 2.1-.3 2.1-.8s2-1.4 4.3-2.1l7.1-2.2c4-1.2 8.4-1.1 14.8.3 6.8 1.4 12 3.7 11.6 5-.2.6-2.4 2.2-4.8 3.6-2.5 1.3-5.6 3.2-7 4.2-11.5 7.9-26.6 8.1-33.2.5-1.2-1.4-2.6-2.5-3.2-2.5a33 33 0 0 0-7 6c-6 6.3-6.6 6.7-6.6 5zm8.1-18.2c0-.7.5-2.2 1-3.3.6-1.6.8-1.4.9 1.3 0 1.8-.4 3.2-1 3.2-.5 0-1-.5-.9-1.2zM224.6 268c-1.3-1.1-2-2-1.4-2 1.5 0 5 2.8 4.3 3.4-.2.3-1.6-.3-2.9-1.4zm-32.7-1.6c.5-2.2 2.2-2.3 2.6-.2.2 1-.2 1.7-1.3 1.7-1 0-1.5-.6-1.3-1.5zm201-2.3a42.4 42.4 0 0 0-13.5-15.5c-4-3.2-5.1-6.1-6.2-17-.4-3.9-.9-7.6-1.2-8.3-1.3-3.4 8.8-.2 14 4.4 6.1 5.4 9.5 18.3 8 30.2-.6 4.2-1 7-1.1 6.2zm-193.5-3.6a4 4 0 0 1-1.5-3.7c.3-1.8 1-2.4 3.5-2.7 2.8-.2 3.4.1 3.9 2.2.4 1.7.1 3.1-.9 4.1-1.9 1.9-2.6 1.9-5 0zm202.3-1c0-.9.7-1.6 1.5-1.6.9 0 1.5.7 1.5 1.5 0 .9-.6 1.5-1.5 1.5-.8 0-1.5-.6-1.5-1.5zm4.5-8.6c-.3-.5-.3-1.8 0-2.9a3.6 3.6 0 0 1 7 0c1 2.7-.2 4-3.5 4-1.6 0-3.1-.5-3.5-1zm-371-3.5c-1.8-7.7-4.4-16.5-6.5-21.5-4.9-12.2-11.1-30.9-12.5-37.5A105.8 105.8 0 0 1 29.7 117c4-7.1 5.8-9.5 6.7-8.6.4.4.2 2.1-.4 4a74.4 74.4 0 0 0-1.8 35.3c3.7 31.5 4 36 2.7 53.8a82 82 0 0 0-.2 17.9c.5.5 1.1-.7 1.5-3a57 57 0 0 1 1.6-7 21 21 0 0 0 1-4.7 86.6 86.6 0 0 1 11-21.7c0-1 24.6-26 28.4-29 1.1-.9 3.7-3.5 5.8-6 2-2.3 4-4 4.3-3.7 1.5 1.5-4 20-8.8 29.1A602 602 0 0 1 56.7 211a163 163 0 0 0-17.4 31.5c-2.6 7.7-3.3 8.5-4.1 5zm106-2c-.7-2.5.8-5.5 2.7-5.5 2.1 0 4 3.1 3.4 5.6-.9 3.5-5.3 3.4-6.2 0zm462.5-1.7c-2-7.6-3.4-11.1-7.4-18.3a175 175 0 0 0-18.1-26.7 312.5 312.5 0 0 1-17.6-25.3c-4-6.9-6-11.4-10-23.8-3.5-10.7-3.7-13.2-.8-9.7 4.4 5.4 9.8 10.8 17.9 18 19.2 17.2 24.4 23.2 29 33.2 3 6.7 6 17.4 6 21.4 0 1.3.5 2.6 1.2 3 .8.6 1-.8.5-5.2a278.4 278.4 0 0 1-.6-49.9c.8-9.3 1.4-23.5 1.4-31.5 0-12.3-.4-15.4-2.3-20.5a55 55 0 0 1-2.2-7c0-2.7 12.6 15.6 15 21.6.7 1.9 2 5.2 3 7.4 2.4 5.4 5.7 21.1 6.5 31.3 1.4 16.4-1 28.6-11.2 56.8-3.1 8.5-7.3 23.8-7.3 26.7 0 3.5-2 2.6-3-1.5zm-428-10.3c0-.8.7-1.5 1.5-1.5.9 0 1.5.7 1.5 1.5 0 .9-.6 1.5-1.5 1.5-.8 0-1.5-.6-1.5-1.5zm101-.3c0-1 3-2.5 3.8-1.8.2.3-.5 1-1.7 1.6-1.1.6-2 .7-2 .2zm-81-3.7c0-5.1 3.4-9.5 10.3-13.4 6.4-3.5 7-2.8 3.1 4.7-3.8 7.3-7.6 11.2-11.1 11.2-1.8 0-2.3-.5-2.3-2.5zm-27.8-5c-1.1-1.3-1-2 .3-4 2-3 3.6-3.1 6-.4 1.5 1.6 1.7 2.5.9 3.7-1.4 2.3-5.5 2.6-7.2.7zM45.8 157.7c-1.1-43-.2-53.8 5.1-64.9a69.6 69.6 0 0 1 30.3-30.4c4.3-1.8 4.4-1 .5 3.2-3.6 4-9.4 15-11.4 21.9-.8 2.7-2.8 11.5-4.5 19.5-1.6 8-4.8 19.6-7 26-5.2 14.7-5.2 17.3-.1 9a84.6 84.6 0 0 1 26.5-28 154.6 154.6 0 0 0 11-8c1.7 0 17.9-16 21.4-21.1l2.3-3.5-.7 4.5a74 74 0 0 1-14.5 30.9 161.3 161.3 0 0 1-25.4 24.7 56.4 56.4 0 0 1-6 4.7c-2 1.4-6.8 5.5-10.5 9.1a66.5 66.5 0 0 0-12.2 14.1A17 17 0 0 1 47 174c-.4 0-1-7.3-1.1-16.2zm546.4 11l-2.9-4.3c-2.8-4.4-16-17-25-24-4.4-3.3-9.6-7.4-11.6-9.2a101.8 101.8 0 0 1-21-21.1 365 365 0 0 0-5.2-8.6c-3.9-6-8.8-21.6-6.8-21.6.6 0 1 .7 1 1.5 0 1.3 11 13 15.7 16.7 1.2 1 7 5 13 9 15.5 10.3 29.7 25 33.5 34.6.6 1.5 1.3 2.2 1.5 1.5.3-.7-.9-4.7-2.5-9s-4.8-15.2-7.1-24.3a1234 1234 0 0 0-7.2-27c-2-7-6.3-15-11.3-20.8-4.3-5-5.5-6.8-3.8-5.8l5.4 2.5c17.8 8 32.1 28 35.7 49.7 1.1 6.7 1.2 61.5.1 61.4-.2 0-1-.6-1.5-1.3zM75.7 108c0-.6.7-3 1.4-5.3a292 292 0 0 0 3.6-12.3 82.8 82.8 0 0 1 22-37 83.2 83.2 0 0 1 18-12.3c0-.4 1.7-1.4 3.8-2l7.7-3.3c2.1-1 4.5-1.9 5.2-1.9.7 0 1.3-.4 1.3-1 0-.5 1-1 2.3-1 1.3 0 2.8-.5 3.4-1 .7-.7 1.6-1 2.2-.8.5.2-1.3 2.8-4.2 5.9a193 193 0 0 0-15.8 19.3l-4.6 6.1-3.8 5.5a84.4 84.4 0 0 1-6.5 9c-.8 1.3-2.7 3.6-4.2 5.3a12.4 12.4 0 0 0-2.8 3.8c0 .5-.4 1-.9 1a15 15 0 0 0-4.3 3.2 206.8 206.8 0 0 1-20.7 17.6c-2.7 2.4-3 2.5-3 1.2zm482-5.6a296.7 296.7 0 0 1-29.5-27.7 250 250 0 0 1-19-24.3c-2.6-3.8-8.4-10.7-12.8-15.2-4.5-4.6-7.6-8.3-7-8.3 4 0 30.2 11.5 37 16.1a88.9 88.9 0 0 1 20 20.4c3.5 3.7 12 23 14.7 33.5l2.1 7.3c1.1 2.6-.5 2.1-5.5-1.8z"/>
</svg>
