<svg xmlns="http://www.w3.org/2000/svg" viewBox="0 0 54 54">
  <path fill="none" d="M-.2.1h53.8v53.4H-.2z"/>
  <path fill="#fff" d="M48.1 12.9v26.8c0 2.2-.8 4.1-2.4 5.7a7.8 7.8 0 0 1-5.7 2.4H13.3c-2.2 0-4.1-.8-5.7-2.4a7.8 7.8 0 0 1-2.4-5.7V12.9c0-2.2.8-4.1 2.4-5.7a7.8 7.8 0 0 1 5.7-2.4H40c2.2 0 4.1.8 5.7 2.4a7.8 7.8 0 0 1 2.4 5.7zm-7.2 5.4c-1 .5-2.2.8-3.4.9a5.4 5.4 0 0 0 2.6-3.3c-1.2.7-2.5 1.2-3.7 1.4a5.7 5.7 0 0 0-4.3-1.8c-1.6 0-3 .6-4.1 1.7s-1.7 2.5-1.7 4.1l.1 1.3a17.4 17.4 0 0 1-12.2-6.1c-.5.9-.8 1.9-.8 3 0 2.1.8 3.7 2.5 4.9-.9 0-1.8-.3-2.8-.7v.1c0 1.4.5 2.6 1.4 3.7a5.5 5.5 0 0 0 3.4 2l-1.4.2-1.1-.1c.4 1.2 1.1 2.1 2.1 2.9s2.1 1.2 3.4 1.2a11.5 11.5 0 0 1-7.3 2.5l-1.4-.1a16.8 16.8 0 0 0 14.9 1.6c1.8-.7 3.4-1.5 4.7-2.7 1.3-1.1 2.4-2.4 3.4-3.8.9-1.4 1.6-2.9 2.1-4.5s.7-3.1.7-4.7v-.8a9 9 0 0 0 2.9-2.9z"/>
</svg>
