<svg xmlns="http://www.w3.org/2000/svg">
<symbol viewBox="0 0 642.8 521.8" id="logo">
    <path d="M240.8 341q0 1.9-1 3-1.1 1.2-3.2 1.2-2 0-3.1-1.1-1-1.2-1-3.1v-8.8h1v8.7q0 1.6.8 2.5.8.8 2.3.8 1.6 0 2.4-.8.7-1 .7-2.5v-8.7h1.1zM253.2 345h-1.5l-6-11.6.2 4.4v7.2h-1.1v-12.8h1.4l6.1 11.6-.1-3.8v-7.8h1zM258.5 345h-1.1v-12.8h1.1zM269.5 333.2h-3.8V345h-1v-11.8h-3.9v-1h8.8zM278.2 333.1H273v4.8h4.5v1H273v5.2h5.5v.9h-6.6v-12.8h6.4zM284 332.2q2.6 0 4.2 1.4 1.7 1.3 1.7 4.9 0 3.6-1.7 5-1.6 1.5-4 1.5h-2.8v-12.8zm-1.5 1V344h1.7q4.5 0 4.5-5.6 0-2.2-.6-3.4-.7-1.2-1.7-1.5-1-.5-2.3-.5zM306.9 345h-1.5l-6-11.6.1 4.4v7.2h-1v-12.8h1.4l6 11.6-.1-3.8v-7.8h1zM316.9 341.5h-5.4l-1.1 3.5h-1.2l4.3-12.8h1.4l4.3 12.8H318zm-.3-1l-2.4-7.4-2.4 7.5zM327.4 333.2h-3.7V345h-1.1v-11.8h-3.8v-1h8.8zM331 345h-1.2v-12.8h1.1zM339.4 332q1.6 0 2.8.8 1.2.7 1.8 2.2.7 1.5.7 3.6 0 2-.7 3.6-.6 1.5-1.8 2.2-1.2.8-2.8.8-1.5 0-2.7-.8-1.2-.7-1.8-2.2-.7-1.5-.7-3.6 0-2 .7-3.5.6-1.5 1.8-2.3 1.2-.8 2.7-.8zm0 1q-1.8 0-3 1.4-1 1.4-1 4.2 0 2.8 1 4.2 1.2 1.4 3 1.4 2 0 3-1.4t1-4.2q0-2.8-1-4.2-1-1.4-3-1.4zM356.4 345h-1.5l-6-11.6.1 4.4v7.2h-1v-12.8h1.4l6 11.6v-11.6h1zM363.5 332q1.1 0 2 .4.8.3 1.6 1l-.6.7q-.7-.6-1.4-.9-.7-.2-1.6-.2-1.2 0-2 .6-.6.5-.6 1.5 0 .7.2 1.1.3.5 1 .8.6.4 1.7.7 1.3.4 2.1.9.8.4 1.2 1.1.4.7.4 1.8 0 1-.5 2-.5.8-1.5 1.2-1 .5-2.2.5-2.4 0-4-1.6l.5-.7q.8.7 1.6 1 .8.3 1.9.3 1.4 0 2.2-.7.9-.7.9-2 0-.7-.3-1.2-.3-.6-1-1l-1.7-.7q-2-.5-2.8-1.3-.9-.8-.9-2.2 0-.9.5-1.6.5-.7 1.3-1 .9-.5 2-.5z"/>
    <path d="M236.3 356.1q1.2 0 2 .4 1 .3 1.8 1l-1.3 1.4q-1.1-.9-2.3-.9-1.5 0-2.4 1.2-.8 1.1-.8 3.6t.8 3.6q.9 1.2 2.4 1.2.7 0 1.3-.3.6-.2 1.3-.7l1.1 1.4q-.6.7-1.6 1.1-1 .5-2.2.5-1.7 0-3-.8t-2-2.3q-.7-1.5-.7-3.7 0-2 .7-3.6.8-1.5 2-2.3 1.3-.8 3-.8zM246.6 356.1q1.7 0 3 .8t2 2.3q.6 1.5.6 3.6 0 2.2-.7 3.7t-2 2.3q-1.2.8-3 .8-1.7 0-3-.8-1.2-.8-1.9-2.3-.7-1.5-.7-3.6t.7-3.6q.7-1.6 2-2.4 1.3-.8 3-.8zm0 2q-1.5 0-2.3 1-.8 1.2-.8 3.8 0 4.8 3 4.8 1.6 0 2.3-1.2.8-1.1.8-3.7 0-2.5-.8-3.6-.7-1.2-2.2-1.2zM264 369.3H261l-4.5-10.4.3 2.5v7.9h-2.2v-12.9h3.2l4.5 10.5-.3-2v-8.5h2.2zM267 356.4h7.4l-.3 1.8h-4.5v3.9h4v1.8h-4v5.4H267zM283.4 358.2h-4.7v3.6h4.1v1.9h-4.1v3.8h5v1.8h-7.5v-12.9h7.5zM290.1 364.1h-1.6v5.2h-2.4v-12.9h3.8q5.1 0 5.1 3.8 0 1.3-.6 2.1-.6.9-2 1.4l3.4 5.6H293zm-1.6-1.7h1.6q1.2 0 1.7-.5.7-.6.7-1.7 0-1-.7-1.5-.6-.5-2-.5h-1.3zM304.7 358.2H300v3.6h4.1v1.9H300v3.8h5v1.8h-7.5v-12.9h7.5zM316.9 369.3h-3.2l-4.4-10.4.2 2.5.1 2.6v5.3h-2.2v-12.9h3l4.6 10.5-.2-2-.1-2.4v-6.1h2.2zM324.8 356.1q1.2 0 2.1.4.9.3 1.7 1l-1.2 1.4q-1.2-.9-2.4-.9-1.5 0-2.3 1.2-.9 1.1-.9 3.6t.9 3.6q.8 1.2 2.3 1.2.7 0 1.3-.3.6-.2 1.3-.7l1.2 1.4q-.7.7-1.7 1.1-1 .5-2.2.5-1.7 0-3-.8t-2-2.3q-.7-1.5-.7-3.7 0-2 .7-3.6.8-1.5 2-2.3 1.3-.8 3-.8zM337.7 358.2H333v3.6h4.1v1.9H333v3.8h5v1.8h-7.5v-12.9h7.5zM350 356.1q1.8 0 3 .8 1.3.8 2 2.3.7 1.5.7 3.6 0 2.2-.7 3.7t-2 2.3q-1.3.8-3 .8t-3-.8q-1.3-.8-2-2.3-.6-1.5-.6-3.6t.7-3.6q.6-1.6 2-2.4 1.2-.8 3-.8zm0 2q-1.5 0-2.3 1-.7 1.2-.7 3.8 0 4.8 3 4.8 1.5 0 2.3-1.2.8-1.1.8-3.7 0-2.5-.8-3.6-.8-1.2-2.3-1.2zM367.5 369.3h-3.2l-4.4-10.4.2 2.5.1 2.6v5.3H358v-12.9h3l4.6 10.5-.2-2-.1-2.4v-6.1h2.2zM198.8 382.4h-3.4v11H193v-11h-3.4v-2h9.5zM204.7 388.2H203v5.2h-2.5v-13h3.9q5.1 0 5.1 3.9 0 1.2-.6 2-.7 1-2 1.4l3.4 5.7h-2.9zm-1.6-1.8h1.5q1.2 0 1.8-.5.6-.5.6-1.6 0-1-.6-1.6-.6-.4-2-.4h-1.3zM218 390.4h-4.2l-.8 3h-2.6l4-13h3.1l4 13h-2.6zm-.4-1.9l-1.7-6.1-1.6 6.1zM226.1 380.5q3 0 4.8 1.3 1.8 1.4 1.8 5T231 392q-1.8 1.5-4.5 1.5H223v-13zm-.7 1.8v9.2h1.2q1.7 0 2.6-1 1-1 1-3.6 0-1.9-.5-2.9t-1.3-1.3q-.8-.4-1.8-.4zM242.3 382.3h-4.8v3.6h4.2v1.8h-4.2v3.8h5.1v1.9h-7.5v-13h7.4zM255.6 390.4h-4.2l-.8 3H248l4-13h3l4 13h-2.6zm-.5-1.9l-1.6-6.1-1.7 6.1zM270 393.4h-3.2l-4.4-10.5.3 2.5v8h-2.2v-13h3.1l4.5 10.5-.2-2-.1-2.4v-6h2.2zM276.2 380.5q3 0 4.8 1.3 1.8 1.4 1.8 5t-1.7 5.1q-1.8 1.5-4.5 1.5H273v-13zm-.7 1.8v9.2h1.2q1.7 0 2.6-1 1-1 1-3.6 0-1.9-.6-2.9-.4-1-1.2-1.3-.8-.4-1.8-.4zM293 380.5q3 0 4.8 1.3 1.8 1.4 1.8 5t-1.8 5.1q-1.7 1.5-4.5 1.5h-3.5v-13zm-.7 1.8v9.2h1.2q1.6 0 2.6-1t1-3.6q0-1.9-.6-2.9-.4-1-1.2-1.3-.8-.4-1.9-.4zM309.1 382.3h-4.7v3.6h4.1v1.8h-4.1v3.8h5v1.9H302v-13h7.5zM317 393.4h-2.9l-3.9-13h2.6l2.8 10.8 2.8-10.7h2.5zM329.6 382.3h-4.8v3.6h4.1v1.8h-4.1v3.8h5.1v1.9h-7.6v-13h7.5zM334.7 391.4h5.2l-.3 2h-7.4v-13h2.5zM345.8 380.2q1.7 0 3 .8t2 2.3q.6 1.5.6 3.6t-.6 3.6q-.7 1.5-2 2.3-1.3.8-3 .8t-3-.7q-1.3-.8-2-2.3-.6-1.5-.6-3.7 0-2 .6-3.6.7-1.5 2-2.3 1.3-.8 3-.8zm0 1.9q-1.5 0-2.3 1.2-.8 1.1-.8 3.6 0 4.9 3.1 4.9 1.5 0 2.3-1.2.7-1.2.7-3.7t-.7-3.7q-.8-1.1-2.3-1.1zM357.6 380.5q2.5 0 3.8 1 1.4 1 1.4 3 0 2.2-1.4 3.3-1.4 1-3.7 1h-1.5v4.6h-2.4v-13zm0 6.5q1.3 0 2-.5.6-.6.6-2 0-2.2-2.6-2.2h-1.4v4.7zM376.5 393.4H374l-.4-5.4-.1-4.6v-.7l-2.4 9.3H369l-2.5-9.3v5.3l-.4 5.4h-2.4l1-13h3.2l2.3 9.1 2.2-9h3.2zM386 382.3h-4.7v3.6h4.2v1.8h-4.2v3.8h5.1v1.9h-7.6v-13h7.5zM398.2 393.4h-3.1l-4.5-10.5.3 2.5v8h-2.2v-13h3.1l4.5 10.5-.2-2v-8.4h2.1zM409.3 382.4h-3.4v11h-2.4v-11H400v-2h9.6z"/>
  <path d="M243.6 517.2c-3.1-2.5-5.6-5-5.6-5.4 0-3 24.3-23.4 40.5-33.9l12-7.9c.5-.4 3.7-2 7-3.7 3.3-1.6 7-3.6 8.3-4.4l2.4-1.5-2.4-.9a40 40 0 0 0-21 1.3c-7.2 2.8-9.5 4.1-23.7 14-19.9 13.8-28.6 18.6-42 23a86.3 86.3 0 0 1-74-9.4c-7.5-4.5-19.7-14.3-18.8-15.2.2-.2 2 .5 4.2 1.5 24.3 11.6 53.5 10.8 81.8-2.3 46.3-21.5 74.8-26.2 106-17.5 3.9 1 5.3 1 8 0 6.1-2.5 17.3-4 30.6-4 19.8-.1 34.8 2.8 51.6 10.1 37 16.1 45.6 18.8 63 19.5 14.5.6 21.5-.5 35.2-5.6l9.8-3.6c1-.4 0 1.2-2.7 3.6a95.3 95.3 0 0 1-53.5 25.1c-7.9 1-10.9 1-19.7-.5-20.3-3.2-33.8-9.2-56.6-25-18.6-12.7-22.5-14.7-31-15.4-7-.6-16 .3-16 1.5 0 .4 3.5 2.5 7.7 4.7a267 267 0 0 1 57.1 40l5.4 5.1-5.2 5.2a22 22 0 0 1-6.8 5.2c-.9 0-6.1-4.6-11.7-10.3a250 250 0 0 0-45-37.8 47.2 47.2 0 0 0-16.2-8c-4 0-19.4 8.8-28.5 16.3-2.5 2-4.9 3.8-5.2 3.8-.4 0-2.3 1.5-4.3 3.2l-9.8 8.7c-7.1 6.3-15.3 15-19.8 20.8-1.8 2.3-3.8 4.2-4.4 4.3-.6 0-3.7-2-6.7-4.6zm-98.1-50c-5.9-.8-20.1-4.8-26.5-7.4a107.3 107.3 0 0 1-43.4-34.4c-4.3-5.8-4-7 .6-3a79 79 0 0 0 35.2 16.4c8.2 1.9 19.5 3 48 5 8.9.7 21.6 2.3 28.3 3.6 13 2.5 17.7 3 16.8 1.5-.3-.5-2-1.3-3.8-1.6a76.1 76.1 0 0 1-20.2-8 67 67 0 0 1-18-17.5 852 852 0 0 0-4.5-7c-1-1.4-3.9-7-6.6-12.5-2.7-5.5-6.6-13-8.6-16.8-2-3.7-3.4-6.7-3.2-6.7 1.6 0 19.6 14.5 28 22.5 27 26 37.6 35.4 40 35.5.7 0 1.4.4 1.5.8a29 29 0 0 0 6.9 4c5.9 2.6 10.7 4.4 24 8.5l4.5 1.4-4 .7c-2.2.3-10.6 2.2-18.5 4.2-24 6-34.2 8.2-45.3 9.8-9.6 1.5-23.7 1.9-31.2 1zm326.5-2c-7.4-1-26.2-4.7-41.5-8.4-8.8-2-19.3-4.3-23.4-5-4-.7-7-1.5-6.5-2 .5-.3 3.8-1.5 7.4-2.4 10-2.7 20.5-7.2 28-12 3.8-2.5 14.3-11.8 23.7-21 16.3-16 18.8-18.3 26.9-25.6 5-4.6 14.4-12 16.6-13.1 1-.6.3 1.3-2.1 5.3-2.1 3.5-6.5 12.2-9.8 19.4-12.2 26.5-21.4 35.8-43.3 43.6-11.7 4-9 5 6.2 2 12.2-2.5 23.4-3.8 41.8-5.2 36.6-2.8 54.4-8 69.4-20.4 4.2-3.5 4.7-3.7 4-1.7-.3 1.3-2.6 4.9-5 8a113.2 113.2 0 0 1-55.4 36c-8.4 2.2-29 3.5-37 2.5zm-313.8-30.4c-2.2-1-21-4.5-36.2-7a159 159 0 0 1-30.6-8c-29.7-13.4-59.8-45.6-67.4-72.3-2-7.3-1.4-9 1.3-3A85 85 0 0 0 49 369c8.9 5.9 11.2 7.1 36.4 19.6a156 156 0 0 1 34.6 21c7.3 5.8 16.9 12 16.9 10.8 0-.4-3.5-4.1-7.8-8.4-16-15.8-22-28.7-26.3-55.2a321.7 321.7 0 0 0-8.5-40.8c-2-4.8-.5-3.9 4.6 2.8a32 32 0 0 0 5.2 6c.4 0 .8.5.8 1.1 0 .7 1 2.6 2.3 4.3 3.2 4.2 13.7 21.2 13.7 22.2a749 749 0 0 1 11 30.4c8.4 24.2 14.9 36.6 24.8 47 6.3 6.5 6.5 7 1.4 5zm159.4-2c22-1.5 38.5-4.6 57.1-10.6 4-1.3 7.7-2.4 8.3-2.4 1.3 0 10-4 25.5-11.6A225 225 0 0 0 511 305.8a226.4 226.4 0 0 0 24.5-115.5 225.5 225.5 0 0 0-23.8-95 228.2 228.2 0 0 0-37.1-55c-8.6-9.6-5.7-7.6 5.7 4 6 6.2 16.3 18.2 20.8 24.7a178.6 178.6 0 0 1 11.5 18c13.5 21.3 25 54.5 29 83.8 2 15 2.3 45 .5 59.5a244.1 244.1 0 0 1-33.2 94.5 171.8 171.8 0 0 1-18.4 25.5 227.1 227.1 0 0 1-58.1 50.6A217.7 217.7 0 0 1 322 433.3l-17.5.4zm164.9-.8a124 124 0 0 0 12.1-14.8c5.3-7.5 10.8-20.7 18.5-43.9 5.5-16.8 5.2-15.8 10.6-27.5a221 221 0 0 1 20.5-32.3c3.3-4.6 5.6-6.2 4.2-3-1.5 3.8-5.4 20-6.4 27.2a244 244 0 0 1-7.7 39.9 87.9 87.9 0 0 1-20.2 31.7 94.5 94.5 0 0 0-6.5 7.3c-1.6 2.6 5.6-2 10.8-6.8 9.2-8.6 20-15 50.6-30.6 23.8-12 37.2-22.5 46.3-36.2 2.3-3.5 4.3-5.8 4.5-5.3 1 3-6.6 21.2-12.7 30.5-4.3 6.6-16 20.5-20.3 24a143.8 143.8 0 0 1-38 25.1c-6 2.7-20 6.8-27.8 8-7.2 1.1-33.2 6.3-37 7.4-3.4 1-3.5 1-1.5-.7zm-392-53.3c-4.8-3.3-9-6-9.2-6-.9 0-27.3-17.9-34.8-23.6C16.5 326.5.2 296.8 0 264.6c0-7 1.3-8.1 3-2.5 3.6 12.3 10.7 22.1 31.8 43.8a183.2 183.2 0 0 1 29.9 35.9l5.8 7.8c2.5 3.5 4.8 6.2 5 6 .3-.3-1.3-3.9-3.4-8-9.5-17.6-11.1-37.9-5.3-65.8 1.8-8.5 3.6-19.8 4-25l.7-9.5 2.7 7.5c4.8 13.4 6.6 25.2 11.3 72 2.9 28.6 4.6 36.5 11.1 49.3 2 3.8 3.4 7.2 3.2 7.6-.2.5-4.3-1.8-9.2-5zm457.2-9a97.4 97.4 0 0 0 6.8-25c1-1.5 2.4-15 4-36 2.1-29.3 4.6-44.3 9.8-58.3 1.4-3.8 2.7-7 2.9-7.1.1-.2.4 3.6.5 8.3.2 4.8 1 12.5 1.8 17.2 5.8 32 6.6 41 4.3 54-1.1 6.7-8 24.1-10.6 27.2-.9 1-1.3 2-1 2.4.8.7 7.2-7.5 14.5-18.4 3.2-4.8 6-9 6.3-9.2l4.8-6c2.3-2.9 10-11.2 17-18.4 12.5-13 22.2-24.9 25.6-31.4 1-1.9 3-7.2 4.5-12l2.8-8.5.8 4.2c1 6-.4 19-3.1 29.9a92 92 0 0 1-15 32.7 139.5 139.5 0 0 1-39.1 38L561.7 369c-9.8 6.5-18 11.8-18.2 11.8-.2 0 1.7-5 4.2-11zm-229.7-56a208 208 0 0 0-10.3-5c-5.3-2.4-8.7-4.6-8.7-5.5 0-1.2 2.4-7 3.4-8.2.2-.2 9.6 3.8 18.1 7.9 5.2 2.4 6.6 2.4 9.8-.2 3.3-2.5 3.6-7.8.8-11.8-1-1.4-6.2-4.8-11.5-7.5-10.2-5.1-12-7.3-9.7-11.5 2-3.6 6.1-2.5 22.6 5.9 16.7 8.5 20.3 9.4 25.6 6.3 3-1.8 3.3-3 3-9.3-.4-5.1-4.7-8.8-18.6-16-12.3-6.5-17.5-9.6-18.8-11.5-1.5-2.1-.7-5.5 1.7-7 2.6-1.8 3.6-1.5 14.6 4.7l14.5 7.8 14.5 7.8c9 5 10 5.4 13.4 4.8 4.3-.8 6.6-3.5 7.3-8.3.4-3.2 0-4.5-2-6.9a21.3 21.3 0 0 0-5.4-4.4l-7.7-4.3-12-6.6a732.8 732.8 0 0 1-19.1-10.4c-6.3-3.3-7.5-4.7-7.5-8.3 0-3 .3-3.4 3.5-4 3-.5 4.7 0 11.6 4 4.5 2.5 8.5 4.6 9 4.6.3 0 .9.3 1 .7.2.5 2 1.6 3.9 2.5a560 560 0 0 1 25 13.6c11.8 7 15.7 7.6 20 3.3 6-6 3.6-11-9.7-20.7L382.5 207c-7.5-5.5-29.4-20.3-38.1-25.8l-13.6-9a267 267 0 0 0-11.3-7.4l-11-7-11.5-7.6c-.8-.5-6-1.2-11.5-1.6-5.5-.4-13-1-16.6-1.5l-6.5-.7-6.5 6.2a50.4 50.4 0 0 1-19.8 13.6c-9.8 3.3-20.9 0-24.7-7.1-2.7-5-2-6.7 7.9-17.5l8.7-9.9c9.7-11.5 11.7-12.6 26.6-14.5 6.5-.8 14.6-2 17.9-2.5 3.3-.6 9.8-1.5 14.4-2 4.7-.6 9.5-1.3 10.6-1.6 5-1.2 22.5 3.3 55 14.1 27.3 9.2 29.8 9.3 42.8 3.1l7.7-3.7 6.1 5.8c3.4 3.2 8 8.5 10.2 11.8 2.2 3.3 4.4 6.1 4.9 6.3.4.2.8 1 .8 1.8s1.5 4.5 3.3 8.2c4 7.8 7.3 20.4 8.5 31.6 1 9.8 1.3 9.5-14.2 17-6.4 3-11.6 5.8-11.6 6.2 0 .4 1.7 2.4 3.9 4.3 6 5.6 8.4 11.2 7.9 18.6-.3 4.6-1.1 7.3-3 10.2-3 4.5-10 8.3-15.2 8.3-3.4 0-3.5.2-4.6 5.2-1.3 6.2-4.7 11-10.2 14.4-3.5 2.2-5 2.5-10.6 2.2l-6.5-.3-1.2 4.7c-2.7 10.7-9.4 15.8-20.6 15.8h-6.5l-1.2 4.4c-1.3 5-5.2 10-9.3 12.1-3.1 1.6-13.5 2-16 .5zM47.7 303.6A155.3 155.3 0 0 0 31 281.9C18.2 266.6 11.6 256.2 8 245.7 2 226.8-.9 204.8 1 188.4c1-9.9 3.7-21.6 6-26.6 1-2.4 1-2.3.5.7a98.1 98.1 0 0 0 4 29.7 303 303 0 0 0 12 29c5.8 12.7 6.4 14.3 8.4 21 1.1 4 3.2 12.3 4.6 18.6 2.7 12.2 5.5 21.4 6.3 20.6.2-.2-.3-3.6-1.3-7.5a84.6 84.6 0 0 1 7.8-52.6c3.6-7.2 13-23.8 13.8-24.5a79 79 0 0 0 8.9-18.2l2-6.3v7.7c0 9.1-2.2 27.4-5 40.8-1.8 8-7.3 27.8-14.8 53-1.2 4-1.6 9.6-1.6 21.2v15.7l-4.8-7.2zM274 306c-1.7-2.2-2-3.6-1.7-7.6.3-2.6.9-5.1 1.4-5.5.5-.3 2.6-4 4.6-8.1 5.6-11.3 12.5-15 18.2-9.6 3.8 3.5 3.5 9-1.2 18.4-2 4.1-5.3 9.3-7.3 11.4-3 3.2-4.3 3.8-7.7 3.8-3.3 0-4.5-.6-6.3-2.8zm315.8-17.9c-.4-15.7-.7-17.4-3.6-25.8-10.7-30.2-20-73.5-19-87.5l.4-4.5 2.3 6c2.2 5.8 9 18 17.3 31.5a86.8 86.8 0 0 1 15 38 48.4 48.4 0 0 1-.5 19.7c-1 5.8-1.6 10.7-1.4 10.9.3.2 2.4-7.6 4.8-17.3 4.6-19.2 8.1-30.3 12.5-39.8 12-26.6 15.2-37.3 15.6-52.4.3-13 1.4-13.2 4.7-.6 6.3 24.7 5 48.6-4.4 75.5-4 11.8-5.6 14.4-17.8 30.3a7284 7284 0 0 0-24.6 32c-.5.5-1-6.7-1.3-16zm-338 8c-3-2-4.3-6.3-3.4-11.7a87 87 0 0 1 5.4-13.7l7.7-16.2c2.1-4.4 3.6-6.2 6.6-7.7 2.1-1.1 4.6-2 5.5-2 2.8 0 7 3 8.2 5.8 2.4 6 2.4 8.2-.3 14-7 15.1-13.4 27.2-15.3 29-4.5 4.5-9.6 5.4-14.4 2.4zm-21.2-15.7c-4.4-1.9-5.9-5.3-5.3-12.6.2-3.4.8-6.5 1.4-6.8 1-.7 6.4-13 6.4-14.5 0-.4.4-1.3 1-2l3-4c2.6-3.3 8.6-6 11.7-5.2 4.3 1 7.3 5.2 7.3 10 0 4.3-1.7 8.6-10 25.3-4.4 9-9.6 12.3-15.5 9.8zm-21.2-19.6c-4-1.7-5.7-6.5-5-14.4.9-8.9 3.6-15 7.9-17.6 3.8-2.3 6.3-2.5 10-.8 2.7 1.3 5.8 7 5.8 10.6 0 2.7-6 20-7.4 21-1.8 1.6-8.8 2.3-11.3 1.2zm-20.8-33c-12.6-11.3-31.3-21.2-29.1-15.4.3.8.6 3.7.6 6.4 0 3.2.6 5.5 1.9 7l1.8 2.4 4.1-2.7c4.7-3 5.5-3.2 7-1.4.9 1 .6 2-1 3.6-2.3 2.5-9.3 6-12 6-1.6 0-8.5-3.3-38.3-18.8-6.5-3.4-7-4-7.8-7.6-.4-2.2-.5-9.6-.1-16.5a142.6 142.6 0 0 1 21.3-72.5c1.6-4.1 21.9-25.5 24.2-25.5.5 0 4.8 1.6 9.6 3.6s9.9 3.8 11.3 4.1c1.3.3 2.7 1 3 1.3.2.4 5 2.4 10.7 4.4 5.6 2.1 10.7 4.4 11.2 5 .8 1 .2 2.1-2.5 4.5-2 1.8-3.4 3.8-3.1 4.5.3.7 3.9 2.6 8 4.2 9.3 3.5 9.7 4.8 3.5 10.2l-2.6 2.4-9.2-3.7-9.2-3.7-2.5 2.3a141 141 0 0 0-22 39.4 122 122 0 0 0-6 25.7c.2.7 5.7 4 12.1 7.2a106.3 106.3 0 0 1 28.8 22c.4.7.2 2.8-.4 4.7l-1.5 4.6c-.1.7-.6 1.3-1 1.2-.5 0-5.3-4-10.8-9zM35 219.2A231 231 0 0 0 25 188.8a105.5 105.5 0 0 1-9.8-41c-.3-8 0-16.6.7-21 1.2-8 6.7-25.3 8.2-25.8A74.8 74.8 0 0 1 35.6 81c2-2.6 3.3-4 2.9-2.8-5 12.1-5.7 29.3-2.5 55 2.1 17 2.4 30.7 1 47.5a44 44 0 0 0-.1 11.3c.4.4 1.5-3.2 2.5-8 3.4-17.8 10.6-28.5 33-49.8a198 198 0 0 0 16.8-17.4c3-4.8 3.3-2.4.9 6.7A133.6 133.6 0 0 1 67 169.8c-16.9 23.7-22.8 33.3-26.3 43l-3.2 8.8-1.2 3.3zm408.2 3.4a26.6 26.6 0 0 1-6.5-4.5c-2.3-2.5-2.3-2.6-.4-4 1.7-1.2 2.2-1.2 4.2.1 3.4 2.2 5.1 1.8 6.9-1.5 2.7-5.2 3-17.1.6-30.6-4.7-27.9-16.8-51.8-32.8-64.9a25.5 25.5 0 0 1-6.2-6.3c0-.7 2.5-2.4 5.6-3.8 3.2-1.4 7.6-3.3 9.8-4.4 12.9-6 25.7-11 27.2-10.6 2.6.8 10.2 7.4 17 14.8a134 134 0 0 1 17.3 26.4c7.6 17.7 11 33.4 11 51.5v12.8l-3.4 2.5a19 19 0 0 1-3.9 2.6c-.3 0-4.5 2.2-9.2 5l-9.1 5c-.3 0-3.7 2-7.7 4.4-6.7 4-14.1 7.7-15.6 7.5-.3 0-2.5-1-4.8-2zm160.2-6.6c-2.3-8.3-9-22.2-14.1-29.4l-13.5-18.4c-13-17.4-18.4-26.7-22.6-38.3-3.4-9.3-6.3-18.8-6.3-20.5 0-.5 2.4 2 5.3 5.5 3 3.5 9.4 9.9 14.3 14.2 4.9 4.4 12.7 11.9 17.5 16.7a60.8 60.8 0 0 1 18 33.3c1.8 8.5 3.8 13.9 2.5 6.6-.3-2-1-13.4-1.3-25.5-.4-17.1-.2-25 1-35.9 2.7-22.8 1.7-37.8-3.3-49.5l-2-4.6 2.5 3c1.4 1.6 3.7 4.8 5.2 7l3.3 4.5c.8.7 6.4 11.5 8.3 16 5 11.7 7.7 26.4 7.7 41.2 0 14.3-1.8 22.6-9.7 44-3 8-6.3 19.3-7.5 25a79.2 79.2 0 0 1-2.7 11c-.4.4-1.5-2.3-2.6-6zM46 140.3c0-5-.2-18.5-.6-30-.6-19-.5-22 1.4-30.7 1.2-5.3 3.3-12 4.7-15 3.4-6.6 12.1-17.5 18-22.3 4.2-3.4 16.3-10 17-9.3a22 22 0 0 1-3.7 4.8c-8 9.1-12 18.7-15.8 38.2a193 193 0 0 1-8.5 32c-2 5.5-3.5 10.7-3.5 11.6 0 1 2-1.8 4.4-6a103.3 103.3 0 0 1 26.6-28 143 143 0 0 0 22.7-17.3 67 67 0 0 0 7.7-9.4c3.4-5 3.6-5.2 3.6-2.4 0 3.9-4.3 16.4-7.7 22.2a127 127 0 0 1-27.5 31.8l-11 8.4c-8.8 6.8-18 16.2-23.7 24.4l-4.2 6zm543.1-2.9c-5.8-8-10.9-12.9-30.6-28.5-15.7-12.5-24.5-21.2-28-27.7l-5.5-9.8c-2.8-4.8-6.7-18.2-5.7-19.3.3-.3 1.2.8 2 2.4C525 61 532.7 67.7 558 85.7A75.8 75.8 0 0 1 582 112c1.7 3.2 3.2 5.8 3.5 5.8.4 0-3.9-12.2-5-13.8l-5.4-20.2-6.6-25.5a57.7 57.7 0 0 0-12.4-23.6 42 42 0 0 1-4.7-5.6c.7-.8 9.8 3.6 14 6.8a72 72 0 0 1 22.7 26.4c6.2 12.3 6.4 13.7 6.4 49.7v32.8l-5.4-7.4zM75.5 81c.8-2 2.8-8.8 5.5-18.9A78.1 78.1 0 0 1 101 28a95.4 95.4 0 0 1 18.6-13.2 172.5 172.5 0 0 1 29-12.8c0 .2-1.9 2.6-4.5 5.5a315.4 315.4 0 0 0-24.4 30.8c-13.8 19-13.2 18.3-22.7 26.5a217.5 217.5 0 0 1-14 12c-3 2.5-5.7 4.8-5.9 5.2-.7 1.7-2.3.7-1.6-1zM559 76.3a261.7 261.7 0 0 1-50-53.5c-2.5-3.6-8-10.1-12.3-14.5a34.2 34.2 0 0 1-6.9-8.3c1-.3 14.9 4.7 23.7 8.6a82.2 82.2 0 0 1 41.7 43.2c4.4 10.6 9.7 28 8.6 28a50 50 0 0 1-4.8-3.5z"/>
</symbol>
  <g aria-label="UNITED NATIONS" font-family="Fira Sans" font-size="18.7" font-weight="300" letter-spacing="0" style="line-height:1.25;-inkscape-font-specification:'Amatica SC Bold'" word-spacing="0">
  </g>
  <g aria-label="CONFERENCE ON TRADE AND DEVELOPMENT" font-family="Fira Sans" font-size="18.7" font-weight="500" letter-spacing="0" style="line-height:1.25;-inkscape-font-specification:'Amatica SC Bold'" text-anchor="middle" word-spacing="0">
  </g>
</svg>
