<svg xmlns="http://www.w3.org/2000/svg">
<symbol viewBox="0 0 300.1 253.8" id="logo">
  <path d="M113.5 251l-2.6-2.8 4.8-4.4c6.4-6 13.3-11 21.7-15.6l7-3.8-5.2-.3c-6-.4-9.5 1.1-19.2 8.3-19 14-37.8 15.2-54.9 3.6a51.6 51.6 0 0 1-6.2-4.6c0-.2 2.3.5 5 1.6 11.1 4.2 26 1.9 46.1-7.2a54 54 0 0 1 38.8-3.5c.4.2 3.1-.2 6.1-1 11.8-3 23.5-1.2 42.8 6.7a50.1 50.1 0 0 0 22.4 5.6c8.8.5 10.2.3 15.4-2.1 3.2-1.5 6-2.5 6.1-2.3.9.9-8.6 7.7-14.2 10.4a32.4 32.4 0 0 1-14.6 3.1c-11 .5-16.9-1.2-27.9-8-16-9.7-18.3-10.8-22.7-10.8-2.4 0-4.3.3-4.3.7 0 .4 2.7 2.2 6 4 6.6 3.6 20.4 13.8 23.8 17.4l2.2 2.5-3 2.3-3.1 2.2-8-7.7c-8.8-8.8-22.1-18.4-25.4-18.4-3.7 0-19.8 11.4-27.2 19.4l-7 7.5zm-55.3-25.5c-7.6-2.9-12.3-6-18.1-11.8-6.4-6.3-7.2-8.4-2-5 7.5 5 14 6.6 33.8 8.2 7.5.6 15.5 1.5 18 2 6 1.4 6.2.5.2-1.5-8-2.6-13.4-8.2-19.5-20.1-3-5.7-5-10.4-4.6-10.4 1 0 8.8 6.8 20 17.5 9.8 9.3 19.6 15.4 24.8 15.5 1.5 0-3.4 1.6-10.9 3.6-18.6 4.8-32.7 5.5-41.7 2zm145.7-1.7l-15-3.6c-2.1-.4-1.7-.8 3-2.3 9-2.8 12-4.8 22-14.5a141.9 141.9 0 0 1 20.7-18.2 73 73 0 0 1-5.2 10.9c-6.7 12.5-12.1 18.3-19.6 20.9-6.5 2.2-5.3 2.3 6 .4 4.7-.8 13.6-1.9 19.6-2.4 12.6-1.2 21.4-3.9 26.8-8.2 6-4.8 4.4-1.4-2.5 5.5-14.4 14.4-30 17.6-55.8 11.5zM59.8 209.9c-18.3-3.7-24.6-6.7-34.8-16.8a48.2 48.2 0 0 1-11.7-15.6c-2-4.2-3.4-8-3.2-8.2.3-.2 1.9 1.6 3.6 4 3.7 5.3 11.3 10.6 25.2 17.5 5.8 3 11.9 6.3 13.5 7.5l7 5.1 4 3-4.6-5.3c-6-6.6-9.3-15-12-30a97.5 97.5 0 0 0-3.5-15.9 71 71 0 0 1 11.4 16.2c1 2.2 4.1 9.6 6.7 16.5 5.7 15 6.7 16.9 10.7 21.5 1.7 1.9 2.7 3.4 2.2 3.4l-14.5-2.9zm75.6 2c-24.1-3.2-45.5-14-62.2-31.4a102.3 102.3 0 0 1-29.9-68c-2-36.5 13.7-70 43-91.9a107.6 107.6 0 0 1 111.1-9.4 112 112 0 0 1 55.8 69.4 86.4 86.4 0 0 1 2.1 25.8c0 15.1-.3 18-2.7 27a107.4 107.4 0 0 1-117.2 78.4zm10.5-12v-8l-4.7-.5A89 89 0 0 1 97 173.8l-6.3-5.1-5.6 5.5-5.5 5.6 2.4 2c4.4 3.8 16.3 11.7 21.7 14.5 10.4 5.2 25.4 9.4 41.5 11.5.4 0 .7-3.5.7-7.9zm16.9 6.5c15.3-1.5 34-9.3 48.7-20.3l8.6-6.5-5.8-5.9-5.8-5.8-3 2.8c-1.7 1.6-5.1 4-7.6 5.4a26.8 26.8 0 0 0-7.4 6.7c-4.3 6.2-10.2 11-13.3 11-1.4 0-3.6-.8-4.8-2-1.9-1.7-2.9-1.9-11-1.2l-9 .8-.3 8.2c-.2 8.2-.2 8.3 2 7.9 1.3-.3 5.2-.8 8.7-1.1zm-16.7-28l-.3-7.5h-4.2a50 50 0 0 1-25.3-8.6c-4.3-2.7-5-3-4.6-1.4.3 1.4-.2 2-2.4 2.5-1.6.3-4.5 1-6.5 1.6-2.6.8-4.2.8-6 0-4.4-2.2 4.3 4.8 11.2 9 11 6.5 25.9 11.5 35.4 11.8h3l-.3-7.4zm15.7 6.5c2.3 0 2.3-.1-.8-3-2.5-2.3-3-3.4-2.5-5.5.5-1.8.3-2.5-.7-2.5-.8 0-2.4-.3-3.6-.7-2.2-.5-2.3-.3-2.3 6.2v6.7l3.8-.6c2-.3 4.8-.6 6-.6zm-80-25.3a23.7 23.7 0 0 0-6.3-4.7c-.7 0-1.8-1.2-2.6-2.5-1.4-2.7-7.6-6.9-9-6-.3.2-1.5-.5-2.5-1.6-1-1-2.4-2-3.1-2-.8 0-1.4-.6-1.4-1.4a8 8 0 0 0-1.1-3.4c-.9-1.4-1-3-.3-5.3.8-2.6 1.5-3.3 3.5-3.3 1.3 0 3-.7 3.6-1.5 1-1.2 1.6-1.3 3.1-.4 1.8 1.1 1.8 1 .6-4-.8-2.8-1.4-7-1.4-9.3v-4.3H48.6l.6 7c1.4 16.2 9.3 36.4 20.3 51.3l5.7 7.8 5.9-5.8 5.9-5.8zm147.9 8.5a104.7 104.7 0 0 0 21.2-57.9c0-.8-2.2-1.1-7.7-1l-7.7.2-1.2 8.5a85.6 85.6 0 0 1-17 40l-4.5 6.2 5.3 5.4c2.9 3 5.5 5.4 5.9 5.4.3 0 2.8-3 5.7-6.8zm-26.8-3.5c0-.4-.4-.7-1-.7-.5 0-1-.7-1-1.4 0-2.4-6.7-9-8.4-8.3-2.4 1-1.9 3 1.4 5.5 3.4 2.5 3.7 3.8 1.4 6.3a4 4 0 0 0-.9 3.8c.6 2 .8 2 4.6-1.2 2.1-1.8 4-3.6 4-4zm-67.5-4.2c-2.7-3.5-2.5-4.8 1.3-9.6 1-1.4.7-1.8-2.7-2.8-2.1-.6-6.1-2.7-9-4.6l-5-3.5-5 5-5 4.8 3.7 3a72 72 0 0 0 23 11.1c.8 0 .3-1.3-1.3-3.4zm82.5-13.2a86.8 86.8 0 0 0 11.4-34.5l.5-3.7-7.7.2-7.6.2-.7 4c-.4 2.2-.3 4.4.2 5 1.4 1.3 1.1 4.5-.3 4.5-.7 0-2.3 2.8-3.6 6.2a81.3 81.3 0 0 1-7.2 13.4c-4.6 6.9-4.7 7.3-3 8.8 1.2 1 2 1.3 2.5.7 1.2-2 3.5 0 4.7 4.1l1.2 4 3.2-3.8c1.8-2 4.7-6.2 6.4-9zM109.8 142l6-6.8-3-4.4a46.6 46.6 0 0 1-4.5-9.4c-2-6.3-3.2-7.7-4-4.8-.3 1.3-1.2 2.3-2 2.3-2 0-2.5-1.7-.8-3a3 3 0 0 0 .9-3.2c-.7-2 .5-2.4 2.3-.7 1.3 1.3 1.7.7 2.6-4.7.7-4-.5-5.7-3.5-5.2-2.4.3-2.6.7-1.4 4.5.5 1.7.3 2.3-1 2.3-1 0-1.9.9-2.2 2a4 4 0 0 1-2.4 2.5c-1.5.5-1.7 1.2-1.2 3.3.4 1.5 1.3 3.7 2.1 5 .9 1.2 2.4 6.2 3.5 11l2.4 11c.3 1.2 0 2.9-.7 3.7-.7.8-.8 1.5-.2 1.5.6 0 3.7-3.1 7-6.9zm53.4 4.8c.7-.6 2.7-2 4.5-3 6-3.6 5.7-7.3-.5-4.4-4.4 2.2-7 2.3-10 .6-2.4-1.3-6.3 0-6.3 1.9 0 .5-1.2 1.5-2.6 2.3-1.7.9-2.2 1.6-1.5 2 .6.4 2 .3 3-.3 2.5-1.3 6.1-1.4 6.1-.1 0 .9 2 1.7 4.8 2a4 4 0 0 0 2.5-1zm24.8 0c1-.5 2-1.6 2-2.4 0-2.2 2-2.9 3.3-1.1 1 1.4 1.7.7 5.4-4.7 2.3-3.4 4.8-8.1 5.6-10.4l1.5-4.2-5 .2c-2.6 0-4.9.6-4.9 1 0 .5-.8.7-1.9.4-2.7-.7-4.5 3-3.2 6.5 1.1 2.8-1 12-2.9 13.3-.5.3-3.6-.1-6.8-1-10-2.6-12.2-1.7-3.8 1.6 5 2 8 2.2 10.7.8zm-44-5.5c0-1.7.6-2.8 1.7-3 1.4-.4 1.7-1.4 1.4-4.5-.3-3.2-.8-4-2.5-4-1.2 0-4-1-6.4-2.4L134 125l-4.5 5.1-4.5 5.1 3.6 2.5c3.1 2 12.4 6 14.6 6.1.4 0 .7-1.1.7-2.5zm25-8.6c0-1.3-2.3-.5-2.8 1-.3.7.2 1 1.2.6.8-.4 1.5-1 1.5-1.6zm17 .2c0-.6-.3-1-.5-1s-.7.4-1 1c-.4.5-.2 1 .4 1 .6 0 1-.5 1-1zm-110.5-8.3c.7-4 5.6-9.7 8.4-9.7 1 0 1.5-1 1.5-2.5 0-2.5-.1-2.5-7.8-2.5h-8l.6 2.7 1.8 10.6c1.3 8 2.3 8.5 3.5 1.4zm49.4 0c0-1-.4-1.7-1-1.7s-.8-.6-.4-1.2c.5-.7.3-.9-.5-.4-.7.4-2.2-.3-3.7-1.8-2.7-2.7-5.4-3.5-5.4-1.5a36 36 0 0 0 3.2 7l3.1 6 2.4-2.3c1.3-1.2 2.3-3 2.3-4zm51 3.4c0-.4-.9-1.6-2-2.6-2.2-2-2.8-.4-.7 2 1.4 1.6 2.7 1.9 2.7.6zm-22.8-7c.8-2.4 1.7-3 4.2-3.3 3.1-.3 3.1-.4 2.9-5.3-.2-2.7-1-5.6-1.7-6.5-1-1-1.1-2-.5-3.3 1.5-2.6-2.6-8.5-6.2-9.1a15 15 0 0 1-3.6-1.5c-1.9-1-2.3-1-2.3.3 0 .8-1.2 2.2-2.7 3-4 2-7 5.6-7.6 9.4-.4 1.8-.2 3 .2 2.7.5-.3 1.4.1 2 .9.9 1 .9 1.6.2 2-1.4.9-1.4 3.6 0 3.6.5 0 1.4-1.2 2-2.5.7-2 1.6-2.5 4-2.5 3.8 0 4.6 2 3 7-1 3-2 4-4.4 4.5l-3 .7 2.4 1.4c1.3.7 4.1 1.3 6.2 1.3 3.4 0 4-.3 4.9-2.9zm-22.7-.1c.4-.6.2-1-.4-1-.6 0-1 .4-1 1 0 .5.1 1 .4 1 .2 0 .7-.5 1-1zm-36.9-7c.2-3-.1-4-1.3-4-1 0-1.3.6-.9 2.2.3 1.3.6 3.4.6 4.7 0 3.9 1.4 1.4 1.6-3zm114.6-.5l.3-4-4.1-.2c-4-.1-4.1 0-3 2 2 4 5.1 7.5 5.8 6.8.4-.3.8-2.4 1-4.6zm-77.4-3.2c2.9-.7 2.6-3.3-.5-4.4-1.9-.7-2.5-.4-3.8 2.1-1.4 2.8-1.4 3 .3 3 1 0 2.8-.3 4-.7zM65.2 97c.3-3.7 1.3-9.7 2.2-13.2 2.3-9 9.6-23.4 15-29.6 2.5-2.8 4.5-5.5 4.5-6 0-.4-2.5-3.1-5.6-6L75.7 37l-2.6 3a108.4 108.4 0 0 0-23.9 56.1l-.6 7.8h16zm20.2 3.1c2.2-13.9 6.7-24.9 13.2-33L102 63l-5.5-5.5-5.5-5.6-4.6 6.2a90.7 90.7 0 0 0-16 40.3l-.7 5.6h15.1zm11 1.8c-.7-2.3 2.9-11 4.5-11 .6 0 3-1.8 5.3-4s4.9-4.3 5.8-4.6c1-.3 2.4-1.6 3.3-2.8 1.4-2.2 1.3-2.6-3.8-7.6l-5.4-5.3L103 71c-5 6.8-8.6 14.7-10.3 22.6-2.3 9.9-2.2 10.3 1.4 10.3 2.6 0 3-.3 2.4-2zm112-.6c-.7-2.5 3-12.4 4.5-12.4.3 0 .6 2.9.7 6.5.1 3.5.5 7 .8 7.5.7 1 6.1 1.3 11.8.3l3.7-.6-.6-4.1c-.8-5.9-3.2-15.2-5-19.8C223 76 222 75 220.5 75c-1.3 0-2.8-1.1-3.8-3-1-1.5-3.7-3.8-6-5-2.3-1.2-4.8-3-5.5-4.1-.8-1-2-2-2.8-2-1.6 0-2.9-2.4-4-7.2-.6-3.2-2.9-4.5-4.9-2.8-1.1 1-1.2 1.9-.4 4.4.6 1.7 1.7 3.9 2.5 4.7.7 1 1.3 2.1 1.3 2.8 0 .6.9 1.6 2 2.1 1 .6 2.2 2 2.5 3 .4 1.4 1.5 2 3.2 2 1.9 0 2.4.5 2 1.6-.3.8-.1 1.5.4 1.5.6 0 1 .8.7 1.7-.1 1 .5 2.5 1.4 3.5 3.8 3.7.9 18-4.2 20.8-3.5 1.9-2.2 4.7 2.3 4.9 1.4 0 1.6-.5 1.1-2.5zm38.4 1.6h4.3l-.7-6.8c-1-9-3.7-19.5-7.5-28.6a118.3 118.3 0 0 0-17.9-28l-3-3-5.4 5.9-5.3 5.9L218 56c9.2 10.6 15 24.9 16.5 41l.7 7 3.6-.6c2-.3 5.6-.6 8-.6zm-40.7-14c-.8-2.5-2.5-5-4.7-6.6-2.6-2-3.2-3-2.5-4.3 1-1.9-.1-4.5-3.8-8.4l-2.6-2.8-5.8 5.8c-6.2 6.1-6.1 7.2.3 7.3 4.2 0 9 3.2 9 6 0 1.6.5 1.8 2.7 1.4 2-.4 3.3 0 4.6 1.4 1.7 1.8 1.7 2.2.2 4.4-2 3.1-.8 4.4 1.8 1.8 1.8-1.7 1.9-2.3.8-6zm-57.2-.6c0-.3-.6-.4-1.5-.4-.8 0-1.5.4-1.5 1 0 .5.7.6 1.5.3.9-.3 1.5-.7 1.5-1zm18.6-3.2c2.8-2.3 4.3-4.2 4-5.1a2 2 0 0 1 .7-2.3c1-.7.8-1.2-.7-2.4-2.4-1.8-11-5-15.9-6-3.4-.6-3.7-.5-3.7 1.8 0 4.5 1.2 8.6 2.7 9.2.8.3 2.7-.3 4-1.4 3.4-2.6 4.3-2.6 4.3.4 0 1.5-1.2 3.4-3.2 5.1-1.8 1.5-2.8 2.4-2.2 2.1.6-.3 2 0 3 .9 2.5 1.8 1.9 2 7-2.3zm-29-1.3c.8-.7 1.4-2 1.4-3 0-1.6.6-1.8 3-1.3l3 .6V68.7l-3.2.7c-5.1 1-14.4 5.5-16.7 7.9l-2.1 2.2 2.5 1.2c1.4.6 2.5 1.7 2.5 2.4 0 1.7 7.8 2.2 9.6.7zm40.8-1.4c.3-.9.1-1.5-.4-1.5s-1 .6-1 1.5c0 .8.2 1.5.4 1.5s.7-.7 1-1.5zM124 71.3c2-2.5 10.6-6.4 16.5-7.6l5.4-1.1v-15l-4.5.7c-9 1.4-21 6.6-28.5 12.5l-2.5 2 5 5c5.3 5.4 6.6 6 8.6 3.5zm59.8-3.8l5.2-5.3-3.8-2.6a71.3 71.3 0 0 0-31-11.7c-2.1 0-2.3.4-2.3 7.3v7.3l6.2 1.2c6 1.3 13.3 4.4 17.3 7.6 1.1.8 2.3 1.5 2.6 1.5a42 42 0 0 0 5.8-5.3zm-61.3-19.7c3.3-1.5 9-3.3 12.5-4l8.7-1.6c2-.3 2.2-.9 2.2-8v-7.5l-5.2.7a88.7 88.7 0 0 0-39.5 15.8L95 47.8l5.7 5.4 5.6 5.4 5-4c2.9-2.2 7.9-5.3 11.2-6.8zm62.4 3c0-.6-.4-2-1-3-1.5-2.8.5-2.4 2.9.6 2.7 3.5 4.2 3.2 3.4-.8C189 41 186 36 182.2 34a98.2 98.2 0 0 0-24.5-6.7l-5.8-.7v7.5c0 8.3.4 8.8 6.6 8.8 4.3 0 18 4.3 22 7 3.3 2.2 4.4 2.4 4.4.9zM97.3 39.3a95 95 0 0 1 27.4-14.8c2.9-.8 8.8-2 13.2-2.7l8-1.2v-7.9c0-7.6 0-7.9-2.2-7.4l-7.8 1C119 8.4 97.4 18 82 31l-2.3 2 5.8 5.4c3.3 3 6 5.5 6.3 5.5.2 0 2.6-2 5.5-4.5zM217.9 33c1-.7-8.5-8.4-16.3-13.2a107.4 107.4 0 0 0-44.4-14.3l-5.3-.5v12.9l2.8-.7c1.5-.3 4-1.2 5.4-2 1.5-.7 4-1.3 5.6-1.3 3.2 0 7.2 2.4 6 3.6a37 37 0 0 1-16 1.2c-1.3-.7-1.8-.5-1.8.5s1.7 1.7 5.3 2.2c8.3 1 16.7 3.4 22.2 6.2a24 24 0 0 0 10.7 2.8c4.5 0 6.4.7 9.3 2.9 2 1.5 4 3.5 4.3 4.4 1.5 4.4 2.4 4.4 7.1 0A139 139 0 0 1 218 33zM199.2 30c-2.8-2.3-2.9-3-.3-3 2 0 4.7 3.5 3.3 4.3-.4.3-1.8-.3-3-1.3zm28.5 178.3a78.4 78.4 0 0 0 11.6-24c2-5.6 4.6-12.3 6-15 2.6-5.1 11.3-17 10.3-14-.3.9-1.3 5.4-2.2 10-4.6 24-6.3 28.6-13.4 35.6-5.2 5-4.6 4.8 5.4-2.4 4-2.8 12.6-8 19.3-11.4 10-5.2 13.3-7.5 18.2-12.8 3.3-3.5 6-5.9 6-5.3 0 .7-1.3 4-3 7.6a65.4 65.4 0 0 1-31.5 28.6c-2.2.8-9 2.5-15 3.7l-12.9 2.7c-1.5.5-1.2-.2 1.2-3.3zm-195.2-28c-15.2-10-23.6-18.1-27.7-26.7-3-6.5-5-14.6-4.8-20.5v-3.6l1.5 3.8c2 5.5 4.7 9.1 15 19.7 5 5.2 10.8 12 12.8 15.2 4.3 6.8 6.6 8.6 3.7 3a47.4 47.4 0 0 1-3.2-11c-1-6-1-8.2 1-17.8 1.2-6 2.2-12.3 2.2-14 .3-7.3 3.8 9.1 5.8 26.8a143.4 143.4 0 0 0 6.8 33.4l-13.1-8.3zm222.6 3a103 103 0 0 0 5.8-31.3 98.2 98.2 0 0 1 5-27.9c.7-1.2 1-.7 1 2.4 0 2.2.7 8.2 1.5 13.5a57 57 0 0 1 0 25.5l-1.5 4.3 4.7-5.5c2.5-3.2 7.2-8.5 10.3-11.8a73 73 0 0 0 15.7-21.3l2.5-5.7-.5 7c-1.4 20-14.3 36.4-41.3 52.3l-5.2 3 2-4.4zm10.2-9.9c.4-.9.2-1.3-.4-1-.5.4-1 1.1-1 1.6 0 1.5.8 1.1 1.4-.6zM15.4 143a56.1 56.1 0 0 1-14.1-27.2c-1.6-7.7-1.4-22 .4-26.8.9-2.4 1-2.2 1.7 2 1 6.5 2.2 10.2 7.2 21.9a113 113 0 0 1 6 18c.9 4.2 1.8 7.9 2.2 8.3.3.3.6-4 .6-9.5 0-10.2 0-10.2 4.5-18.2a1112 1112 0 0 0 7.3-13.5l3-5.5-.6 8.5c-.4 5.4-2.1 14-4.8 23.5-2.3 8.2-4.4 18-4.8 21.7l-.6 6.8zm259.9 1.7a66.4 66.4 0 0 0-3-16.2 137.1 137.1 0 0 1-7.2-30c-1-8.9-.8-10.2.9-6 .5 1.6 3.3 6.6 6.1 11.3 7.8 12.8 9.2 17.1 8.5 26.7-.6 8.9.5 8.2 2.2-1.3.6-3.5 3.4-12 6.2-19 2.8-7 5.7-15.9 6.4-19.7l1.2-7 1.2 5.3c3.2 14.8 0 33.6-7.6 43.9a746.2 746.2 0 0 1-14.6 19.3l-.3-7.3zM15.9 112.3c0-1-1.9-7.1-4.2-13.8C7.8 87.3 7.5 85.6 7.5 76c0-9.3.3-11.3 2.7-17 1.6-3.6 3.7-7.7 4.8-9 2-2.5 2-2.5 1.4-.2-1 3.4-.7 14.2.6 23.5.6 4.5.8 12.2.5 17.2-.5 8.9-.5 9 .8 3.8 1.8-7 3.5-9.4 15-21.4 9.2-9.6 10-10 9.3-7-1.2 5.8-5.1 13.3-13.5 26-4.5 6.6-8.9 14.3-9.9 17-1.7 5-3.3 6.6-3.3 3.5zm266.1-.4A70 70 0 0 0 269.8 90a72.5 72.5 0 0 1-13.5-25.1c-.6-3.4-.3-3.3 9 6 11 10.7 13.4 14.1 15.3 21.4l1.3 5-.4-8.4c-.2-4.7.1-14.2.7-21 .9-10.4.8-13.5-.5-18.3a34 34 0 0 1-1.2-5.7c1 0 7 11.5 9 17.5 3.7 11.1 3.4 17.5-2 34.2-2.4 7.6-4.6 14.7-4.8 15.8-.3 1.1-.6 1.3-.7.5zm-261-48c-.1-8.7.2-16.3.9-18.7 1.5-6 6.9-13.2 12.5-17 5.8-4 7.8-4.3 4.3-.6-3.8 4-6.3 10.3-8.8 22.3-1.2 5.7-2.4 11-2.7 11.5a99.6 99.6 0 0 1 15-13A61 61 0 0 0 53 38.7l3.2-4.2-.8 3.5a38.8 38.8 0 0 1-12.2 19.5c-3.6 3.3-10 9.3-14.1 13.5l-7.7 7.5zm252.6 8.4A94.1 94.1 0 0 0 262 62c-12.8-9.8-17.3-15.6-19.6-25.3-.6-2.6-.4-2.6 3.2 1.4 2 2.3 7.7 7.1 12.6 10.7A51 51 0 0 1 273 63.8c0-.2-1.3-4.4-3-9.3-1.6-5-3-9.5-3-10.2 0-3.7-4.5-15-7.2-18l-3.2-3.7 4 2c5.2 2.7 12 10.1 14.7 16 2 4.2 2.2 6.6 2.2 20.5v15.7l-3.8-4.5zm-238.7-24c0-1.7 4.6-14.7 6.4-18.2C44.8 23.3 53 17 64 12.9l5.5-2.2-3.6 3.8c-2 2.1-6 7.5-9.1 11.9-3.1 4.4-7.6 9.8-10 12C36.5 48 35 49.2 35 48.2zm218.7-9.5A151.2 151.2 0 0 1 239.3 23a124 124 0 0 0-8.6-10.4c-3.4-3.4-3.5-4-.2-2.7a56.4 56.4 0 0 1 24 15.4 72 72 0 0 1 8 21.3c-.1.2-4.2-3.3-9-7.8z"/>
</symbol>
</svg>
